<svg xmlns="http://www.w3.org/2000/svg" width="112.5" viewBox="0 0 112.5 36" height="36" version="1.0"><defs><clipPath id="a"><path d="M 95.328125 21.109375 L 110.738281 21.109375 L 110.738281 35.027344 L 95.328125 35.027344 Z M 95.328125 21.109375"/></clipPath><clipPath id="b"><path d="M 11 27 L 36 27 L 36 35.027344 L 11 35.027344 Z M 11 27"/></clipPath><clipPath id="c"><path d="M 10.371094 25.757812 L 35.273438 24.761719 L 36.0625 44.535156 L 11.164062 45.53125 Z M 10.371094 25.757812"/></clipPath><clipPath id="d"><path d="M 10.371094 25.757812 L 35.273438 24.761719 L 36.0625 44.535156 L 11.164062 45.53125 Z M 10.371094 25.757812"/></clipPath><clipPath id="e"><path d="M 7.871094 8.648438 L 38.65625 8.648438 L 38.65625 22.574219 L 7.871094 22.574219 Z M 7.871094 8.648438"/></clipPath><clipPath id="f"><path d="M 66.023438 9 L 87 9 L 87 20.964844 L 66.023438 20.964844 Z M 66.023438 9"/></clipPath></defs><path fill="#EDF2F6" d="M 76.714844 -0.890625 C 74.441406 1.984375 73.617188 6.929688 76.714844 10.152344 C 79.8125 13.375 84.957031 12.109375 88.589844 12.683594 C 92.21875 13.257812 96.695312 13.257812 97.613281 8.195312 C 98.53125 3.136719 96.351562 1.871094 90.148438 -1.699219 C 83.945312 -5.265625 81.082031 -6.417969 76.714844 -0.890625 Z M 76.714844 -0.890625"/><g clip-path="url(#a)"><path fill="#EDF2F6" d="M 111.453125 35.035156 L 95.328125 35.035156 C 95.582031 31.5 98.261719 32.265625 99.878906 31.25 C 101.519531 30.234375 100.644531 27.800781 102.722656 26.226562 C 104.777344 24.625 106.257812 25.054688 107.457031 24.625 C 108.660156 24.195312 108.890625 22.597656 109.675781 21.785156 C 110.34375 21.109375 111.453125 21.109375 111.453125 21.109375 Z M 111.453125 35.035156"/></g><g clip-path="url(#b)"><g clip-path="url(#c)"><g clip-path="url(#d)"><path fill="#C8B0EF" d="M 13.691406 31.152344 C 11.53125 34.121094 10.90625 39.09375 14.132812 42.1875 C 17.355469 45.28125 22.445312 43.8125 26.097656 44.242188 C 29.746094 44.671875 34.222656 44.492188 34.933594 39.398438 C 35.652344 34.304688 33.417969 33.128906 27.078125 29.808594 C 20.738281 26.492188 17.832031 25.457031 13.691406 31.152344 Z M 13.691406 31.152344"/></g></g></g><g clip-path="url(#e)"><path fill="#EDF2F6" d="M 12.667969 12.160156 C 12.667969 13.285156 13.207031 14.292969 14.046875 14.933594 C 14.304688 15.136719 14.15625 15.539062 13.832031 15.539062 L 11.464844 15.539062 C 9.503906 15.550781 7.921875 17.121094 7.921875 19.0625 C 7.921875 21.007812 9.503906 22.574219 11.464844 22.574219 L 24.5625 22.574219 C 26.523438 22.574219 28.101562 21.007812 28.101562 19.0625 C 28.101562 18.941406 28.101562 18.835938 28.089844 18.730469 C 27.925781 17.105469 29.171875 15.6875 30.804688 15.6875 L 35.050781 15.6875 C 37.011719 15.6875 38.589844 14.117188 38.589844 12.175781 C 38.605469 10.21875 37.023438 8.648438 35.0625 8.648438 L 16.207031 8.648438 C 14.25 8.648438 12.667969 10.21875 12.667969 12.160156 Z M 12.667969 12.160156"/></g><g clip-path="url(#f)"><path fill="#C8B0EF" d="M 71.332031 20.492188 C 68.519531 20.964844 66.035156 19.710938 66.699219 17.050781 C 67.367188 14.394531 73.519531 14.390625 75.863281 12.671875 C 78.207031 10.949219 83.207031 7.035156 85.238281 11.574219 C 87.269531 16.113281 86.015625 20.53125 81.957031 20.589844 C 77.894531 20.648438 71.332031 20.492188 71.332031 20.492188 Z M 71.332031 20.492188"/></g></svg>