<?xml version="1.0" encoding="utf-8"?>
<!-- Generator: Adobe Illustrator 26.0.2, SVG Export Plug-In . SVG Version: 6.00 Build 0)  -->
<svg version="1.1" xmlns="http://www.w3.org/2000/svg" xmlns:xlink="http://www.w3.org/1999/xlink" x="0px" y="0px"
	 viewBox="0 0 150 92" style="enable-background:new 0 0 150 92;" xml:space="preserve">
<style type="text/css">
	.st0{opacity:0.65;fill:url(#SVGID_1_);enable-background:new    ;}
	.st1{opacity:0.32;fill:#915CE6;enable-background:new    ;}
</style>
<g id="Camada_1">
	<g id="Camada_2_00000040567374427684707530000006433456125296910977_">
		
			<linearGradient id="SVGID_1_" gradientUnits="userSpaceOnUse" x1="0.1" y1="-5.95" x2="149.9" y2="-5.95" gradientTransform="matrix(1 0 0 1 0 52)">
			<stop  offset="0" style="stop-color:#DFDCFD"/>
			<stop  offset="0.2957" style="stop-color:#E3D9F8"/>
			<stop  offset="0.6682" style="stop-color:#EDD2E8"/>
			<stop  offset="1" style="stop-color:#FBC8D4"/>
		</linearGradient>
		<rect x="0.1" y="0.2" class="st0" width="149.8" height="91.7"/>
	</g>
</g>
<g id="Camada_2">
	<path class="st1" d="M90.8,13.8H14.6C7.1,13.8,1,7.7,1,0.2l0,0c0-7.5,6.1-13.6,13.6-13.6h76.2c7.5,0,13.6,6.1,13.6,13.6l0,0
		C104.3,7.7,98.3,13.8,90.8,13.8z"/>
	<path class="st1" d="M143.1,105.6H66.8c-7.5,0-13.5-6-13.5-13.5l0,0c0-7.5,6.1-13.6,13.6-13.6h76.2c7.5,0,13.6,6.1,13.6,13.6l0,0
		C156.6,99.6,150.5,105.6,143.1,105.6z"/>
</g>
</svg>
