<?xml version="1.0" encoding="utf-8"?>
<!-- Generator: Adobe Illustrator 26.0.2, SVG Export Plug-In . SVG Version: 6.00 Build 0)  -->
<svg version="1.1" xmlns="http://www.w3.org/2000/svg" xmlns:xlink="http://www.w3.org/1999/xlink" x="0px" y="0px"
	 viewBox="0 0 3844 1874.8" style="enable-background:new 0 0 3844 1874.8;" xml:space="preserve">
<style type="text/css">
	.st0{fill:#FFFFAB;}
	.st1{opacity:0.32;fill:url(#SVGID_1_);}
	.st2{opacity:0.32;fill:url(#SVGID_00000145034081201741347470000017398180672804236421_);}
	.st3{fill:url(#SVGID_00000133487374319963742420000011053188239719241651_);}
	.st4{fill:url(#SVGID_00000003082901524419003000000018242090169417394343_);}
	.st5{fill:url(#SVGID_00000176745935169623769540000009385157159118594492_);}
	.st6{fill:url(#SVGID_00000057127071790253328350000010146134289276836252_);}
	.st7{fill:#FFFFFF;}
</style>
<g id="Camada_9">
	<circle class="st0" cx="2393.8" cy="1361.2" r="393.6"/>
</g>
<g id="Camada_6">
	<linearGradient id="SVGID_1_" gradientUnits="userSpaceOnUse" x1="1922" y1="1415.53" x2="1922" y2="39.1211">
		<stop  offset="0" style="stop-color:#FFFFFF"/>
		<stop  offset="0.1679" style="stop-color:#FCFDFF"/>
		<stop  offset="0.2991" style="stop-color:#F2F8FF"/>
		<stop  offset="0.4178" style="stop-color:#E1EFFF"/>
		<stop  offset="0.5292" style="stop-color:#CAE2FF"/>
		<stop  offset="0.6354" style="stop-color:#ACD2FF"/>
		<stop  offset="0.7379" style="stop-color:#87BEFF"/>
		<stop  offset="0.8373" style="stop-color:#5BA6FF"/>
		<stop  offset="0.9317" style="stop-color:#298BFF"/>
		<stop  offset="1" style="stop-color:#0075FF"/>
	</linearGradient>
	<rect class="st1" width="3844" height="1415.5"/>
</g>
<g id="Camada_7">
	
		<linearGradient id="SVGID_00000085242126427923526160000000762292592490369467_" gradientUnits="userSpaceOnUse" x1="1922" y1="1415.53" x2="1922" y2="39.1211">
		<stop  offset="0" style="stop-color:#FFFFFF"/>
		<stop  offset="0.1019" style="stop-color:#F9FDFD"/>
		<stop  offset="0.2349" style="stop-color:#E9F7F6"/>
		<stop  offset="0.385" style="stop-color:#CEEEEA"/>
		<stop  offset="0.5478" style="stop-color:#A8E0DB"/>
		<stop  offset="0.7209" style="stop-color:#78CFC6"/>
		<stop  offset="0.8998" style="stop-color:#3EBBAE"/>
		<stop  offset="1" style="stop-color:#1AAE9F"/>
	</linearGradient>
	<rect style="opacity:0.32;fill:url(#SVGID_00000085242126427923526160000000762292592490369467_);" width="3844" height="1415.5"/>
</g>
<g id="Camada_5">
	
		<linearGradient id="SVGID_00000170246571966676637030000002677539531407956643_" gradientUnits="userSpaceOnUse" x1="1922" y1="1129.8347" x2="1922" y2="1371.0807">
		<stop  offset="0" style="stop-color:#FFFFFF"/>
		<stop  offset="1" style="stop-color:#5865F2"/>
	</linearGradient>
	<path style="fill:url(#SVGID_00000170246571966676637030000002677539531407956643_);" d="M0,1186.4c43.6-11.2,115.1-25.8,203.2-25
		c161.5,1.4,279.9,53.6,314.4,67.3c292.3,116.4,634.9-107.8,1179.4-98.5c459.5,7.8,413.7,170.8,820.8,141.7
		c319.8-22.8,464.1-131.7,825-125c215.9,4,390.6,47.1,501.2,81.2c0,50,0,99.9,0,149.9c-1281.3,0-2562.7,0-3844,0
		C0,1314.1,0,1250.2,0,1186.4z"/>
</g>
<g id="Camada_4_00000181783930335538452290000013824608431246179213_">
	
		<linearGradient id="SVGID_00000003105734494463265470000008135941045904683687_" gradientUnits="userSpaceOnUse" x1="1922" y1="1207.0226" x2="1922" y2="1539.4053">
		<stop  offset="0" style="stop-color:#FFFFFF"/>
		<stop  offset="1" style="stop-color:#5865F2"/>
	</linearGradient>
	<path style="fill:url(#SVGID_00000003105734494463265470000008135941045904683687_);" d="M0,1384.3
		c173.7-78.1,441.7-172.4,772-177.1c342.1-4.8,395.4,91.5,777.1,134.9c707.3,80.5,760.4-223.5,1316.7-97.4
		c186.9,42.4,439.9,135.4,783.3,70.8c83.9-15.8,151.3-36.8,194.9-52.1c0,95.1,0,190.3,0,285.4c-1281.3,0-2562.7,0-3844,0
		C0,1494,0,1439.1,0,1384.3z"/>
</g>
<g id="Camada_3">
	
		<linearGradient id="SVGID_00000045620040050345669670000017909283519521666220_" gradientUnits="userSpaceOnUse" x1="1922" y1="1259.3513" x2="1922" y2="1611.2406">
		<stop  offset="0" style="stop-color:#FFFFFF"/>
		<stop  offset="1" style="stop-color:#5865F2"/>
	</linearGradient>
	<path style="fill:url(#SVGID_00000045620040050345669670000017909283519521666220_);" d="M0,1315.5
		c143.5-39.4,362.6-79.7,617.8-39.6c304,47.7,362,162.7,618.8,191.7c359.3,40.5,409-166.2,818-193c343-22.4,433,114.8,929.9,205.5
		c341.8,62.4,632.1,58.2,829.2,43.8c10.1,32.5,20.2,64.9,30.3,97.4c-1281.3,0-2562.7,0-3844,0C0,1519.3,0,1417.4,0,1315.5z"/>
</g>
<g id="Camada_2">
	
		<linearGradient id="SVGID_00000178177368388193200030000005959318624565268612_" gradientUnits="userSpaceOnUse" x1="1922" y1="1337.8105" x2="1922" y2="1859.969">
		<stop  offset="0" style="stop-color:#FFFFFF"/>
		<stop  offset="1" style="stop-color:#5865F2"/>
	</linearGradient>
	<path style="fill:url(#SVGID_00000178177368388193200030000005959318624565268612_);" d="M0,1384.3
		c155.2,55.7,388.8,118.9,672,112.5c363.2-8.3,443.7-122.9,775-150c540.2-44.3,562,241,1054.2,195.8
		c418.4-38.4,575.7-260.5,981.2-191.7c161.3,27.4,285.7,87.8,361.6,131.2c0,130.9,0,261.7,0,392.6c-1281.3,0-2562.7,0-3844,0
		C0,1711.3,0,1547.8,0,1384.3z"/>
</g>
<g id="Camada_8">
	<g>
		
			<ellipse transform="matrix(0.9981 -6.136509e-02 6.136509e-02 0.9981 -43.5866 32.6656)" class="st7" cx="510" cy="725.9" rx="228.6" ry="135.4"/>
		
			<ellipse transform="matrix(0.9981 -6.136509e-02 6.136509e-02 0.9981 -42.2318 46.6377)" class="st7" cx="738.2" cy="710.9" rx="169.8" ry="86.5"/>
		
			<ellipse transform="matrix(0.9981 -6.136509e-02 6.136509e-02 0.9981 -42.3941 18.4582)" class="st7" cx="279.3" cy="699.4" rx="169.8" ry="86.5"/>
	</g>
	<g>
		
			<ellipse transform="matrix(0.9981 -6.136509e-02 6.136509e-02 0.9981 -28.267 206.6573)" class="st7" cx="3350.4" cy="563.5" rx="228.6" ry="135.4"/>
		
			<ellipse transform="matrix(0.9981 -6.136509e-02 6.136509e-02 0.9981 -26.9122 220.6294)" class="st7" cx="3578.5" cy="548.5" rx="169.8" ry="86.5"/>
		
			<ellipse transform="matrix(0.9981 -6.136509e-02 6.136509e-02 0.9981 -27.0745 192.4499)" class="st7" cx="3119.7" cy="537" rx="169.8" ry="86.5"/>
	</g>
	<g>
		<ellipse class="st7" cx="2744.9" cy="738.4" rx="99" ry="36.5"/>
		<ellipse class="st7" cx="2868.9" cy="714.5" rx="72.9" ry="37.5"/>
	</g>
	<ellipse class="st7" cx="1030.3" cy="534.3" rx="80.2" ry="35.4"/>
	<ellipse class="st7" cx="940.8" cy="517.6" rx="55.2" ry="35.4"/>
</g>
<g id="Camada_10">
	<g>
		<path d="M1248.7,382.2c16.7,1.1,32.9,8.1,45.7,18.9c0,0-1.4-0.3-1.4-0.3c8.7-3,17.9-4.8,27.1-5.1c9.2-0.3,18.4,0.7,27.2,3.3
			c-9-1.3-18.1-1.7-27.1-0.9c-9,0.7-17.8,2.6-26.3,5.5c0,0-0.8,0.3-0.8,0.3l-0.6-0.5C1280,392.7,1264.7,385.6,1248.7,382.2
			L1248.7,382.2z"/>
	</g>
	<g>
		<path d="M1304.6,416.3c16.7,1.1,32.9,8.1,45.7,18.9c0,0-1.4-0.3-1.4-0.3c8.7-3,17.9-4.8,27.1-5.1c9.2-0.3,18.4,0.7,27.2,3.3
			c-9-1.3-18.1-1.7-27.1-0.9c-9,0.7-17.8,2.6-26.3,5.5c0,0-0.8,0.3-0.8,0.3l-0.6-0.5C1335.9,426.7,1320.7,419.6,1304.6,416.3
			L1304.6,416.3z"/>
	</g>
	<g>
		<path d="M1199.4,416.3c16.7,1.1,32.9,8.1,45.7,18.9c0,0-1.4-0.3-1.4-0.3c8.7-3,17.9-4.8,27.1-5.1c9.2-0.3,18.4,0.7,27.2,3.3
			c-9-1.3-18.1-1.7-27.1-0.9c-9,0.7-17.8,2.6-26.3,5.5c0,0-0.8,0.3-0.8,0.3l-0.6-0.5C1230.7,426.7,1215.4,419.6,1199.4,416.3
			L1199.4,416.3z"/>
	</g>
	<g>
		<path d="M1347.3,446.2c16.7,1.1,32.9,8.1,45.7,18.9c0,0-1.4-0.3-1.4-0.3c8.7-3,17.9-4.8,27.1-5.1c9.2-0.3,18.4,0.7,27.2,3.3
			c-9-1.3-18.1-1.7-27.1-0.9c-9,0.7-17.8,2.6-26.3,5.5c0,0-0.8,0.3-0.8,0.3l-0.6-0.5C1378.6,456.7,1363.3,449.6,1347.3,446.2
			L1347.3,446.2z"/>
	</g>
	<g>
		<path d="M1182.4,388.7c16.7,1.1,32.9,8.1,45.7,18.9c0,0-1.4-0.3-1.4-0.3c8.7-3,17.9-4.8,27.1-5.1c9.2-0.3,18.4,0.7,27.2,3.3
			c-9-1.3-18.1-1.7-27.1-0.9c-9,0.7-17.8,2.6-26.3,5.5c0,0-0.8,0.3-0.8,0.3l-0.6-0.5C1213.7,399.2,1198.4,392.1,1182.4,388.7
			L1182.4,388.7z"/>
	</g>
</g>
</svg>
