<?xml version="1.0" encoding="utf-8"?>
<!-- Generator: Adobe Illustrator 26.0.2, SVG Export Plug-In . SVG Version: 6.00 Build 0)  -->
<svg version="1.1" id="Camada_1" xmlns="http://www.w3.org/2000/svg" xmlns:xlink="http://www.w3.org/1999/xlink" x="0px" y="0px"
	 viewBox="0 0 81 81" style="enable-background:new 0 0 81 81;" xml:space="preserve">
<style type="text/css">
	.st0{fill:#505B6D;}
</style>
<g>
	<path class="st0" d="M9,14"/>
	<g>
		<path class="st0" d="M13,27L13,27c-2.2,0-4-1.8-4-4V13c0-2.2,1.8-4,4-4h0c2.2,0,4,1.8,4,4v10C17,25.2,15.2,27,13,27z"/>
		<path class="st0" d="M27,13L27,13c0,2.2-1.8,4-4,4H13c-2.2,0-4-1.8-4-4v0c0-2.2,1.8-4,4-4h10C25.2,9,27,10.8,27,13z"/>
	</g>
	<path class="st0" d="M50,13L50,13c0,2.2-1.8,4-4,4H36c-2.2,0-4-1.8-4-4v0c0-2.2,1.8-4,4-4h10C48.2,9,50,10.8,50,13z"/>
	<g>
		<path class="st0" d="M27,68L27,68c0,2.2-1.8,4-4,4H13c-2.2,0-4-1.8-4-4v0c0-2.2,1.8-4,4-4h10C25.2,64,27,65.8,27,68z"/>
		<path class="st0" d="M13,54L13,54c2.2,0,4,1.8,4,4v10c0,2.2-1.8,4-4,4h0c-2.2,0-4-1.8-4-4V58C9,55.8,10.8,54,13,54z"/>
	</g>
	<g>
		<path class="st0" d="M54,13L54,13c0-2.2,1.8-4,4-4h10c2.2,0,4,1.8,4,4v0c0,2.2-1.8,4-4,4H58C55.8,17,54,15.2,54,13z"/>
		<path class="st0" d="M68,27L68,27c-2.2,0-4-1.8-4-4V13c0-2.2,1.8-4,4-4h0c2.2,0,4,1.8,4,4v10C72,25.2,70.2,27,68,27z"/>
	</g>
	<g>
		<path class="st0" d="M68,54L68,54c2.2,0,4,1.8,4,4v10c0,2.2-1.8,4-4,4h0c-2.2,0-4-1.8-4-4V58C64,55.8,65.8,54,68,54z"/>
		<path class="st0" d="M54,68L54,68c0-2.2,1.8-4,4-4h10c2.2,0,4,1.8,4,4v0c0,2.2-1.8,4-4,4H58C55.8,72,54,70.2,54,68z"/>
	</g>
	<path class="st0" d="M49,68L49,68c0,2.2-1.8,4-4,4H35c-2.2,0-4-1.8-4-4v0c0-2.2,1.8-4,4-4h10C47.2,64,49,65.8,49,68z"/>
	<path class="st0" d="M68,50L68,50c-2.2,0-4-1.8-4-4V36c0-2.2,1.8-4,4-4h0c2.2,0,4,1.8,4,4v10C72,48.2,70.2,50,68,50z"/>
	<path class="st0" d="M13,50L13,50c-2.2,0-4-1.8-4-4l0-10c0-2.2,1.8-4,4-4h0c2.2,0,4,1.8,4,4l0,10C17,48.2,15.2,50,13,50z"/>
	<path class="st0" d="M22,30"/>
</g>
</svg>
