<svg xmlns="http://www.w3.org/2000/svg" xmlns:xlink="http://www.w3.org/1999/xlink" viewBox="0 0 172.19 86.24"><defs><style>.cls-1{fill:url(#Gradiente_sem_nome_28);}.cls-2{fill:#8ec5fc;}.cls-3{font-size:14px;fill:#3a3a49;font-family:MyriadPro-Regular, Myriad Pro;}.cls-4{fill:#1c1b29;}.cls-5{fill:#312f51;}.cls-6{fill:#915ce6;}.cls-7{fill:#0075ff;}.cls-8{font-size:10px;}.cls-10,.cls-8{fill:#b9bbbe;font-family:FiraCode-Regular, Fira Code;}.cls-9{fill:#fff;}.cls-10{font-size:9px;}</style><linearGradient id="Gradiente_sem_nome_28" x1="0.5" y1="19.5" x2="123.5" y2="19.5" gradientUnits="userSpaceOnUse"><stop offset="0.01" stop-color="#8ec5fc"/><stop offset="1" stop-color="#e0c3fc"/></linearGradient></defs><g id="Camada_1" data-name="Camada 1"><rect class="cls-1" x="0.5" y="0.5" width="123" height="38" rx="3.5"/><path class="cls-2" d="M122,3.35a3,3,0,0,1,3,3v31a3,3,0,0,1-3,3H6a3,3,0,0,1-3-3v-31a3,3,0,0,1,3-3H122m0-1H6a4,4,0,0,0-4,4v31a4,4,0,0,0,4,4H122a4,4,0,0,0,4-4v-31a4,4,0,0,0-4-4Z" transform="translate(-2.04 -2.35)"/><text class="cls-3" transform="translate(33.27 23.61)">01032014</text></g><g id="Camada_2" data-name="Camada 2"><rect class="cls-4" x="93.1" y="13.42" width="76.45" height="72.82" rx="7.44"/><path class="cls-5" d="M112.6,13.42h50.53a6.42,6.42,0,0,1,6.42,6.42v60a6.42,6.42,0,0,1-6.42,6.42H112.6a0,0,0,0,1,0,0V13.42A0,0,0,0,1,112.6,13.42Z"/><rect class="cls-5" x="65.92" y="42.16" width="43.36" height="9.44" rx="2"/><rect class="cls-5" x="61.15" y="53.26" width="43.36" height="9.44" rx="2"/><rect class="cls-5" x="56.48" y="64.36" width="43.36" height="9.44" rx="2"/></g><g id="Camada_3" data-name="Camada 3"><circle class="cls-6" cx="100.57" cy="24.11" r="3.11"/><circle class="cls-7" cx="107.59" cy="83" r="2.46"/></g><g id="Camada_4" data-name="Camada 4"><text class="cls-8" transform="translate(113.99 24.84)">#<tspan class="cls-9" x="6.15" y="0">Editar</tspan></text><text class="cls-10" transform="translate(116.8 42.16)">Clique<tspan x="0" y="10.8">sobre o </tspan><tspan x="0" y="21.6">número do </tspan><tspan x="0" y="32.4">documento</tspan></text><text x="-2.04" y="-2.35"/></g></svg>