<svg xmlns="http://www.w3.org/2000/svg" width="112.5" viewBox="0 0 112.5 75" height="75" version="1.0"><defs><clipPath id="a"><path d="M 12 0.164062 L 90 0.164062 L 90 64 L 12 64 Z M 12 0.164062"/></clipPath><clipPath id="b"><path d="M 25.984375 0.445312 C 17.488281 7.054688 8.835938 27.574219 13.144531 46.410156 C 17.03125 63.5625 29.566406 64.0625 33.644531 63.21875 C 48.808594 60.085938 46.636719 52.902344 56.542969 54.507812 C 66.453125 56.113281 90.878906 52.902344 89.886719 25.699219 C 88.933594 -1.503906 71.75 0.253906 62.832031 -0.738281 C 52.65625 -1.886719 35.625 -7.082031 25.984375 0.445312 Z M 25.984375 0.445312"/></clipPath><clipPath id="c"><path d="M 7 0.164062 L 95 0.164062 L 95 67.730469 L 7 67.730469 Z M 7 0.164062"/></clipPath><clipPath id="d"><path d="M 81 57 L 91 57 L 91 67.730469 L 81 67.730469 Z M 81 57"/></clipPath><clipPath id="e"><path d="M 96 49 L 111.269531 49 L 111.269531 65 L 96 65 Z M 96 49"/></clipPath><clipPath id="f"><path d="M 1.019531 16 L 7 16 L 7 22 L 1.019531 22 Z M 1.019531 16"/></clipPath></defs><g clip-path="url(#a)"><g clip-path="url(#b)"><path fill="#EDF2F6" d="M 8.835938 0.164062 L 8.835938 64.0625 L 90.878906 64.0625 L 90.878906 0.164062 Z M 8.835938 0.164062"/></g></g><g clip-path="url(#c)"><path fill="#915CE6" d="M 31.929688 67.652344 C 31.738281 67.652344 31.546875 67.5 31.546875 67.308594 C 31.546875 67.078125 31.699219 66.925781 31.890625 66.886719 C 32.652344 66.851562 33.375 66.734375 34.101562 66.582031 C 34.292969 66.542969 34.519531 66.660156 34.558594 66.886719 C 34.597656 67.078125 34.480469 67.308594 34.253906 67.347656 C 33.527344 67.5 32.765625 67.613281 31.929688 67.652344 C 31.96875 67.652344 31.96875 67.652344 31.929688 67.652344 Z M 28.917969 67.652344 C 28.878906 67.652344 28.878906 67.652344 28.917969 67.652344 C 28.117188 67.574219 27.355469 67.460938 26.59375 67.308594 C 26.402344 67.269531 26.25 67.078125 26.289062 66.851562 C 26.328125 66.660156 26.519531 66.507812 26.746094 66.542969 C 27.46875 66.695312 28.234375 66.8125 28.957031 66.851562 C 29.183594 66.851562 29.335938 67.039062 29.300781 67.269531 C 29.261719 67.5 29.109375 67.652344 28.917969 67.652344 Z M 23.699219 66.507812 C 23.660156 66.507812 23.621094 66.507812 23.582031 66.46875 C 22.859375 66.199219 22.136719 65.894531 21.449219 65.550781 C 21.257812 65.472656 21.183594 65.246094 21.257812 65.054688 C 21.335938 64.863281 21.5625 64.785156 21.753906 64.863281 C 22.441406 65.167969 23.125 65.472656 23.8125 65.742188 C 24.003906 65.816406 24.117188 66.046875 24.039062 66.238281 C 24.003906 66.390625 23.851562 66.507812 23.699219 66.507812 Z M 37.109375 66.46875 C 36.957031 66.46875 36.804688 66.390625 36.769531 66.238281 C 36.691406 66.046875 36.804688 65.816406 36.996094 65.742188 C 37.683594 65.472656 38.40625 65.167969 39.09375 64.863281 C 39.28125 64.785156 39.511719 64.863281 39.589844 65.054688 C 39.664062 65.246094 39.589844 65.472656 39.398438 65.550781 C 38.710938 65.855469 37.988281 66.160156 37.261719 66.429688 C 37.226562 66.46875 37.1875 66.46875 37.109375 66.46875 Z M 41.988281 64.25 C 41.835938 64.25 41.722656 64.175781 41.644531 64.0625 C 41.53125 63.871094 41.609375 63.640625 41.796875 63.527344 C 42.40625 63.183594 43.015625 62.839844 43.78125 62.417969 C 43.96875 62.304688 44.199219 62.378906 44.3125 62.570312 C 44.425781 62.761719 44.351562 62.992188 44.160156 63.105469 C 43.398438 63.5625 42.789062 63.90625 42.179688 64.25 C 42.101562 64.25 42.027344 64.25 41.988281 64.25 Z M 18.933594 64.097656 C 18.859375 64.097656 18.78125 64.0625 18.707031 64.023438 C 18.058594 63.601562 17.449219 63.105469 16.839844 62.648438 C 16.6875 62.496094 16.648438 62.265625 16.800781 62.113281 C 16.953125 61.960938 17.183594 61.921875 17.335938 62.074219 C 17.90625 62.570312 18.515625 62.992188 19.125 63.410156 C 19.316406 63.527344 19.355469 63.753906 19.238281 63.945312 C 19.203125 64.0625 19.085938 64.097656 18.933594 64.097656 Z M 46.5625 61.578125 C 46.445312 61.578125 46.292969 61.5 46.21875 61.386719 C 46.105469 61.195312 46.179688 60.964844 46.371094 60.851562 C 47.132812 60.394531 47.78125 60.050781 48.390625 59.742188 C 48.582031 59.667969 48.808594 59.742188 48.886719 59.933594 C 48.960938 60.125 48.886719 60.355469 48.695312 60.429688 C 48.085938 60.738281 47.476562 61.082031 46.714844 61.5 C 46.714844 61.539062 46.636719 61.578125 46.5625 61.578125 Z M 14.894531 60.621094 C 14.78125 60.621094 14.703125 60.582031 14.628906 60.507812 C 14.09375 59.933594 13.601562 59.324219 13.144531 58.710938 C 13.027344 58.558594 13.066406 58.292969 13.21875 58.175781 C 13.371094 58.0625 13.636719 58.101562 13.753906 58.253906 C 14.210938 58.863281 14.703125 59.4375 15.199219 59.972656 C 15.351562 60.125 15.316406 60.355469 15.164062 60.507812 C 15.085938 60.582031 15.011719 60.621094 14.894531 60.621094 Z M 51.402344 59.324219 C 51.25 59.324219 51.097656 59.207031 51.019531 59.054688 C 50.945312 58.863281 51.058594 58.636719 51.285156 58.558594 C 52.011719 58.328125 52.773438 58.136719 53.535156 58.023438 C 53.726562 57.984375 53.953125 58.136719 53.992188 58.328125 C 54.03125 58.519531 53.878906 58.75 53.6875 58.789062 C 52.925781 58.902344 52.238281 59.09375 51.515625 59.324219 C 51.476562 59.324219 51.4375 59.324219 51.402344 59.324219 Z M 64.242188 58.902344 C 63.480469 58.902344 62.679688 58.828125 61.917969 58.789062 C 61.6875 58.789062 61.535156 58.597656 61.574219 58.367188 C 61.574219 58.136719 61.765625 57.984375 61.992188 58.023438 C 62.757812 58.101562 63.519531 58.136719 64.242188 58.136719 C 64.472656 58.136719 64.625 58.328125 64.625 58.519531 C 64.625 58.710938 64.472656 58.902344 64.242188 58.902344 Z M 67.289062 58.828125 C 67.101562 58.828125 66.910156 58.671875 66.910156 58.480469 C 66.910156 58.253906 67.0625 58.101562 67.253906 58.0625 C 68.015625 58.023438 68.777344 57.949219 69.5 57.832031 C 69.730469 57.792969 69.882812 57.949219 69.921875 58.175781 C 69.957031 58.367188 69.804688 58.558594 69.578125 58.597656 C 68.851562 58.710938 68.089844 58.789062 67.289062 58.828125 C 67.328125 58.828125 67.289062 58.828125 67.289062 58.828125 Z M 58.945312 58.519531 C 58.90625 58.519531 58.90625 58.519531 58.945312 58.519531 C 58.144531 58.480469 57.382812 58.480469 56.660156 58.519531 C 56.46875 58.519531 56.277344 58.367188 56.277344 58.136719 C 56.277344 57.910156 56.429688 57.757812 56.660156 57.757812 C 57.382812 57.71875 58.183594 57.757812 58.984375 57.757812 C 59.210938 57.757812 59.363281 57.949219 59.363281 58.136719 C 59.289062 58.367188 59.136719 58.519531 58.945312 58.519531 Z M 72.585938 58.0625 C 72.398438 58.0625 72.246094 57.949219 72.207031 57.757812 C 72.167969 57.566406 72.28125 57.335938 72.511719 57.296875 C 73.234375 57.144531 73.996094 56.914062 74.683594 56.726562 C 74.875 56.648438 75.101562 56.761719 75.179688 56.992188 C 75.253906 57.183594 75.140625 57.414062 74.910156 57.488281 C 74.1875 57.71875 73.425781 57.910156 72.664062 58.101562 C 72.625 58.0625 72.585938 58.0625 72.585938 58.0625 Z M 77.65625 56.417969 C 77.503906 56.417969 77.351562 56.34375 77.3125 56.191406 C 77.234375 56 77.3125 55.769531 77.503906 55.691406 C 78.1875 55.386719 78.875 55.042969 79.523438 54.699219 C 79.714844 54.585938 79.941406 54.660156 80.054688 54.851562 C 80.171875 55.042969 80.09375 55.273438 79.902344 55.386719 C 79.21875 55.769531 78.53125 56.113281 77.808594 56.417969 C 77.730469 56.417969 77.695312 56.417969 77.65625 56.417969 Z M 11.769531 56.304688 C 11.65625 56.304688 11.503906 56.226562 11.429688 56.113281 C 11.046875 55.464844 10.703125 54.738281 10.359375 54.050781 C 10.285156 53.859375 10.359375 53.628906 10.550781 53.554688 C 10.742188 53.476562 10.972656 53.554688 11.046875 53.746094 C 11.351562 54.433594 11.695312 55.121094 12.074219 55.730469 C 12.191406 55.921875 12.113281 56.152344 11.921875 56.265625 C 11.921875 56.304688 11.847656 56.304688 11.769531 56.304688 Z M 82.265625 53.78125 C 82.152344 53.78125 82.039062 53.746094 81.960938 53.628906 C 81.847656 53.476562 81.886719 53.210938 82.039062 53.09375 C 82.648438 52.675781 83.21875 52.179688 83.789062 51.679688 C 83.941406 51.527344 84.171875 51.566406 84.324219 51.71875 C 84.476562 51.871094 84.4375 52.101562 84.285156 52.253906 C 83.714844 52.75 83.105469 53.246094 82.457031 53.707031 C 82.417969 53.746094 82.34375 53.78125 82.265625 53.78125 Z M 9.597656 51.453125 C 9.445312 51.453125 9.292969 51.335938 9.257812 51.183594 C 9.027344 50.457031 8.796875 49.734375 8.609375 48.96875 C 8.570312 48.777344 8.683594 48.546875 8.875 48.511719 C 9.066406 48.472656 9.292969 48.585938 9.332031 48.777344 C 9.523438 49.503906 9.714844 50.230469 9.980469 50.957031 C 10.054688 51.148438 9.941406 51.375 9.75 51.453125 C 9.675781 51.453125 9.636719 51.453125 9.597656 51.453125 Z M 86.230469 50.191406 C 86.152344 50.191406 86.039062 50.152344 85.960938 50.078125 C 85.808594 49.925781 85.808594 49.695312 85.925781 49.542969 C 86.417969 49.007812 86.875 48.394531 87.335938 47.785156 C 87.449219 47.632812 87.714844 47.59375 87.867188 47.707031 C 88.019531 47.824219 88.058594 48.089844 87.945312 48.242188 C 87.488281 48.855469 86.992188 49.464844 86.496094 50.039062 C 86.417969 50.152344 86.304688 50.191406 86.230469 50.191406 Z M 8.339844 46.257812 C 8.152344 46.257812 8 46.101562 7.960938 45.949219 C 7.847656 45.1875 7.730469 44.421875 7.65625 43.65625 C 7.617188 43.46875 7.808594 43.277344 8 43.238281 C 8.226562 43.199219 8.378906 43.390625 8.417969 43.582031 C 8.492188 44.34375 8.570312 45.109375 8.683594 45.835938 C 8.722656 46.027344 8.570312 46.257812 8.378906 46.257812 C 8.417969 46.257812 8.378906 46.257812 8.339844 46.257812 Z M 89.355469 45.875 C 89.277344 45.875 89.238281 45.875 89.164062 45.835938 C 88.972656 45.722656 88.933594 45.492188 89.011719 45.300781 C 89.390625 44.652344 89.734375 44 90.078125 43.3125 C 90.152344 43.121094 90.382812 43.046875 90.574219 43.121094 C 90.765625 43.199219 90.839844 43.429688 90.765625 43.621094 C 90.421875 44.308594 90.039062 44.996094 89.660156 45.644531 C 89.582031 45.796875 89.46875 45.875 89.355469 45.875 Z M 91.640625 41.058594 C 91.601562 41.058594 91.5625 41.058594 91.488281 41.023438 C 91.296875 40.945312 91.183594 40.714844 91.257812 40.523438 C 91.527344 39.835938 91.753906 39.109375 91.984375 38.386719 C 92.058594 38.195312 92.25 38.078125 92.476562 38.117188 C 92.667969 38.195312 92.785156 38.386719 92.746094 38.613281 C 92.515625 39.378906 92.25 40.105469 91.984375 40.792969 C 91.90625 40.984375 91.792969 41.058594 91.640625 41.058594 Z M 7.882812 40.945312 C 7.695312 40.945312 7.503906 40.792969 7.503906 40.5625 C 7.464844 39.914062 7.464844 39.226562 7.464844 38.539062 L 7.464844 38.269531 C 7.464844 38.042969 7.617188 37.886719 7.847656 37.886719 C 8.074219 37.886719 8.226562 38.078125 8.226562 38.269531 L 8.226562 38.539062 C 8.226562 39.1875 8.226562 39.875 8.265625 40.523438 C 8.304688 40.753906 8.113281 40.945312 7.882812 40.945312 C 7.921875 40.945312 7.921875 40.945312 7.882812 40.945312 Z M 93.164062 35.941406 C 93.125 35.941406 93.089844 35.941406 93.089844 35.941406 C 92.898438 35.902344 92.746094 35.671875 92.820312 35.480469 C 92.972656 34.753906 93.125 34.03125 93.277344 33.265625 C 93.316406 33.074219 93.507812 32.921875 93.734375 32.960938 C 93.925781 32.996094 94.078125 33.1875 94.039062 33.417969 C 93.886719 34.183594 93.734375 34.945312 93.582031 35.671875 C 93.46875 35.824219 93.316406 35.941406 93.164062 35.941406 Z M 7.960938 35.597656 C 7.960938 35.597656 7.921875 35.597656 7.960938 35.597656 C 7.730469 35.597656 7.578125 35.40625 7.578125 35.214844 C 7.617188 34.449219 7.65625 33.6875 7.730469 32.921875 C 7.730469 32.730469 7.921875 32.539062 8.152344 32.578125 C 8.378906 32.578125 8.53125 32.769531 8.492188 32.996094 C 8.417969 33.761719 8.378906 34.527344 8.339844 35.289062 C 8.304688 35.441406 8.152344 35.597656 7.960938 35.597656 Z M 94.078125 30.667969 C 94.078125 30.667969 94.039062 30.667969 94.039062 30.667969 C 93.851562 30.628906 93.699219 30.4375 93.699219 30.246094 C 93.773438 29.519531 93.851562 28.757812 93.925781 27.992188 C 93.925781 27.800781 94.117188 27.609375 94.34375 27.648438 C 94.574219 27.648438 94.726562 27.839844 94.6875 28.070312 C 94.613281 28.832031 94.535156 29.597656 94.460938 30.363281 C 94.421875 30.550781 94.269531 30.667969 94.078125 30.667969 Z M 8.417969 30.246094 C 8.417969 30.246094 8.378906 30.246094 8.378906 30.246094 C 8.1875 30.207031 8.035156 30.019531 8.035156 29.828125 C 8.113281 29.0625 8.226562 28.296875 8.339844 27.535156 C 8.378906 27.34375 8.570312 27.191406 8.761719 27.230469 C 8.949219 27.265625 9.105469 27.457031 9.066406 27.648438 C 8.949219 28.414062 8.835938 29.140625 8.761719 29.902344 C 8.761719 30.132812 8.609375 30.246094 8.417969 30.246094 Z M 94.460938 25.355469 C 94.230469 25.355469 94.078125 25.164062 94.078125 24.972656 C 94.078125 24.554688 94.078125 24.132812 94.078125 23.714844 C 94.078125 23.371094 94.078125 23.027344 94.078125 22.71875 C 94.078125 22.492188 94.230469 22.339844 94.460938 22.339844 C 94.652344 22.339844 94.839844 22.492188 94.839844 22.71875 C 94.839844 23.0625 94.839844 23.40625 94.839844 23.75 C 94.839844 24.171875 94.839844 24.59375 94.839844 25.050781 C 94.839844 25.203125 94.652344 25.355469 94.460938 25.355469 Z M 9.257812 24.972656 C 9.21875 24.972656 9.21875 24.972656 9.179688 24.972656 C 8.988281 24.9375 8.835938 24.746094 8.875 24.515625 C 9.027344 23.75 9.179688 23.027344 9.371094 22.261719 C 9.410156 22.070312 9.636719 21.917969 9.828125 21.996094 C 10.019531 22.03125 10.171875 22.261719 10.09375 22.453125 C 9.902344 23.179688 9.75 23.941406 9.597656 24.667969 C 9.597656 24.859375 9.445312 24.972656 9.257812 24.972656 Z M 94.269531 20.007812 C 94.078125 20.007812 93.925781 19.855469 93.886719 19.664062 C 93.8125 18.898438 93.734375 18.136719 93.621094 17.410156 C 93.582031 17.21875 93.734375 16.988281 93.925781 16.988281 C 94.117188 16.949219 94.34375 17.105469 94.34375 17.292969 C 94.460938 18.019531 94.574219 18.824219 94.613281 19.585938 C 94.6875 19.816406 94.535156 20.007812 94.269531 20.007812 C 94.308594 20.007812 94.308594 20.007812 94.269531 20.007812 Z M 10.511719 19.777344 C 10.476562 19.777344 10.4375 19.777344 10.398438 19.777344 C 10.207031 19.703125 10.09375 19.511719 10.132812 19.320312 C 10.324219 18.59375 10.550781 17.828125 10.816406 17.105469 C 10.894531 16.914062 11.085938 16.796875 11.3125 16.875 C 11.503906 16.949219 11.617188 17.140625 11.542969 17.371094 C 11.3125 18.097656 11.085938 18.824219 10.894531 19.550781 C 10.816406 19.664062 10.664062 19.777344 10.511719 19.777344 Z M 93.394531 14.773438 C 93.242188 14.773438 93.050781 14.660156 93.011719 14.46875 C 92.820312 13.742188 92.59375 13.015625 92.363281 12.289062 C 92.289062 12.097656 92.402344 11.871094 92.59375 11.792969 C 92.785156 11.714844 93.011719 11.832031 93.089844 12.023438 C 93.316406 12.746094 93.546875 13.472656 93.734375 14.238281 C 93.773438 14.429688 93.660156 14.660156 93.46875 14.695312 C 93.46875 14.734375 93.429688 14.773438 93.394531 14.773438 Z M 12.191406 14.695312 C 12.152344 14.695312 12.113281 14.695312 12.039062 14.660156 C 11.847656 14.582031 11.734375 14.351562 11.808594 14.160156 C 12.074219 13.4375 12.378906 12.710938 12.648438 12.023438 C 12.722656 11.832031 12.953125 11.753906 13.144531 11.832031 C 13.332031 11.90625 13.410156 12.136719 13.332031 12.328125 C 13.027344 13.015625 12.761719 13.742188 12.496094 14.429688 C 12.496094 14.621094 12.34375 14.695312 12.191406 14.695312 Z M 14.285156 9.804688 C 14.246094 9.804688 14.171875 9.804688 14.132812 9.769531 C 13.941406 9.691406 13.867188 9.460938 13.941406 9.269531 C 14.285156 8.582031 14.628906 7.894531 15.011719 7.207031 C 15.125 7.015625 15.351562 6.941406 15.542969 7.054688 C 15.734375 7.167969 15.808594 7.398438 15.695312 7.589844 C 15.351562 8.238281 14.972656 8.925781 14.628906 9.613281 C 14.589844 9.730469 14.4375 9.804688 14.285156 9.804688 Z M 91.601562 9.730469 C 91.449219 9.730469 91.335938 9.652344 91.257812 9.5 C 90.917969 8.8125 90.574219 8.164062 90.191406 7.511719 C 90.078125 7.324219 90.152344 7.09375 90.304688 6.980469 C 90.496094 6.863281 90.726562 6.941406 90.839844 7.09375 C 91.222656 7.742188 91.601562 8.429688 91.945312 9.117188 C 92.019531 9.308594 91.945312 9.539062 91.753906 9.613281 C 91.714844 9.730469 91.640625 9.730469 91.601562 9.730469 Z M 88.742188 5.222656 C 88.628906 5.222656 88.515625 5.183594 88.4375 5.066406 C 87.980469 4.496094 87.449219 3.921875 86.914062 3.425781 C 86.761719 3.273438 86.761719 3.042969 86.914062 2.890625 C 87.066406 2.738281 87.296875 2.738281 87.449219 2.890625 C 87.980469 3.425781 88.515625 4 89.011719 4.609375 C 89.125 4.761719 89.125 5.03125 88.972656 5.144531 C 88.933594 5.222656 88.859375 5.222656 88.742188 5.222656 Z M 16.914062 5.144531 C 16.839844 5.144531 16.761719 5.105469 16.726562 5.066406 C 16.535156 4.953125 16.496094 4.722656 16.609375 4.535156 C 17.03125 3.882812 17.488281 3.234375 17.945312 2.621094 C 18.058594 2.46875 18.324219 2.433594 18.476562 2.546875 C 18.628906 2.660156 18.667969 2.929688 18.554688 3.082031 C 18.132812 3.65625 17.675781 4.304688 17.257812 4.953125 C 17.183594 5.066406 17.066406 5.144531 16.914062 5.144531 Z M 84.894531 1.554688 C 84.820312 1.554688 84.742188 1.515625 84.667969 1.476562 C 84.058594 1.019531 83.449219 0.597656 82.800781 0.214844 C 82.609375 0.101562 82.570312 -0.128906 82.683594 -0.320312 C 82.800781 -0.511719 83.027344 -0.546875 83.21875 -0.433594 C 83.90625 -0.0507812 84.550781 0.40625 85.164062 0.867188 C 85.316406 0.980469 85.351562 1.246094 85.238281 1.398438 C 85.125 1.515625 85.007812 1.554688 84.894531 1.554688 Z M 20.152344 0.902344 C 20.078125 0.902344 19.964844 0.867188 19.886719 0.789062 C 19.734375 0.636719 19.734375 0.40625 19.847656 0.253906 C 20.382812 -0.320312 20.953125 -0.890625 21.488281 -1.390625 C 21.640625 -1.542969 21.867188 -1.503906 22.019531 -1.351562 C 22.171875 -1.199219 22.136719 -0.96875 21.984375 -0.816406 C 21.449219 -0.320312 20.917969 0.214844 20.382812 0.789062 C 20.382812 0.867188 20.269531 0.902344 20.152344 0.902344 Z M 80.285156 -1.121094 C 80.246094 -1.121094 80.171875 -1.121094 80.132812 -1.160156 C 79.445312 -1.464844 78.761719 -1.734375 78.035156 -2 C 77.847656 -2.078125 77.730469 -2.269531 77.808594 -2.496094 C 77.882812 -2.6875 78.074219 -2.800781 78.304688 -2.726562 C 79.027344 -2.457031 79.75 -2.191406 80.476562 -1.886719 C 80.664062 -1.808594 80.742188 -1.578125 80.664062 -1.390625 C 80.589844 -1.199219 80.4375 -1.121094 80.285156 -1.121094 Z M 24.191406 -2.613281 C 24.078125 -2.613281 23.964844 -2.6875 23.886719 -2.800781 C 23.773438 -2.992188 23.8125 -3.222656 24.003906 -3.335938 C 24.6875 -3.796875 25.375 -4.140625 26.058594 -4.445312 C 26.519531 -4.636719 27.011719 -4.828125 27.507812 -5.019531 C 27.699219 -5.09375 27.925781 -4.980469 28.003906 -4.789062 C 28.082031 -4.597656 27.964844 -4.367188 27.773438 -4.292969 C 27.242188 -4.101562 26.785156 -3.910156 26.328125 -3.71875 C 25.679688 -3.453125 25.03125 -3.070312 24.382812 -2.648438 C 24.347656 -2.613281 24.269531 -2.613281 24.191406 -2.613281 Z M 75.214844 -2.800781 C 75.179688 -2.800781 75.140625 -2.800781 75.140625 -2.800781 C 74.417969 -2.957031 73.65625 -3.109375 72.929688 -3.261719 C 72.738281 -3.300781 72.585938 -3.492188 72.625 -3.679688 C 72.664062 -3.871094 72.855469 -4.023438 73.042969 -3.988281 C 73.808594 -3.871094 74.570312 -3.71875 75.332031 -3.527344 C 75.519531 -3.492188 75.675781 -3.261719 75.597656 -3.070312 C 75.558594 -2.917969 75.40625 -2.800781 75.214844 -2.800781 Z M 69.957031 -3.605469 C 69.957031 -3.605469 69.921875 -3.605469 69.957031 -3.605469 C 69.730469 -3.605469 69.5 -3.644531 69.308594 -3.644531 C 68.816406 -3.679688 68.242188 -3.71875 67.632812 -3.757812 C 67.441406 -3.796875 67.253906 -3.949219 67.289062 -4.179688 C 67.328125 -4.367188 67.480469 -4.558594 67.710938 -4.523438 C 68.320312 -4.445312 68.851562 -4.40625 69.347656 -4.40625 C 69.539062 -4.40625 69.765625 -4.367188 69.957031 -4.367188 C 70.1875 -4.367188 70.339844 -4.179688 70.300781 -3.949219 C 70.339844 -3.757812 70.148438 -3.605469 69.957031 -3.605469 Z M 64.660156 -4.101562 C 64.660156 -4.101562 64.625 -4.101562 64.625 -4.101562 C 63.898438 -4.179688 63.136719 -4.292969 62.335938 -4.367188 C 62.144531 -4.40625 61.992188 -4.597656 61.992188 -4.789062 C 62.03125 -4.980469 62.222656 -5.132812 62.414062 -5.132812 C 63.214844 -5.019531 63.9375 -4.941406 64.699219 -4.867188 C 64.890625 -4.828125 65.042969 -4.636719 65.042969 -4.445312 C 65.003906 -4.253906 64.851562 -4.101562 64.660156 -4.101562 Z M 59.363281 -4.789062 C 59.363281 -4.789062 59.328125 -4.789062 59.328125 -4.789062 C 58.601562 -4.867188 57.839844 -4.980469 57.039062 -5.058594 C 56.851562 -5.09375 56.699219 -5.285156 56.699219 -5.476562 C 56.734375 -5.667969 56.925781 -5.820312 57.117188 -5.820312 C 57.878906 -5.746094 58.640625 -5.628906 59.402344 -5.554688 C 59.59375 -5.515625 59.746094 -5.324219 59.746094 -5.132812 C 59.707031 -4.902344 59.554688 -4.789062 59.363281 -4.789062 Z M 30.519531 -5.132812 C 30.328125 -5.132812 30.175781 -5.246094 30.136719 -5.4375 C 30.101562 -5.628906 30.214844 -5.859375 30.40625 -5.898438 C 31.128906 -6.050781 31.890625 -6.203125 32.652344 -6.355469 C 32.84375 -6.394531 33.070312 -6.242188 33.070312 -6.050781 C 33.109375 -5.859375 32.957031 -5.628906 32.765625 -5.628906 C 32.003906 -5.515625 31.242188 -5.363281 30.558594 -5.171875 C 30.59375 -5.132812 30.558594 -5.132812 30.519531 -5.132812 Z M 54.066406 -5.402344 C 54.066406 -5.402344 54.03125 -5.402344 54.03125 -5.402344 C 53.269531 -5.476562 52.503906 -5.554688 51.742188 -5.628906 C 51.554688 -5.667969 51.363281 -5.820312 51.402344 -6.050781 C 51.4375 -6.28125 51.589844 -6.394531 51.820312 -6.394531 C 52.582031 -6.316406 53.34375 -6.242188 54.105469 -6.164062 C 54.296875 -6.125 54.449219 -5.9375 54.449219 -5.746094 C 54.410156 -5.554688 54.257812 -5.402344 54.066406 -5.402344 Z M 48.734375 -5.898438 C 47.933594 -5.972656 47.171875 -6.011719 46.445312 -6.050781 C 46.21875 -6.050781 46.066406 -6.242188 46.105469 -6.46875 C 46.105469 -6.699219 46.292969 -6.851562 46.523438 -6.8125 C 47.285156 -6.777344 48.046875 -6.738281 48.808594 -6.660156 C 49.039062 -6.660156 49.191406 -6.46875 49.152344 -6.242188 C 49.113281 -6.050781 48.921875 -5.898438 48.734375 -5.898438 Z M 35.777344 -5.9375 C 35.585938 -5.9375 35.433594 -6.089844 35.394531 -6.28125 C 35.359375 -6.46875 35.546875 -6.660156 35.738281 -6.699219 C 36.464844 -6.777344 37.261719 -6.8125 38.027344 -6.851562 C 38.253906 -6.851562 38.40625 -6.699219 38.40625 -6.507812 C 38.40625 -6.28125 38.253906 -6.125 38.0625 -6.125 C 37.300781 -6.089844 36.539062 -6.011719 35.777344 -5.9375 C 35.816406 -5.9375 35.816406 -5.9375 35.777344 -5.9375 Z M 43.398438 -6.164062 C 42.75 -6.164062 42.101562 -6.203125 41.457031 -6.203125 L 41.113281 -6.203125 C 40.921875 -6.203125 40.730469 -6.355469 40.730469 -6.585938 C 40.730469 -6.8125 40.882812 -6.96875 41.113281 -6.96875 L 41.457031 -6.96875 C 42.101562 -6.96875 42.75 -6.96875 43.398438 -6.929688 C 43.628906 -6.929688 43.78125 -6.738281 43.78125 -6.546875 C 43.78125 -6.355469 43.628906 -6.164062 43.398438 -6.164062 Z M 43.398438 -6.164062"/></g><g clip-path="url(#d)"><path fill="#915CE6" d="M 86.039062 67.730469 C 83.332031 67.730469 81.160156 65.550781 81.160156 62.839844 C 81.160156 60.125 83.332031 57.949219 86.039062 57.949219 C 88.742188 57.949219 90.917969 60.125 90.917969 62.839844 C 90.917969 65.550781 88.707031 67.730469 86.039062 67.730469 Z M 86.039062 58.710938 C 83.753906 58.710938 81.921875 60.546875 81.921875 62.839844 C 81.921875 65.128906 83.753906 66.964844 86.039062 66.964844 C 88.324219 66.964844 90.152344 65.128906 90.152344 62.839844 C 90.152344 60.546875 88.285156 58.710938 86.039062 58.710938 Z M 86.039062 58.710938"/></g><path fill="#915CE6" d="M 100.824219 37.199219 C 100.824219 37.429688 100.78125 37.648438 100.691406 37.859375 C 100.605469 38.070312 100.480469 38.253906 100.320312 38.417969 C 100.160156 38.578125 99.976562 38.703125 99.765625 38.789062 C 99.554688 38.875 99.335938 38.921875 99.109375 38.921875 C 98.882812 38.921875 98.664062 38.875 98.453125 38.789062 C 98.242188 38.703125 98.058594 38.578125 97.894531 38.417969 C 97.734375 38.253906 97.613281 38.070312 97.523438 37.859375 C 97.4375 37.648438 97.394531 37.429688 97.394531 37.199219 C 97.394531 36.972656 97.4375 36.753906 97.523438 36.542969 C 97.613281 36.332031 97.734375 36.144531 97.894531 35.984375 C 98.058594 35.824219 98.242188 35.699219 98.453125 35.613281 C 98.664062 35.523438 98.882812 35.480469 99.109375 35.480469 C 99.335938 35.480469 99.554688 35.523438 99.765625 35.613281 C 99.976562 35.699219 100.160156 35.824219 100.320312 35.984375 C 100.480469 36.144531 100.605469 36.332031 100.691406 36.542969 C 100.78125 36.753906 100.824219 36.972656 100.824219 37.199219 Z M 100.824219 37.199219"/><g clip-path="url(#e)"><path fill="#915CE6" d="M 110.351562 56.457031 L 104.328125 56.457031 L 104.328125 50.421875 C 104.328125 50 103.984375 49.65625 103.566406 49.65625 C 103.148438 49.65625 102.804688 50 102.804688 50.421875 L 102.804688 56.457031 L 96.785156 56.457031 C 96.363281 56.457031 96.023438 56.800781 96.023438 57.222656 C 96.023438 57.640625 96.363281 57.984375 96.785156 57.984375 L 102.804688 57.984375 L 102.804688 64.023438 C 102.804688 64.441406 103.148438 64.785156 103.566406 64.785156 C 103.984375 64.785156 104.328125 64.441406 104.328125 64.023438 L 104.328125 57.984375 L 110.351562 57.984375 C 110.769531 57.984375 111.113281 57.640625 111.113281 57.222656 C 111.113281 56.800781 110.769531 56.457031 110.351562 56.457031 Z M 110.351562 56.457031"/></g><g clip-path="url(#f)"><path fill="#915CE6" d="M 6.132812 18.671875 L 4.035156 18.671875 L 4.035156 16.605469 C 4.035156 16.453125 3.921875 16.339844 3.769531 16.339844 C 3.617188 16.339844 3.503906 16.453125 3.503906 16.605469 L 3.503906 18.671875 L 1.445312 18.671875 C 1.292969 18.671875 1.175781 18.785156 1.175781 18.9375 C 1.175781 19.089844 1.292969 19.203125 1.445312 19.203125 L 3.503906 19.203125 L 3.503906 21.269531 C 3.503906 21.421875 3.617188 21.535156 3.769531 21.535156 C 3.921875 21.535156 4.035156 21.421875 4.035156 21.269531 L 4.035156 19.203125 L 6.132812 19.203125 C 6.285156 19.203125 6.398438 19.089844 6.398438 18.9375 C 6.398438 18.785156 6.285156 18.671875 6.132812 18.671875 Z M 6.132812 18.671875"/></g><path fill="#915CE6" d="M 7.273438 8.355469 C 7.273438 8.585938 7.230469 8.8125 7.140625 9.027344 C 7.050781 9.242188 6.925781 9.433594 6.761719 9.597656 C 6.597656 9.761719 6.40625 9.886719 6.191406 9.976562 C 5.976562 10.066406 5.753906 10.113281 5.523438 10.113281 C 5.289062 10.113281 5.066406 10.066406 4.851562 9.976562 C 4.636719 9.886719 4.445312 9.761719 4.28125 9.597656 C 4.117188 9.433594 3.992188 9.242188 3.902344 9.027344 C 3.8125 8.8125 3.769531 8.585938 3.769531 8.355469 C 3.769531 8.121094 3.8125 7.898438 3.902344 7.679688 C 3.992188 7.464844 4.117188 7.277344 4.28125 7.109375 C 4.445312 6.945312 4.636719 6.820312 4.851562 6.730469 C 5.066406 6.640625 5.289062 6.597656 5.523438 6.597656 C 5.753906 6.597656 5.976562 6.640625 6.191406 6.730469 C 6.40625 6.820312 6.597656 6.945312 6.761719 7.109375 C 6.925781 7.277344 7.050781 7.464844 7.140625 7.679688 C 7.230469 7.898438 7.273438 8.121094 7.273438 8.355469 Z M 7.273438 8.355469"/></svg>