<svg id="Camada_1" data-name="Camada 1" xmlns="http://www.w3.org/2000/svg" xmlns:xlink="http://www.w3.org/1999/xlink" viewBox="0 0 133 32"><defs><style>.cls-1{fill:url(#Gradiente_sem_nome_156);}</style><linearGradient id="Gradiente_sem_nome_156" x1="2" y1="19" x2="135" y2="19" gradientUnits="userSpaceOnUse"><stop offset="0" stop-color="#fff"/><stop offset="0.11" stop-color="#fcfbfe" stop-opacity="0.98"/><stop offset="0.24" stop-color="#f5f0fd" stop-opacity="0.94"/><stop offset="0.39" stop-color="#e9defa" stop-opacity="0.86"/><stop offset="0.54" stop-color="#d8c5f6" stop-opacity="0.76"/><stop offset="0.71" stop-color="#c2a4f1" stop-opacity="0.63"/><stop offset="0.88" stop-color="#a77deb" stop-opacity="0.46"/><stop offset="1" stop-color="#915ce6" stop-opacity="0.33"/></linearGradient></defs><path class="cls-1" d="M119,3c-.17,0-.33,0-.5,0s-.33,0-.5,0-.33,0-.5,0-.33,0-.5,0-.33,0-.5,0-.33,0-.5,0-.33,0-.5,0-.33,0-.5,0-.33,0-.5,0-.33,0-.5,0-.33,0-.5,0-.33,0-.5,0-.33,0-.5,0-.33,0-.5,0-.33,0-.5,0-.33,0-.5,0-.33,0-.5,0-.33,0-.5,0-.33,0-.5,0-.33,0-.5,0-.33,0-.5,0-.33,0-.5,0-.33,0-.5,0-.33,0-.5,0-.33,0-.5,0-.33,0-.5,0-.33,0-.5,0-.33,0-.5,0-.33,0-.5,0-.33,0-.5,0-.33,0-.5,0-.33,0-.5,0-.33,0-.5,0-.33,0-.5,0-.33,0-.5,0-.33,0-.5,0-.33,0-.5,0-.33,0-.5,0-.33,0-.5,0-.33,0-.5,0-.33,0-.5,0-.33,0-.5,0-.33,0-.5,0-.33,0-.5,0-.33,0-.5,0-.33,0-.5,0-.33,0-.5,0-.33,0-.5,0-.33,0-.5,0-.33,0-.5,0-.33,0-.5,0-.33,0-.5,0-.33,0-.5,0-.33,0-.5,0-.33,0-.5,0-.33,0-.5,0-.33,0-.5,0-.33,0-.5,0-.33,0-.5,0-.33,0-.5,0-.33,0-.5,0-.33,0-.5,0-.33,0-.5,0-.33,0-.5,0-.33,0-.5,0-.33,0-.5,0-.33,0-.5,0-.33,0-.5,0-.33,0-.5,0-.33,0-.5,0-.33,0-.5,0-.33,0-.5,0-.33,0-.5,0-.33,0-.5,0-.33,0-.5,0-.33,0-.5,0-.33,0-.5,0-.33,0-.5,0-.33,0-.5,0-.33,0-.5,0-.33,0-.5,0-.33,0-.5,0-.33,0-.5,0-.33,0-.5,0-.33,0-.5,0-.33,0-.5,0-.33,0-.5,0-.33,0-.5,0-.33,0-.5,0-.33,0-.5,0-.33,0-.5,0-.33,0-.5,0-.33,0-.5,0-.33,0-.5,0-.33,0-.5,0-.33,0-.5,0-.33,0-.5,0-.33,0-.5,0-.33,0-.5,0-.33,0-.5,0-.33,0-.5,0-.33,0-.5,0-.33,0-.5,0-.33,0-.5,0-.33,0-.5,0-.33,0-.5,0-.33,0-.5,0-.33,0-.5,0-.33,0-.5,0-.33,0-.5,0-.33,0-.5,0-.33,0-.5,0-.33,0-.5,0-.33,0-.5,0-.33,0-.5,0-.33,0-.5,0-.33,0-.5,0-.33,0-.5,0-.33,0-.5,0-.33,0-.5,0-.33,0-.5,0-.33,0-.5,0-.33,0-.5,0-.33,0-.5,0-.33,0-.5,0-.33,0-.5,0-.33,0-.5,0-.33,0-.5,0-.33,0-.5,0-.33,0-.5,0-.33,0-.5,0-.33,0-.5,0-.33,0-.5,0-.33,0-.5,0-.33,0-.5,0-.33,0-.5,0-.33,0-.5,0-.33,0-.5,0-.33,0-.5,0-.33,0-.5,0-.33,0-.5,0-.33,0-.5,0-.33,0-.5,0-.33,0-.5,0-.33,0-.5,0-.33,0-.5,0-.33,0-.5,0-.33,0-.5,0-.33,0-.5,0-.33,0-.5,0-.33,0-.5,0-.33,0-.5,0-.33,0-.5,0-.33,0-.5,0-.33,0-.5,0-.33,0-.5,0-.33,0-.5,0-.33,0-.5,0-.33,0-.5,0-.33,0-.5,0-.33,0-.5,0-.33,0-.5,0-.33,0-.5,0-.33,0-.5,0-.33,0-.5,0-.33,0-.5,0-.33,0-.5,0-.33,0-.5,0-.33,0-.5,0-.33,0-.5,0-.33,0-.5,0-.33,0-.5,0-.33,0-.5,0-.33,0-.5,0-.33,0-.5,0-.33,0-.5,0-.33,0-.5,0-.33,0-.5,0-.33,0-.5,0-.33,0-.5,0-.33,0-.5,0-.33,0-.5,0-.33,0-.5,0-.33,0-.5,0-.33,0-.5,0-.33,0-.5,0-.33,0-.5,0-.33,0-.5,0-.33,0-.5,0-.33,0-.5,0-.33,0-.5,0-.33,0-.5,0-.33,0-.5,0-.33,0-.5,0-.33,0-.5,0-.33,0-.5,0-.33,0-.5,0-.33,0-.5,0-.33,0-.5,0-.33,0-.5,0-.33,0-.5,0-.33,0-.5,0a16,16,0,0,0,0,32c.17,0,.33,0,.5,0s.33,0,.5,0,.33,0,.5,0,.33,0,.5,0,.33,0,.5,0,.33,0,.5,0,.33,0,.5,0,.33,0,.5,0,.33,0,.5,0,.33,0,.5,0,.33,0,.5,0,.33,0,.5,0,.33,0,.5,0,.33,0,.5,0,.33,0,.5,0,.33,0,.5,0,.33,0,.5,0,.33,0,.5,0,.33,0,.5,0,.33,0,.5,0,.33,0,.5,0,.33,0,.5,0,.33,0,.5,0,.33,0,.5,0,.33,0,.5,0,.33,0,.5,0,.33,0,.5,0,.33,0,.5,0,.33,0,.5,0,.33,0,.5,0,.33,0,.5,0,.33,0,.5,0,.33,0,.5,0,.33,0,.5,0,.33,0,.5,0,.33,0,.5,0,.33,0,.5,0,.33,0,.5,0,.33,0,.5,0,.33,0,.5,0,.33,0,.5,0,.33,0,.5,0,.33,0,.5,0,.33,0,.5,0,.33,0,.5,0,.33,0,.5,0,.33,0,.5,0,.33,0,.5,0,.33,0,.5,0,.33,0,.5,0,.33,0,.5,0,.33,0,.5,0,.33,0,.5,0,.33,0,.5,0,.33,0,.5,0,.33,0,.5,0,.33,0,.5,0,.33,0,.5,0,.33,0,.5,0,.33,0,.5,0,.33,0,.5,0,.33,0,.5,0,.33,0,.5,0,.33,0,.5,0,.33,0,.5,0,.33,0,.5,0,.33,0,.5,0,.33,0,.5,0,.33,0,.5,0,.33,0,.5,0,.33,0,.5,0,.33,0,.5,0,.33,0,.5,0,.33,0,.5,0,.33,0,.5,0,.33,0,.5,0,.33,0,.5,0,.33,0,.5,0,.33,0,.5,0,.33,0,.5,0,.33,0,.5,0,.33,0,.5,0,.33,0,.5,0,.33,0,.5,0,.33,0,.5,0,.33,0,.5,0,.33,0,.5,0,.33,0,.5,0,.33,0,.5,0,.33,0,.5,0,.33,0,.5,0,.33,0,.5,0,.33,0,.5,0,.33,0,.5,0,.33,0,.5,0,.33,0,.5,0,.33,0,.5,0,.33,0,.5,0,.33,0,.5,0,.33,0,.5,0,.33,0,.5,0,.33,0,.5,0,.33,0,.5,0,.33,0,.5,0,.33,0,.5,0,.33,0,.5,0,.33,0,.5,0,.33,0,.5,0,.33,0,.5,0,.33,0,.5,0,.33,0,.5,0,.33,0,.5,0,.33,0,.5,0,.33,0,.5,0,.33,0,.5,0,.33,0,.5,0,.33,0,.5,0,.33,0,.5,0,.33,0,.5,0,.33,0,.5,0,.33,0,.5,0,.33,0,.5,0,.33,0,.5,0,.33,0,.5,0,.33,0,.5,0,.33,0,.5,0,.33,0,.5,0,.33,0,.5,0,.33,0,.5,0,.33,0,.5,0,.33,0,.5,0,.33,0,.5,0,.33,0,.5,0,.33,0,.5,0,.33,0,.5,0,.33,0,.5,0,.33,0,.5,0,.33,0,.5,0,.33,0,.5,0,.33,0,.5,0,.33,0,.5,0,.33,0,.5,0,.33,0,.5,0,.33,0,.5,0,.33,0,.5,0,.33,0,.5,0,.33,0,.5,0,.33,0,.5,0,.33,0,.5,0,.33,0,.5,0,.33,0,.5,0,.33,0,.5,0,.33,0,.5,0,.33,0,.5,0,.33,0,.5,0,.33,0,.5,0,.33,0,.5,0,.33,0,.5,0,.33,0,.5,0,.33,0,.5,0,.33,0,.5,0,.33,0,.5,0,.33,0,.5,0,.33,0,.5,0,.33,0,.5,0,.33,0,.5,0,.33,0,.5,0,.33,0,.5,0,.33,0,.5,0,.33,0,.5,0,.33,0,.5,0,.33,0,.5,0,.33,0,.5,0,.33,0,.5,0,.33,0,.5,0,.33,0,.5,0,.33,0,.5,0,.33,0,.5,0,.33,0,.5,0,.33,0,.5,0,.33,0,.5,0,.33,0,.5,0,.33,0,.5,0,.33,0,.5,0,.33,0,.5,0,.33,0,.5,0,.33,0,.5,0,.33,0,.5,0,.33,0,.5,0,.33,0,.5,0,.33,0,.5,0,.33,0,.5,0,.33,0,.5,0,.33,0,.5,0,.33,0,.5,0,.33,0,.5,0,.33,0,.5,0,.33,0,.5,0,.33,0,.5,0,.33,0,.5,0,.33,0,.5,0,.33,0,.5,0a16,16,0,0,0,0-32Z" transform="translate(-2 -3)"/></svg>