<svg xmlns="http://www.w3.org/2000/svg" viewBox="0 0 3844 1874.81"><defs><style>.cls-1,.cls-11,.cls-12,.cls-7{opacity:0.22;}.cls-2{fill:#d3455b;}.cls-3{fill:#0075ff;}.cls-4{fill:#1aae9f;}.cls-10,.cls-11,.cls-13,.cls-14,.cls-15,.cls-16,.cls-17,.cls-18,.cls-5,.cls-6,.cls-7,.cls-8,.cls-9{fill:none;stroke-miterlimit:10;}.cls-5,.cls-6{stroke:#915ce6;stroke-width:4px;}.cls-10,.cls-5,.cls-6,.cls-7,.cls-8,.cls-9{stroke-linecap:round;}.cls-6{stroke-dasharray:11.99 11.99;}.cls-10,.cls-11,.cls-7,.cls-8,.cls-9{stroke:#3a3a49;}.cls-10,.cls-7,.cls-8,.cls-9{stroke-width:2px;}.cls-9{stroke-dasharray:11.76 11.76;}.cls-10{stroke-dasharray:11.87 11.87;}.cls-11{stroke-width:7px;}.cls-12{font-size:33.68px;font-family:MyriadPro-Regular, Myriad Pro;}.cls-13,.cls-14{stroke:#0075ff;}.cls-13,.cls-14,.cls-15,.cls-16,.cls-17,.cls-18{stroke-linecap:square;}.cls-14,.cls-16{stroke-dasharray:5.99 5.99;}.cls-15,.cls-16{stroke:#1aae9f;}.cls-17,.cls-18{stroke:#d3455b;}.cls-18{stroke-dasharray:6 6;}</style></defs><g id="Camada_4" data-name="Camada 4"><g class="cls-1"><circle class="cls-2" cx="806.69" cy="758.83" r="203.83"/></g><g class="cls-1"><path class="cls-3" d="M1326.78,866.91h-.16q-6,.47-11.85,1.16h-.09a2,2,0,0,0,.23,4h.24c3.9-.46,7.86-.85,11.79-1.16a2,2,0,0,0-.16-4Zm-23.67,2.79-.32,0-1.11.17h-.1l-.24,0H1301l-.1,0h0l-.08,0h-.14l-.22,0h0l-.11,0h0c-2.07.34-4.13.71-6.18,1.09h0l-.11,0h0l-.23,0h0l-.09,0h-.28l-.07,0h-.1l-.06,0h0l-.25.05h0l-.08,0h0l-1.83.36a2,2,0,0,0,.39,4,1.81,1.81,0,0,0,.4,0c3.85-.77,7.77-1.47,11.65-2.08a2,2,0,0,0-.31-4Zm-23.38,4.66a2,2,0,0,0-.47.06q-4.52,1.1-9,2.32h0l-.09,0h0l-.25.07h0l-.07,0h-.13l-.24.07h0l-.08,0h0l-.07,0h0l-.06,0h0l-.09,0h0l-.06,0h-.1l0,0h0l-.06,0-.09,0,0,0h-.11l0,0h-.06l0,0-.09,0,0,0h-.05l0,0H1268l0,0h-.11l-.09,0h0l0,0a2,2,0,0,0,.54,3.92,1.75,1.75,0,0,0,.55-.08c3.78-1.07,7.63-2.08,11.45-3a2,2,0,0,0-.47-3.95Zm-22.92,6.51a1.81,1.81,0,0,0-.61.1c-3.83,1.25-7.6,2.57-11.35,4a2,2,0,0,0,.7,3.87,1.89,1.89,0,0,0,.7-.13c3.68-1.37,7.45-2.68,11.18-3.91a2,2,0,0,0-.62-3.9Zm-22.34,8.32a2.07,2.07,0,0,0-.77.15l-.64.27h0l-.1,0h0l-.1,0h0l-.1,0h0l-.07,0,0,0,0,0,0,0,0,0-.06,0h0l-.13.06h0l-.07,0h0l-.07,0h0l-.42.18h0l-3.18,1.38h0l-.08,0h0l-.32.14h0l-.06,0h0l-.06,0h0l-.2.09,0,0,0,0,0,0,0,0-.06,0,0,0-.08,0,0,0-.07,0,0,0-.07,0,0,0-.07,0h0l-.2.09h0l-.09,0h0l-.09,0h0c-1.27.57-2.52,1.14-3.78,1.73a2,2,0,0,0,.85,3.81,1.94,1.94,0,0,0,.84-.19c3.56-1.66,7.21-3.27,10.83-4.78a2,2,0,0,0-.77-3.85Zm-21.61,10.07a2,2,0,0,0-.9.22c-2.16,1.11-4.3,2.24-6.43,3.41h0l-.1.05h0l-.3.16h0l-.08,0h0l-.08,0h0l-.19.1,0,0-.07,0,0,0-.06,0,0,0-.06,0,0,0-.09,0,0,0-.06,0,0,0,0,0-.05,0,0,0,0,0,0,0-.08,0,0,0-.06,0h0l-.06,0h0l-.07,0h0l-.23.12h0l-.07,0h0l-.08,0h0l-1.8,1a2,2,0,0,0,1,3.74,2.09,2.09,0,0,0,1-.26c3.42-1.94,6.92-3.83,10.41-5.63a2,2,0,0,0,.86-2.7,2,2,0,0,0-1.78-1.08ZM1192.13,911a1.93,1.93,0,0,0-1.05.3l-1.23.76h0l-.09,0h0l-.18.12h0l-.07,0,0,0-.06,0,0,0,0,0,0,0-.06,0,0,0-.08,0,0,0,0,0,0,0,0,0-.05,0,0,0-.18.12,0,0-.06,0,0,0-.06,0h0l-.07,0h0l-.22.14h0l-.07,0h0q-3.55,2.26-7,4.62a2,2,0,0,0-.53,2.78,2,2,0,0,0,2.77.54c3.26-2.2,6.6-4.37,9.94-6.44a2,2,0,0,0-1-3.7Zm-19.75,13.35a2,2,0,0,0-1.18.39l-1.76,1.3h0l-.09.06h0l-.08.07h0l-.27.2h0l-.08.06h0l-.35.26h0l-.08.06h0l-.27.2h0l-.08.06h0l-.08.06h0l-.17.13h0l-.08.06h0l-.08.06h0l-.27.2h0l-.08.06,0,0-.07,0h0l-.09.06h0l-.18.13h0l-.07,0,0,0-.07.05,0,0-.17.13h0l-.06,0,0,0-.06,0,0,0-.06.05h0l-.08.07h0l-.08.06,0,0-.06,0,0,0-.06,0,0,0-.05,0,0,0-.08.06,0,0,0,0,0,0,0,0,0,0,0,0,0,0,0,0-.17.13,0,0,0,0,0,0-.06,0,0,0c-1.13.87-2.26,1.76-3.38,2.65a2,2,0,0,0-.31,2.81,2,2,0,0,0,1.56.75,2,2,0,0,0,1.25-.43c3.07-2.45,6.23-4.88,9.4-7.21a2,2,0,0,0-1.19-3.61Zm-18.63,14.87a2,2,0,0,0-1.3.49h0l0,0-.06,0,0,0,0,0,0,0-.06.05h0l-.08.07,0,0-.07.05v0l-.07.06h0l-.07.07h0l-.25.22h0l-.08.07h0q-3.37,2.94-6.68,6h0l-.08.07h0l-.25.23h0l-.08.07h0l-.07.07h0l-.08.08h0l-.08.08h0l-.07.07h0l-.06.06,0,0-.06.06h0l-.07.07h0l-.07.07,0,0,0,0,0,0,0,0,0,0,0,0a2,2,0,0,0,2.74,2.92c2.87-2.69,5.83-5.35,8.8-7.92a2,2,0,0,0,.21-2.83,2,2,0,0,0-1.52-.69Zm-17.4,16.29a2,2,0,0,0-1.42.6l-.13.13h0l0,.06,0,0,0,0,0,0,0,0-.07.07h0l-.07.07h0l-.07.07h0q-3.93,4-7.7,8.14a2,2,0,0,0,.14,2.82,2,2,0,0,0,2.82-.13c2.65-2.91,5.39-5.8,8.15-8.59a2,2,0,0,0,0-2.83,2,2,0,0,0-1.41-.58Zm-16.07,17.61a2,2,0,0,0-1.52.71c-1.66,2-3.29,3.95-4.9,6h0l-.06.08h0l-.06.07h0l-.13.17,0,0,0,.07,0,0,0,.06,0,0,0,0,0,0,0,0-.07.1,0,0,0,0,0,0,0,.05,0,0,0,0,0,0c-.07.09-.14.19-.22.28h0l-1.62,2.07a2,2,0,0,0,.35,2.8,2,2,0,0,0,2.81-.35c2.41-3.1,4.92-6.2,7.45-9.2a2,2,0,0,0-.24-2.82,2,2,0,0,0-1.29-.47ZM1105.65,992a2,2,0,0,0-1.63.83c-.14.2-.28.41-.43.61h0l0,.07v0l0,.06h0l-.15.21,0,0,0,.05,0,0,0,0,0,.05,0,0-.05.08h0l-.06.08,0,0,0,.06,0,0,0,.06,0,0-.06.08h0l-.19.27h0l-.26.37h0c-.41.59-.83,1.18-1.24,1.78h0l-.06.09h0l-.19.28h0l-.05.08h0l0,.09h0l-.12.19h0l0,.08,0,0,0,.07v0l0,.08h0l-.12.18,0,0,0,.06,0,0,0,0,0,0,0,.06,0,0-.06.08,0,0,0,0,0,.05,0,0,0,.05,0,0,0,0v0l-.09.14h0l0,.07h0l0,.07,0,0,0,.06h0c-.09.13-.17.26-.26.38h0l-1.72,2.57h0l0,.07h0l-.2.3h0l0,.06v0l0,.07h0a2,2,0,0,0,.57,2.77,1.94,1.94,0,0,0,1.1.33,2,2,0,0,0,1.67-.9c2.16-3.28,4.42-6.56,6.71-9.76a2,2,0,0,0-1.63-3.16Zm-13.1,19.91a2,2,0,0,0-1.71,1v0l0,.06h0l-.19.32h0c-.53.88-1,1.76-1.57,2.65h0l0,.07h0l-.19.31h0l0,.07,0,0,0,.07v0l0,.06h0l-.08.13,0,0,0,0,0,0,0,.05,0,0,0,0,0,.05,0,0,0,.08v0l0,.06,0,0,0,.06v0l0,.07,0,0-.11.19h0l0,.09h0q-1.58,2.74-3.11,5.52a2,2,0,0,0,3.51,1.92c1.89-3.44,3.88-6.89,5.91-10.26a2,2,0,0,0-.68-2.75,2,2,0,0,0-1-.28Zm-11.49,20.88a2,2,0,0,0-1.78,1.1q-2,4-3.84,8v0l0,.09h0l-.05.09h0l0,.1v0l0,.08,0,0,0,0,0,0,0,0,0,0v0l-.07.14h0l0,.07v0l0,.07v0c-.29.62-.57,1.24-.85,1.87a2,2,0,0,0,1,2.64,2,2,0,0,0,.82.18,2,2,0,0,0,1.82-1.18c1.62-3.58,3.33-7.18,5.08-10.69a2,2,0,0,0-.89-2.69,2.08,2.08,0,0,0-.9-.21Zm-9.79,21.73a2,2,0,0,0-1.85,1.25v0l0,0,0,0,0,.13h0l0,0,0,0,0,.06v0l0,.06v0l0,.06v0l-.05.13v0l0,.06,0,0,0,.06v0l0,.07v0l-.06.14h0l0,.07v0l0,.06,0,0,0,.06v0l-.09.23v0l0,.07v0l0,.07v0c-.05.11-.09.22-.13.33h0l0,.08h0c0,.11-.09.22-.13.34h0l0,.07v0c-1.1,2.79-2.15,5.59-3.16,8.42a2,2,0,0,0,1.21,2.56,2,2,0,0,0,.67.12,2,2,0,0,0,1.89-1.33c1.32-3.7,2.74-7.42,4.21-11.07a2,2,0,0,0-1.86-2.75Zm-8,22.44a2,2,0,0,0-1.91,1.41l-.27.88v0l0,.07v0l0,.09,0,.07v0l0,.07v0l0,.09h0q-1,3.16-1.89,6.37h0l-.09.33h0l0,.1v0l0,.1h0l-.06.22v0l0,.09v0l0,.09v0l0,.11h0l0,.1v0l0,.07v0l0,.08v0l-.06.21v0l0,.07v0l0,.07v0l0,.11h0l0,.1v0l0,.08v0l0,.08v0l-.06.22h0l0,.09v0l0,.1h0l-.09.33h0c-.05.19-.1.4-.16.59a2,2,0,0,0,1.41,2.45,1.93,1.93,0,0,0,.53.07,2,2,0,0,0,1.93-1.48c1-3.79,2.14-7.62,3.31-11.37a2,2,0,0,0-1.31-2.5,1.8,1.8,0,0,0-.6-.1Zm-6.21,23a2,2,0,0,0-2,1.55l-.09.4h0l0,.1v0l0,.11h0l0,.11h0l0,.09v0l0,.07v.14l0,.1v.15l0,.06v.15l0,.1v0l0,0v.2l0,.1v0l0,.06v.25l0,.11v0l0,.06v.25l0,.1v0l0,.06v.2l0,.1v.15l0,.06v.15l0,.1v.14l0,.08v0l0,.08v0l0,.11h0l0,.09v0l0,.08v0l0,.1h0l0,.11h0l0,.1v0l0,.09v0c0,.11,0,.22-.07.33h0c-.25,1.19-.49,2.38-.72,3.58h0l0,.1h0l0,.22v.32l0,.1v.23c-.11.61-.23,1.22-.34,1.83a2,2,0,0,0,1.6,2.33,1.5,1.5,0,0,0,.37,0,2,2,0,0,0,2-1.64c.72-3.86,1.53-7.76,2.4-11.59a2,2,0,0,0-1.51-2.39,1.7,1.7,0,0,0-.44,0Zm-4.37,23.43a2,2,0,0,0-2,1.7q-.87,5.93-1.5,11.93a2,2,0,0,0,1.78,2.18h.21a2,2,0,0,0,2-1.79c.41-3.91.91-7.86,1.47-11.74a2,2,0,0,0-1.69-2.27,1.42,1.42,0,0,0-.29,0Zm-2.49,23.7a2,2,0,0,0-2,1.86c-.1,1.64-.2,3.26-.28,4.91h0v.11h0v1.24h0l0,.26v.1h0v.27h0v.09h0l-.12,3.28h0v1.53h0v.16a2,2,0,0,0,2,2h0a2,2,0,0,0,2-1.94c.1-3.94.29-7.92.54-11.84a2,2,0,0,0-1.86-2.12Zm-.63,23.84h0a2,2,0,0,0-2,2v.44q.07,4.88.29,9.72v.9h0c0,.31,0,.62,0,.93a2,2,0,0,0,2,1.89h.1a2,2,0,0,0,1.9-2.1c-.21-3.92-.33-7.9-.38-11.83a2,2,0,0,0-2-2Zm1.23,23.81h-.19a2,2,0,0,0-1.81,2.17l.12,1.25v.56c0,.11,0,.23,0,.35h0q.48,4.9,1.12,9.77a2,2,0,0,0,2,1.74h.26a2,2,0,0,0,1.72-2.25c-.51-3.89-1-7.85-1.3-11.77a2,2,0,0,0-2-1.81Zm3.09,23.63-.34,0a2,2,0,0,0-1.63,2.3q.22,1.3.45,2.58v.64l0,.22h0l0,.1v0l0,.1h0c0,.12,0,.23.07.35h0c.16.89.33,1.78.51,2.66h0l0,.11h0l0,.22h0v.13l0,.08v0l0,.1h0v.38l0,.14v0l0,.07v0l0,.08h0c.24,1.22.5,2.44.75,3.66a2,2,0,0,0,3.92-.83c-.82-3.84-1.57-7.76-2.24-11.63a2,2,0,0,0-2-1.66Zm5,23.31a2.14,2.14,0,0,0-.5.06,2,2,0,0,0-1.45,2.42c.34,1.33.69,2.64,1,4h0l0,.11h0l.06.22h0l0,.1h0l0,.1h0l.06.22v0l0,.09v0l0,.09v0l.06.21v0l0,.09v0l0,.09v0l.06.22h0l0,.1v0l0,.1h0l.06.21v0l0,.09v0l0,.1h0c0,.11.06.21.09.33h0l0,.1h0l.06.22h0l0,.11h0l0,.1h0c0,.11.06.22.1.33h0c.38,1.34.76,2.68,1.16,4a2,2,0,0,0,1.92,1.43,2.24,2.24,0,0,0,.57-.08,2,2,0,0,0,1.34-2.49c-1.12-3.77-2.18-7.61-3.15-11.41a2,2,0,0,0-1.93-1.51Zm6.8,22.84a2.06,2.06,0,0,0-.65.11,2,2,0,0,0-1.25,2.54c.56,1.62,1.12,3.22,1.7,4.83h0c0,.15.1.28.16.43h0l0,.1h0l.08.21h0l0,.09v0l0,.07v0l0,.08v0l0,.1,0,0,0,.06,0,0,0,0v.05l0,0,0,0,0,.06,0,.1v0l0,.07v0l0,.06v0c0,.11.08.21.11.32v0l0,.07v0c.5,1.37,1,2.74,1.55,4.11a2,2,0,0,0,1.87,1.27,2,2,0,0,0,.72-.13,2,2,0,0,0,1.14-2.59c-1.42-3.66-2.78-7.41-4-11.12a2,2,0,0,0-1.89-1.36Zm8.6,22.23a1.89,1.89,0,0,0-.8.17,2,2,0,0,0-1,2.63l.34.76h0l0,.07v0l0,.06,0,0,0,.06,0,.09v0l0,.08v0l0,.08v0l0,.1h0q2.12,4.79,4.37,9.48a2,2,0,0,0,1.8,1.12,1.9,1.9,0,0,0,.86-.2,2,2,0,0,0,.94-2.67c-1.71-3.54-3.36-7.16-4.93-10.76a2,2,0,0,0-1.83-1.21Zm10.34,21.48a2,2,0,0,0-1.76,2.93c.46.89.94,1.77,1.41,2.64v0a2.69,2.69,0,0,1,.16.29l0,0,0,.05,0,0,0,0,0,0,0,0,.1.18v0l0,.07,0,0,0,.08v0l.16.29h0l0,.1h0c1.19,2.18,2.42,4.34,3.67,6.48a2,2,0,0,0,1.73,1,1.92,1.92,0,0,0,1-.28,2,2,0,0,0,.72-2.73c-2-3.4-3.92-6.88-5.76-10.34a2,2,0,0,0-1.77-1.06Zm12,20.58a1.94,1.94,0,0,0-1.07.32,2,2,0,0,0-.61,2.76c1.07,1.68,2.17,3.36,3.27,5h0l0,.07h0l0,.07h0l.14.22h0l0,.06,0,0,0,.06,0,0,0,0,0,0,0,.07,0,.06,0,0,0,0,0,0,0,0,0,0,0,0,0,0,0,.06v0l.06.08,0,0,0,.06,0,0,0,.06,0,0,0,.06,0,0,0,.08,0,0,0,.07v0l.05.07v0l0,.08h0l.19.28h0l0,.08h0l0,.08h0l.13.19h0l.06.09h0l0,.08h0l.18.27,0,0,0,.07,0,0,0,.06v0l.06.09h0l.06.09,0,0,0,.07,0,0,0,0,0,0,0,0,0,0,.06.08,0,0,0,0,0,0,0,0,0,.06,0,0,0,.06h0l.58.84a2,2,0,0,0,1.65.86,2,2,0,0,0,1.14-.36,2,2,0,0,0,.5-2.78c-2.25-3.23-4.46-6.54-6.57-9.85a2,2,0,0,0-1.69-.93Zm13.61,19.57a2,2,0,0,0-1.21.41,2,2,0,0,0-.39,2.79c.85,1.14,1.71,2.26,2.59,3.38h0l.06.09h0l.07.08h0l.14.18h0l.06.07,0,0,0,0,0,0,0,.06,0,0,.06.08,0,0,0,.06,0,0,0,0,0,0,0,.05,0,0,0,0,0,0,0,0,.06.08,0,0,0,0,0,0,0,0,0,0,0,0,0,0,.13.17,0,0,0,0,0,0,0,0,0,0,0,.06h0l.1.12v0l0,0,0,0,.05,0,0,0,0,0,0,0,.14.17,0,0,0,0,0,0,0,0,0,0,0,.05v0l.11.13h0l0,.06,0,0,0,.05,0,0,0,0,0,0,0,0,0,0,.07.1,0,0,0,0,0,0,0,0,0,0,0,0,0,0,0,0,.06.08,0,0,0,.05,0,0,0,0,0,0,0,0,0,0,0,.05,0,0,.06.08,0,0,0,0,0,0,0,0,0,0,.05.06v0l.14.17h0l.06.07v0l.06.07h0l.06.08h0l.14.17h0l.07.09h0l.07.09h0l.74.89a2,2,0,0,0,2.81.28,2,2,0,0,0,.28-2.81c-2.49-3-5-6.18-7.33-9.31a2,2,0,0,0-1.59-.8Zm15.1,18.44a2,2,0,0,0-1.49,3.33l.74.84h0l.06.07h0l.25.27h0l.06.07h0l0,.06h0l.25.27h0l0,.06,0,0,0,.06h0l.17.19h0l0,.06h0l.06.06v0l.06.06h0l.18.2h0l0,.06h0l.06.06h0l.24.27h0l.06.07h0l.06.07h0c.08.09.17.18.25.28s0,0,0,0l.06.06h0l.06.07h0l.25.27h0c1.46,1.59,2.93,3.17,4.42,4.72h0l.07.06s0,0,0,0l.18.19h0l0,0,0,0,0,0,0,0,0,0h0a2,2,0,0,0,2.82.06,2,2,0,0,0,.06-2.83c-2.72-2.84-5.42-5.76-8-8.7a2,2,0,0,0-1.5-.68Zm16.51,17.2a2,2,0,0,0-1.39,3.44l2.45,2.33h0l.06.06h0l.25.23,0,0,0,.05,0,0,0,0,0,0,0,0,0,0,0,0,.06.06,0,0,.06,0,0,0,.06.06h0l.07.07h0a2.73,2.73,0,0,1,.25.23h0q2.57,2.38,5.18,4.71a2,2,0,0,0,1.32.5,2,2,0,0,0,1.33-3.5c-2.94-2.61-5.86-5.32-8.69-8a2,2,0,0,0-1.39-.56Zm17.81,15.84a2,2,0,0,0-1.27,3.55l1,.79h0l.08.07h0l.08.06h0l.18.14h0l.07.06,0,0,.06,0,0,0,.05,0,0,0,0,0,.06,0,0,0,0,0,0,0,0,0,0,0,0,0,0,0,0,0,0,0,.09.06,0,0,0,0,0,0,.05,0,0,0,0,0h0l.18.15,0,0,0,0,0,0,0,0,0,0,0,0,0,0,.11.09h0l.05,0,0,0,0,0,0,0,0,0,0,0,0,0,0,0,.08.06,0,0,0,0,0,0,0,0,0,0,0,0,0,0,0,0,.06.06,0,0,0,0,0,0,0,0,0,0,.06.05,0,0,.17.13h0l.08.06h0l.08.06h0c1.66,1.31,3.32,2.59,5,3.87a2,2,0,0,0,1.2.4,2,2,0,0,0,1.21-3.6c-3.14-2.37-6.26-4.84-9.3-7.33a2,2,0,0,0-1.27-.46Zm19,14.4a2,2,0,0,0-1.14,3.64c3.28,2.28,6.6,4.51,10,6.66a2,2,0,0,0,1.08.32,2,2,0,0,0,1.69-.92,2,2,0,0,0-.61-2.76c-3.31-2.12-6.62-4.34-9.85-6.58a1.91,1.91,0,0,0-1.14-.36Zm20.08,12.85a2,2,0,0,0-1,3.72q5.17,3,10.47,5.86a2,2,0,0,0,.94.23,2,2,0,0,0,.94-3.76c-3.46-1.85-6.94-3.79-10.33-5.78a2,2,0,0,0-1-.27Zm21,11.21a2,2,0,0,0-.87,3.8q2.94,1.42,5.93,2.79h0l.09,0h0l.08,0h0l.25.11h0l.07,0,0,0,.06,0,0,0,0,0,.07,0,.06,0,.06,0,0,0,.06,0,0,0,.07,0h0l.2.09h0l.09,0h0l.09,0h0c1.16.52,2.31,1,3.47,1.53a1.88,1.88,0,0,0,.79.17,2,2,0,0,0,.8-3.84c-3.6-1.56-7.22-3.23-10.76-4.94a2.08,2.08,0,0,0-.87-.2Zm21.85,9.52a2,2,0,0,0-.73,3.86q3.47,1.33,7,2.61h0l.1,0h0l.09,0h0l.1,0h0l.08,0h0l.06,0,0,0,.06,0,0,0,0,0,.09,0h0l.06,0,0,0,.06,0h0l.06,0h0l.25.09h0l.08,0h0l2.83,1a1.81,1.81,0,0,0,.65.11,2,2,0,0,0,.64-3.89c-3.71-1.28-7.45-2.64-11.11-4.07a2.08,2.08,0,0,0-.73-.13Zm22.54,7.74a2,2,0,0,0-.57,3.91l1.35.4h0l.08,0h0l.26.08h0l.07,0h0l.07,0h0l.23.06h0l.06,0h0l.06,0h0l.06,0,.07,0h0l.08,0h0l.06,0h0l.08,0h0l.21.06h0l.09,0h0l.1,0h0l.34.1h0c2.63.75,5.28,1.47,7.93,2.15a2.12,2.12,0,0,0,.49.06,2,2,0,0,0,.49-3.94c-3.8-1-7.64-2-11.4-3.17a1.93,1.93,0,0,0-.58-.08Zm23.09,5.92a2,2,0,0,0-.42,4l.36.08h0l.08,0h0l.17,0h.22l.06,0h.12l.08,0h.25l.22,0h0l.1,0h0c2.81.59,5.63,1.13,8.47,1.64h0l.34.06h0l.09,0h0l.1,0h0l.11,0h.75l.17,0a2,2,0,0,0,.34,0,2,2,0,0,0,.34-4c-3.88-.67-7.79-1.43-11.63-2.25a2,2,0,0,0-.42,0Zm23.48,4.06a2,2,0,0,0-.27,4q5.94.79,11.95,1.34h.17a2,2,0,0,0,.19-4c-3.92-.36-7.88-.81-11.77-1.32l-.27,0Zm23.74,2.2a2,2,0,0,0-.1,4q3.63.19,7.29.3h.75c1.32,0,2.63.07,4,.08h0a2,2,0,0,0,0-4c-3.93,0-7.91-.18-11.83-.39Zm35.76-.2h-.13c-3.92.25-7.9.43-11.84.53a2,2,0,0,0,0,4h0l1.39,0h.92c2.07-.07,4.13-.15,6.18-.26h0l.35,0h1.77l.24,0h.12l.36,0h.1l.55,0a2,2,0,0,0-.12-4Zm23.71-2.46a1.37,1.37,0,0,0-.29,0c-3.89.56-7.84,1.05-11.75,1.45a2,2,0,0,0,.2,4h.2c4-.41,8-.91,11.93-1.48a2,2,0,0,0-.29-4Zm23.43-4.33a1.7,1.7,0,0,0-.44,0c-3.83.86-7.73,1.66-11.6,2.38a2,2,0,0,0,.36,4l.36,0c3.54-.65,7-1.36,10.51-2.13h0l.08,0h0l.07,0,.09,0h.14l.08,0h0l.72-.16a2,2,0,0,0-.44-4Zm23-6.19a2,2,0,0,0-.59.09c-3.76,1.17-7.58,2.28-11.38,3.3a2,2,0,0,0,.52,3.93,2.31,2.31,0,0,0,.52-.06q3.54-1,7-2h0l.08,0h0l.07,0h0l.24-.07h0l.07,0h0l.07,0h0l.15-.05h0l.06,0h.05l0,0h0l.06,0h0l.1,0h0l.09,0h0l.08,0h0l.08,0h0l.21-.06h0l.09,0h0l.09,0h0l.21-.07h0l.09,0h0l.09,0h0l.22-.06h0l.09,0h0l.1,0h0l.22-.07h0l.1,0h0l.09,0h0l.21-.07h0l.1,0h0l.09,0h0l.21-.06h0l.09,0h0l.07,0h0l.1,0h0l.1,0a2,2,0,0,0-.6-3.91Zm22.45-8a1.91,1.91,0,0,0-.74.14c-3.65,1.47-7.37,2.88-11.08,4.2a2,2,0,0,0,.68,3.88,2,2,0,0,0,.67-.12q5.65-2,11.22-4.25a2,2,0,0,0-.75-3.85Zm21.75-9.76a1.88,1.88,0,0,0-.89.21c-3.52,1.75-7.12,3.45-10.71,5.06a2,2,0,0,0,.82,3.82,2,2,0,0,0,.82-.17q5.49-2.46,10.85-5.13a2,2,0,0,0-.89-3.79Zm20.9-11.46a1.94,1.94,0,0,0-1,.29c-3.37,2-6.82,4-10.27,5.89a2,2,0,0,0,1,3.76,1.94,1.94,0,0,0,1-.25c3.52-1.92,7-3.92,10.41-6a2,2,0,0,0-1-3.72Zm19.93-13.07a2,2,0,0,0-1.16.37c-3.2,2.28-6.49,4.54-9.77,6.69a2,2,0,0,0,2.19,3.35l.11-.08h0l.09-.06h0l.37-.25h0l.09-.06h0l.38-.25h0l.38-.24h0l.08-.06h0l.28-.19h0l.08-.06h0l.09-.05h0l.28-.18h0l.09-.06h0l.28-.19h0l.08-.05h0l.07,0h0l.08-.06h0l.09-.06h0l.08-.05,0,0,.07,0,0,0,.06,0,0,0,.07,0h0l.09-.06h0l.07,0,0,0,.06,0,0,0,.08,0h0l.18-.12h0l.07,0,0,0,.06,0,0,0,.07,0h0l.1-.06h0l.08-.06h0l.07,0,0,0,.08,0v0l.18-.12h0l.07-.05h0l.07,0h0l.08-.06h0l.18-.12h0l.07,0h0l.07,0,0,0,.18-.12h0l.08,0h0l.07,0,0,0,.08,0h0l.27-.19h0l.08-.06h0l.09-.06h0l.19-.13h0l.09-.06h0c1.07-.74,2.13-1.48,3.19-2.24a2,2,0,0,0-1.17-3.62Zm18.84-14.61a2,2,0,0,0-1.29.47c-3,2.53-6.11,5-9.21,7.44a2,2,0,0,0-.36,2.81,2,2,0,0,0,2.81.35l.74-.57h0l.06-.05,0,0,0,0,0,0,0,0,.06,0,0,0,.09-.07h0l.08-.07h0l.07,0v0l.08-.06h0q4-3.17,8-6.46a2,2,0,0,0-1.29-3.53Zm17.63-16a2,2,0,0,0-1.41.57c-2.8,2.76-5.69,5.5-8.6,8.15a2,2,0,0,0,2.7,3q1.8-1.63,3.58-3.31h0l.33-.31h0l.06-.05,0,0,0,0,0,0,.17-.16,0,0,0,0,0,0,0,0,0,0,0,0,0,0,0,0,.07-.06,0,0,0,0,0,0,0,0,0,0,0,0,0,0,.16-.15,0,0,0,0,0,0,0,0,0,0,.07-.06h0l.16-.15h0l.07-.07h0l.07-.07h0l.24-.23h0l.07-.07h0l.32-.31h0l.08-.08h0l.33-.31h0l.08-.07h0a2.61,2.61,0,0,0,.24-.23h0l.06-.06,0,0,.06-.06,0,0,.07-.06h0l.08-.07,0,0,.05-.06,0,0,0,0,0,0,0,0,0,0,0,0,.1-.09h0l.06-.06h0l.06-.06h0l.07-.06h0l.8-.79a2,2,0,0,0-1.4-3.42Zm16.31-17.38a2,2,0,0,0-1.51.69c-2.57,3-5.24,5.93-7.93,8.79a2,2,0,0,0,1.46,3.37,2,2,0,0,0,1.45-.62q4.11-4.38,8.05-8.93a2,2,0,0,0-1.52-3.3Zm14.9-18.61a2,2,0,0,0-1.61.81c-2.33,3.17-4.76,6.32-7.22,9.39a2,2,0,0,0,.31,2.81,2,2,0,0,0,2.81-.31q3.75-4.68,7.32-9.51a2,2,0,0,0-.42-2.8,2,2,0,0,0-1.19-.39Zm13.38-19.72a2,2,0,0,0-1.7.94c-2.07,3.34-4.24,6.68-6.45,9.93a2,2,0,0,0,.53,2.78,2,2,0,0,0,1.12.34,2,2,0,0,0,1.65-.87l1.43-2.11h0l.06-.08v0l0-.07,0,0,0-.06,0,0,.12-.17,0,0,0,0,0,0,0,0,0,0,0,0,.14-.21h0l.05-.07v0l0-.06h0c.19-.29.38-.57.56-.86h0l.26-.39h0l.25-.39h0l0-.07h0l.05-.07h0l.19-.31h0l0-.07v0l0-.06h0l.09-.14h0l0-.06,0,0,0,0,0,0,0,0,0,0,0,0,0-.07,0,0,0-.06,0,0,0-.07v0l0-.07v0l.18-.28h0l0-.09h0c.72-1.12,1.43-2.25,2.14-3.38a2,2,0,0,0-.65-2.74,2,2,0,0,0-1.06-.3Zm11.78-20.72a2,2,0,0,0-1.78,1.08c-1.8,3.49-3.7,7-5.64,10.41a2,2,0,0,0,.75,2.72,2,2,0,0,0,1,.26,2,2,0,0,0,1.74-1c.2-.34.38-.67.58-1h0l.05-.09v0l0-.08h0l.11-.19v0l0-.06,0,0,0,0,0,0,0,0,.11-.2v0l0-.07h0l0-.08h0q2.34-4.21,4.57-8.5a2,2,0,0,0-1.78-2.92Zm10.1-21.59a2,2,0,0,0-1.84,1.22c-1.52,3.62-3.14,7.26-4.81,10.82a2,2,0,0,0,1,2.66,1.94,1.94,0,0,0,.84.19,2,2,0,0,0,1.82-1.15l.38-.82h0l.14-.31v0l0-.08v0l0-.09h0l0-.1h0l0-.09,0,0,0-.06,0,0,0-.05,0,0,0,0,0-.1v0l0-.05,0,0,0-.06,0,0,0-.07h0l.15-.33h0q1.65-3.63,3.21-7.29h0l0-.07v0l0-.07v0l0-.06,0-.09,0,0,0-.08v0l0-.07v0l0-.09h0c.07-.15.13-.31.2-.46a2,2,0,0,0-1.08-2.62,2.07,2.07,0,0,0-.77-.15Zm8.35-22.33a2,2,0,0,0-1.9,1.38c-1.23,3.73-2.55,7.49-3.93,11.17a2,2,0,0,0,1.18,2.57,1.89,1.89,0,0,0,.7.13,2,2,0,0,0,1.87-1.29c.66-1.77,1.3-3.54,1.93-5.33h0l0-.09v0l.07-.21h0l0-.09v0l0-.07v0l0-.06v0l0-.09,0-.05v0l0-.06,0,0,0-.07v0a3,3,0,0,0,.11-.32h0q.8-2.31,1.56-4.62a2,2,0,0,0-1.28-2.53,1.87,1.87,0,0,0-.62-.1Zm6.54-22.92a2,2,0,0,0-1.94,1.53c-.93,3.82-2,7.67-3,11.45a2,2,0,0,0,1.37,2.47,2.09,2.09,0,0,0,.55.08,2,2,0,0,0,1.92-1.45c0-.13.07-.26.11-.39h0l0-.09v0l0-.09v0l0-.11h0l0-.08v-.1l0-.06v0l0-.06v0l0-.16h0l0-.08v0l0-.08h0c.41-1.47.81-2.94,1.2-4.42h0l0-.09h0l.07-.26h0l0-.08v0l0-.08v0l0-.07v0l0-.11v-.1l0,0v-.11l0,0,0-.21v0l0-.09v0l0-.09h0l.06-.23h0l0-.11h0c.33-1.3.65-2.58,1-3.89a2,2,0,0,0-1.48-2.4,1.89,1.89,0,0,0-.47-.06Zm4.7-23.36a2,2,0,0,0-2,1.68c-.62,3.88-1.32,7.8-2.1,11.65a2,2,0,0,0,1.57,2.36,2.58,2.58,0,0,0,.39,0,2,2,0,0,0,2-1.61q.51-2.52,1-5h0l0-.08v0l0-.16h0l0-.06v-.2l0-.22h0l0-.11h0c.36-2,.69-3.91,1-5.89a2,2,0,0,0-1.66-2.28l-.31,0Zm2.83-23.67a2,2,0,0,0-2,1.84c-.31,3.92-.7,7.88-1.17,11.78a2,2,0,0,0,1.75,2.23h.24a2,2,0,0,0,2-1.76c.21-1.73.4-3.46.58-5.2h0V1200h0v-.92h0V1199h0v-.12c.17-1.79.33-3.58.47-5.38a2,2,0,0,0-1.83-2.14Zm1-23.82a2,2,0,0,0-2,2c0,3.93-.09,7.92-.25,11.84a2,2,0,0,0,1.92,2.08h.08a2,2,0,0,0,2-1.92l.09-2.54h0v-.12h0c0-.12,0-.23,0-.35v-1.3c0-.12,0-.23,0-.35h0c.06-2.44.1-4.88.1-7.33a2,2,0,0,0-2-2Zm-.89-23.83h-.16a2,2,0,0,0-1.84,2.15c.3,3.91.53,7.89.68,11.82a2,2,0,0,0,2,1.92h.08a2,2,0,0,0,1.92-2.07c-.12-3.2-.29-6.4-.51-9.58v-1h0c0-.47-.06-.93-.1-1.4a2,2,0,0,0-2-1.85ZM1648,1120a1.72,1.72,0,0,0-.32,0,2,2,0,0,0-1.66,2.29c.61,3.88,1.15,7.82,1.6,11.73a2,2,0,0,0,2,1.77l.23,0a2,2,0,0,0,1.76-2.2c-.14-1.2-.29-2.4-.44-3.59v-.12h0l0-.12h0v-.37h0l0-.17v-.12q-.49-3.72-1.07-7.4a2,2,0,0,0-2-1.69Zm-4.63-23.38a1.83,1.83,0,0,0-.47.05,2,2,0,0,0-1.48,2.41c.91,3.82,1.77,7.71,2.53,11.57a2,2,0,0,0,2,1.61,1.72,1.72,0,0,0,.39,0,2,2,0,0,0,1.57-2.35q-1.17-5.89-2.56-11.72a2,2,0,0,0-1.94-1.53Zm-6.48-22.94a1.87,1.87,0,0,0-.62.1,2,2,0,0,0-1.28,2.52c1.21,3.73,2.37,7.55,3.44,11.33a2,2,0,0,0,1.92,1.45,2.08,2.08,0,0,0,.55-.07,2,2,0,0,0,1.38-2.47l-.08-.27h0l-.07-.25h0l0-.07v0l0-.05,0-.06v0l0-.08v0l0-.11h0l0-.1h0l0-.1h0c-.74-2.58-1.52-5.14-2.32-7.7h0c-.05-.15-.1-.29-.14-.44h0l0-.1h0c0-.11-.07-.22-.1-.33h0l0-.1h0l-.11-.32v0l0-.1h0l-.11-.33h0l0-.1h0c0-.11-.07-.22-.1-.33h0l0-.1h0l-.07-.21a2,2,0,0,0-1.9-1.38Zm-8.29-22.35a2.15,2.15,0,0,0-.77.15,2,2,0,0,0-1.07,2.62c1.51,3.63,3,7.33,4.33,11a2,2,0,0,0,1.88,1.3,2.09,2.09,0,0,0,.69-.12,2,2,0,0,0,1.18-2.57c-.39-1.06-.78-2.11-1.19-3.16h0l-.16-.42v0l0-.07v0l0-.06v0l-.06-.14h0l0-.06v0l0-.06,0,0,0,0,0-.06,0,0,0-.09v0l0-.06,0,0,0-.07v0l0-.07v0l-.08-.2v0l0-.09v0l0-.08v0c0-.11-.08-.21-.13-.32h0c-.75-1.91-1.51-3.8-2.3-5.69a2,2,0,0,0-1.85-1.23Zm-10-21.62a2,2,0,0,0-.92.22,2,2,0,0,0-.86,2.7c1.79,3.49,3.54,7.07,5.2,10.63a2,2,0,0,0,1.81,1.16,2.08,2.08,0,0,0,.84-.18,2,2,0,0,0,1-2.66c-.61-1.33-1.24-2.66-1.88-4h0l0-.06,0,0,0-.06v0l0-.06,0,0-.05-.1,0,0,0,0,0,0,0,0,0,0,0,0,0-.07v0l-.05-.09v0l0-.08,0,0,0-.07v0l0-.09h0l-.1-.2h0l0-.09h0l0-.1h0l-.15-.31h0l0-.1h0c-.8-1.62-1.6-3.21-2.42-4.81a2,2,0,0,0-1.77-1.08ZM1606.88,1009a2,2,0,0,0-1.05.3,2,2,0,0,0-.64,2.75c2.06,3.34,4.09,6.77,6,10.19a2,2,0,0,0,1.74,1,2,2,0,0,0,1-.26,2,2,0,0,0,.76-2.72l-1-1.74h0l0-.08v0l0-.07v0l0-.06,0-.07,0,0,0-.05,0,0,0-.06,0,0,0-.06v0q-1.92-3.33-3.92-6.6h0l-.05-.07h0l-.19-.31h0l0-.07h0l0-.07v0l-.13-.21v0l0-.06v0l0-.07,0,0,0-.06,0,0-.08-.13v0l0,0,0,0,0-.05v0a2,2,0,0,0-1.71-.95Zm-13.32-19.77a2,2,0,0,0-1.61,3.19c2.32,3.17,4.61,6.43,6.81,9.68a2,2,0,0,0,1.66.88,2,2,0,0,0,1.12-.34,2,2,0,0,0,.54-2.77h0l0-.06v0l0-.07h0l-.15-.21h0l0-.06,0,0,0-.05,0,0,0,0,0,0,0,0,0-.08,0,0,0,0,0,0,0,0,0,0,0-.05,0,0-.12-.18h0l0-.08,0,0-.05-.07v0l-.06-.08h0l-.12-.18h0l-.06-.08h0l-.07-.09h0c-1.37-2-2.77-4-4.19-6h0l-.2-.27h0l-.06-.07,0,0,0-.06,0,0,0-.05,0,0,0,0-.06-.07,0,0,0-.05,0,0,0-.06v0l-.77-1a2,2,0,0,0-1.61-.82Zm-14.84-18.65a2,2,0,0,0-1.52,3.31c2.57,3,5.11,6,7.56,9.12a2,2,0,0,0,3.13-2.48c-.56-.71-1.11-1.4-1.68-2.1h0c-.08-.08-.14-.17-.22-.26h0l-.06-.08,0,0-.05-.06,0,0,0-.07v0l-.07-.08,0,0,0-.06,0,0,0,0,0,0,0-.05,0,0,0,0-.07-.08v0l0-.05,0,0,0,0,0,0,0,0,0,0,0-.05,0,0-.08-.09,0,0,0,0,0,0,0-.05,0,0,0,0,0,0-.14-.17,0,0,0-.05,0,0,0,0,0,0,0,0,0,0-.08-.09,0,0,0-.05,0,0,0,0,0,0,0-.05,0,0,0,0,0-.06,0,0,0-.05,0,0,0,0,0,0,0,0,0,0,0,0,0,0-.07-.08,0,0,0-.06,0,0,0-.05,0,0,0,0,0,0,0-.06v0l-.07-.08,0,0,0-.05,0,0,0-.06,0,0-.05-.07h0l-.06-.08h0l-.07-.08h0l0-.07,0,0,0-.06,0,0,0-.06,0,0-.14-.16v0l-.06-.07h0l-.06-.07,0,0-.06-.07h0l-.08-.08h0l-.06-.08h0l0-.07,0,0-.05-.06,0,0-.06-.07h0l-.07-.09,0,0-.05-.05,0,0,0,0,0,0,0,0,0,0,0-.06-.05,0,0,0,0,0,0,0,0,0,0,0,0,0,0,0-.15-.18v0l-.06-.06h0l-.05-.07h0l-.85-1a2,2,0,0,0-1.51-.7Zm-16.27-17.42a2,2,0,0,0-1.42.59,2,2,0,0,0,0,2.83c2.79,2.76,5.56,5.62,8.24,8.5a2,2,0,0,0,1.47.63,2,2,0,0,0,1.36-.54,2,2,0,0,0,.1-2.82h0l-.06-.06h0l-.18-.18v0l0,0,0,0,0,0,0,0,0,0,0-.05,0,0-.07-.07h0l-.06-.07,0,0-.06-.06,0,0-.06-.06v0q-3.7-3.93-7.55-7.74a2,2,0,0,0-1.4-.57ZM1544.87,937a2,2,0,0,0-1.53.71,2,2,0,0,0,.24,2.82c3,2.54,6,5.17,8.89,7.82a2,2,0,0,0,1.35.53,2,2,0,0,0,1.35-3.47q-3.08-2.82-6.22-5.54h0l-.17-.15h0l-.07-.06,0,0,0,0,0,0,0,0,0,0-.07-.06,0,0,0,0-.06,0h0l-.06-.06h0l-2.06-1.76a2,2,0,0,0-1.29-.48Zm-18.8-14.65a2,2,0,0,0-1.62.83,2,2,0,0,0,.46,2.79c3.19,2.29,6.38,4.68,9.47,7.1a2,2,0,0,0,1.23.42,2,2,0,0,0,1.24-3.57l-1.28-1v0l-.07,0,0,0,0,0,0,0-.05,0,0,0h0l-.21-.16h0q-3.86-3-7.82-5.81a2,2,0,0,0-1.17-.37Zm-19.89-13.14a2,2,0,0,0-1.71,1,2,2,0,0,0,.67,2.75c3.37,2,6.73,4.16,10,6.32a2,2,0,0,0,1.1.33,2,2,0,0,0,1.12-3.66c-3.34-2.2-6.73-4.35-10.16-6.42a2,2,0,0,0-1-.29Zm-20.87-11.51a2,2,0,0,0-.9,3.79c3.52,1.76,7,3.61,10.48,5.51a2,2,0,0,0,1.94-3.5c-1.21-.66-2.41-1.32-3.62-2h0l-.08,0h0l-.22-.11,0,0-.06,0h0l-.06,0h0l-.06,0,0,0,0,0-.08-.05,0,0-.05,0,0,0,0,0,0,0-.06,0,0,0-.08,0,0,0-.07,0,0,0-.05,0,0,0-.06,0,0,0-.07,0h0l-.09-.05h0l-.07,0,0,0-.06,0,0,0-.07,0,0,0-.09,0h0l-.08,0,0,0-.06,0,0,0-.06,0,0,0-.06,0h0l-.09,0,0,0-.06,0,0,0-.06,0,0,0-.06,0,0,0-.07,0-.06,0,0,0-.05,0,0,0,0,0,0,0,0,0,0,0-.12-.07h0l-.06,0,0,0-.06,0,0,0,0,0h0l-.31-.16h0l-.07,0h0l-2.84-1.44a2.08,2.08,0,0,0-.9-.21Zm-21.72-9.82a2,2,0,0,0-.75,3.85c3.64,1.48,7.31,3,10.89,4.66a1.81,1.81,0,0,0,.82.18,2,2,0,0,0,.83-3.82l-3.2-1.42h0l-.09,0h0l-.31-.14h0l-.09,0h0l-.1,0h0l-.31-.14h0l-.11,0h0l-.32-.13h0l-.1,0h0q-3.17-1.37-6.37-2.66a1.91,1.91,0,0,0-.74-.14Zm-22.43-8.07a2,2,0,0,0-.6,3.91c3.75,1.18,7.53,2.46,11.22,3.78a2,2,0,0,0,.68.12,2,2,0,0,0,.68-3.88q-3.2-1.15-6.43-2.23h0l-.33-.11h0l-.09,0h0l-.09,0h0l-.21-.07h0l-.08,0h0l-.07,0h0l-.1,0h0l-.09,0h0l-.08,0h0l-.07,0h0l-.07,0h0l-.08,0,0,0,0,0h0l-.05,0h0l0,0-.1,0,0,0-.06,0h0l-.07,0h0l-.07,0h0l-.25-.08h0l-.08,0h0l-.07,0h0l-.34-.11h0c-.59-.2-1.19-.38-1.78-.57a1.86,1.86,0,0,0-.61-.1Zm-23-6.24a2,2,0,0,0-.44,3.95c3.83.87,7.69,1.84,11.48,2.87a1.93,1.93,0,0,0,.53.07,2,2,0,0,0,.52-3.93l-1.35-.36h0l-.08,0h0l-.25-.06h0l-.07,0h-.1l0,0h-.09l-.1,0H1428l-.06,0h0l-.08,0h0l-.11,0h0l-.09,0h0l-.09,0h0l-.33-.08h0l-.11,0h0l-3.52-.89h0l-.11,0h0l-.33-.08h0l-.09,0h0l-.21,0h0l-.08,0h-.15l-.06,0h-.05l-.09,0h0l0,0h-.1l-.06,0h0l-.25-.06h0l-.09,0h0l-3-.7a1.73,1.73,0,0,0-.45,0Zm-23.43-4.4a2,2,0,0,0-.28,4c3.89.57,7.82,1.23,11.68,2a2.33,2.33,0,0,0,.37,0,2,2,0,0,0,.37-4l-1.8-.33h0l-.11,0h0l-.22,0h-.25l-.1,0h0l-.07,0H1404l-.1,0h-.77l-.11,0h-.32l-.14,0h-.25l-.11,0h-1.7l-.11,0h-.14l-.08,0h0l-.09,0h0l-.1,0h0l-.08,0h-.15l-.1,0h-.36l-.11,0h0l-.09,0h0l-.07,0h-.15l-.1,0h-.76l-.25,0h0l-2.6-.39-.3,0ZM1371,866.66a2,2,0,0,0-.14,4c3.93.26,7.9.6,11.8,1h.22a2,2,0,0,0,.21-4c-1.49-.16-3-.3-4.47-.44h-.1l-.25,0h-.67l-.23,0h0c-2.08-.19-4.15-.35-6.24-.49ZM1350.6,866h-5.88q-3.08.06-6.13.18a2,2,0,0,0,.09,4h.08c3.92-.16,7.91-.23,11.84-.23h0c2.82,0,5.67,0,8.47.11h.06a2,2,0,0,0,0-4q-3.14-.09-6.29-.11h-2.29Z" transform="translate(2 -142.59)"/></g><g class="cls-1"><circle class="cls-4" cx="2169.7" cy="1051.29" r="416.52"/></g><g class="cls-1"><path class="cls-4" d="M2143.8,689.3h-.09l-.73,0h-1.12l-1.59.08h0l-.39,0h-2.54c-1.87.11-3.74.24-5.6.37a2,2,0,0,0,.14,4h.14c3.94-.28,7.94-.52,11.89-.71a2,2,0,0,0-.1-4ZM2120,691h-.19l-.37,0h-.78l-.14,0h-.06l-.13,0h-.06l-.13,0h-.4l-1.1.11h0l-.17,0h-1.52l-2.22.24h0l-.18,0h-.2l-.16,0h0l-.16,0h0l-.16,0h0l-.17,0h0l-.15,0h0l-.15,0h-.44l-.17,0-.15,0h0l-.15,0h0l-.16,0h0l-.17,0h0l-.18,0h0l-1.82.21a2,2,0,0,0,.25,4l.24,0c3.92-.47,7.91-.9,11.84-1.28a2,2,0,0,0-.19-4Zm-23.73,2.86a1.32,1.32,0,0,0-.28,0l-1.23.18h0l-.18,0h0l-.16,0h0l-.15,0h0l-.14,0h-.06l-.13,0h-.06l-.11,0h-.15c-2.82.43-5.64.87-8.45,1.34h0l-.14,0h-.06l-.11,0h-.09l-.08,0-.12,0h-.06l-.14,0h-.13a2,2,0,0,0,.34,4l.33,0c3.9-.66,7.85-1.29,11.76-1.85a2,2,0,0,0-.28-4Zm-23.57,4a1.61,1.61,0,0,0-.37,0l-2.77.54-.14,0h-.05l-.17,0h0q-2.76.56-5.5,1.14h0l-.16,0h0l-.15,0h0l-.13,0h-.07l-.11,0-.09,0-.09,0-.12,0-.06,0-.16,0h0l-1.88.41a2,2,0,0,0,.44,3.95,2.15,2.15,0,0,0,.43,0c3.85-.85,7.78-1.66,11.65-2.41a2,2,0,0,0-.38-4ZM2049.32,703a2,2,0,0,0-.48.06q-5.84,1.43-11.62,3a2,2,0,0,0,1,3.86c3.81-1,7.69-2,11.52-3a2,2,0,0,0-.47-3.94Zm-23.07,6.24a2.16,2.16,0,0,0-.56.08c-3.84,1.14-7.68,2.33-11.49,3.56a2,2,0,0,0,.63,3.9,1.86,1.86,0,0,0,.61-.1c3.76-1.21,7.59-2.4,11.37-3.52a2,2,0,0,0-.56-3.92Zm-22.75,7.35a1.91,1.91,0,0,0-.66.11l0,0-.09,0-.1,0-.07,0-.13,0,0,0-.15,0h0l-.16.05h0l-.18.06h0c-1.64.58-3.27,1.16-4.9,1.76h0l-.17.06h0l-.15.06h0l-.15,0h0l-.15.06h0l-.14,0h0l-.15.06h0l-.15.06h0l-.15.05h0l-.15.06h0l-.17.06h0l-.17.07h0l-.17.06h0l-3.21,1.19a2,2,0,0,0,.72,3.87,1.93,1.93,0,0,0,.7-.13c3.7-1.39,7.46-2.76,11.19-4.06a2,2,0,0,0-.66-3.89ZM1981.13,725a1.89,1.89,0,0,0-.73.14q-5.09,2.05-10.13,4.22h0l-.17.08h0l-.16.07h0l-.15.06,0,0-.13.06,0,0-.12,0-.06,0,0,0a2,2,0,0,0,.8,3.83,2,2,0,0,0,.79-.16c3.63-1.57,7.32-3.12,11-4.6a2,2,0,0,0-.75-3.85Zm-21.94,9.49a1.87,1.87,0,0,0-.82.18l-2.63,1.22h0l-.17.08h0l-.15.07,0,0-.14.06,0,0-.13.06,0,0-.12,0-.05,0-.12,0-.06,0-.11.05-.06,0-.11,0-.06,0-.12.06-.06,0-.1.05-.07,0-.11,0-.06,0-.11.05-.06,0-.12.05,0,0-.12,0,0,0-.13.06,0,0-.13.06,0,0-.15.07h0l-.15.07h0l-.16.08h0c-1.66.79-3.3,1.58-4.94,2.39a2,2,0,0,0-.9,2.67,2,2,0,0,0,1.79,1.12,2,2,0,0,0,.88-.2c3.55-1.74,7.17-3.46,10.75-5.12a2,2,0,0,0-.84-3.81ZM1937.73,745a1.93,1.93,0,0,0-.92.23c-2.22,1.15-4.42,2.32-6.62,3.5h0l-.14.08h0l-.13.07,0,0-.12.06-.06,0-.1.05-.08,0-.08,0-.1.06,0,0-.13.06,0,0-.15.09h0c-.9.49-1.81,1-2.7,1.48a2,2,0,0,0,1.94,3.49c3.46-1.9,7-3.79,10.5-5.62a2,2,0,0,0-.93-3.77Zm-20.94,11.53a2,2,0,0,0-1,.27l-.15.09h0l-.09.05-.08,0,0,0c-2.28,1.33-4.57,2.69-6.83,4.05l0,0-.1.06-.06,0-.06,0c-1,.57-1.89,1.15-2.83,1.73a2,2,0,0,0,2.09,3.41c3.37-2.07,6.81-4.13,10.22-6.11a2,2,0,0,0-1-3.73Zm-20.37,12.5a2,2,0,0,0-1.08.32l-2.91,1.9h0l-.15.1h0l-.15.11h0l-.15.1h0l-.16.1h0l-.31.21h0l-.15.1h0l-.15.1h0c-2,1.29-3.9,2.59-5.83,3.91a2,2,0,0,0,2.27,3.29c3.26-2.22,6.6-4.43,9.92-6.58a2,2,0,0,0,.59-2.76,2,2,0,0,0-1.68-.92Zm-19.76,13.45a1.94,1.94,0,0,0-1.16.38q-4.89,3.48-9.68,7.09a2,2,0,0,0-.4,2.8,2,2,0,0,0,2.8.4c3.16-2.37,6.39-4.74,9.6-7a2,2,0,0,0-1.16-3.63Zm-19.11,14.36a2,2,0,0,0-1.24.43l-2.77,2.2,0,0-.1.08-.06,0-.07.05-.08.07,0,0-.1.08,0,0c-1.57,1.26-3.14,2.54-4.7,3.82h0l-.14.11v0l-.12.09,0,0-.1.08-.05.05-.07.06-.09.07,0,0-.11.08,0,0-.56.46a2,2,0,1,0,2.55,3.09c3-2.52,6.16-5,9.26-7.49a2,2,0,0,0-1.24-3.57Zm-18.42,15.24a2,2,0,0,0-1.3.49q-3.06,2.65-6.07,5.35l0,0-.11.1-.06.05-.08.08-.08.06-.05.06-.11.09,0,0-.13.11h0l-2.22,2a2,2,0,0,0,1.35,3.48,2,2,0,0,0,1.34-.52c2.93-2.66,5.92-5.32,8.9-7.91a2,2,0,0,0-1.31-3.51Zm-17.68,16.09a2,2,0,0,0-1.37.54l-2.23,2.14h0l-.12.12,0,0-.12.11,0,0-.1.1,0,0-.09.08,0,.06-.08.07-.06.06-.07.07-.07.07-.06,0-.08.08,0,0-.09.09,0,0-.1.1,0,0-.11.11,0,0-.12.11v0c-1.57,1.53-3.14,3.07-4.69,4.62l-.11.11a2,2,0,0,0,0,2.83,2,2,0,0,0,2.82,0c2.8-2.79,5.67-5.59,8.53-8.32a2,2,0,0,0-1.38-3.44Zm-16.92,16.89a2,2,0,0,0-1.44.61q-4.15,4.35-8.2,8.78a2,2,0,0,0,.14,2.82,2,2,0,0,0,2.82-.13c2.66-2.92,5.4-5.84,8.13-8.7a2,2,0,0,0-.07-2.83,2,2,0,0,0-1.38-.55Zm-16.11,17.66a2,2,0,0,0-1.51.69q-3.93,4.52-7.77,9.14a2,2,0,1,0,3.08,2.55c2.52-3,5.12-6.09,7.71-9.07a2,2,0,0,0-1.51-3.31Zm-15.26,18.39a2,2,0,0,0-1.57.75q-3.72,4.73-7.35,9.52a2,2,0,0,0,3.21,2.4c2.37-3.16,4.82-6.33,7.27-9.43a2,2,0,0,0-1.56-3.24Zm-14.39,19.09a2,2,0,0,0-1.63.84q-3.5,4.86-6.88,9.83a2,2,0,0,0,3.3,2.25c2.23-3.26,4.53-6.54,6.83-9.75a2,2,0,0,0-.46-2.79,1.94,1.94,0,0,0-1.16-.38ZM1745.29,920a2,2,0,0,0-1.68.91l-.59.91v0l-.09.14v0l-.09.13,0,0-.07.11,0,0,0,.06-1.08,1.68h0l-.2.31h0l-.09.14v0l-.08.13,0,0-.08.12,0,0-.08.12,0,0-.07.12,0,0-.07.1,0,.07-.06.09,0,.07-.05.08,0,.08,0,.07,0,.09,0,.06-.07.11,0,0-.07.11,0,0-.07.11,0,.05-.07.11,0,0-.08.12,0,0-.08.13,0,0-.08.13,0,0-.09.15h0l-.1.15h0q-1.18,1.88-2.34,3.77a2,2,0,0,0,.66,2.74,2,2,0,0,0,1.05.3,2,2,0,0,0,1.7-1c2.07-3.36,4.21-6.74,6.36-10.06a2,2,0,0,0-.59-2.76,2,2,0,0,0-1.08-.33Zm-12.54,20.36a2,2,0,0,0-1.73,1c-.15.27-.31.54-.47.81q-1.38,2.39-2.75,4.79h0l-.19.33h0c-.85,1.49-1.69,3-2.52,4.51a2,2,0,0,0,3.51,1.92c1.91-3.46,3.89-6.94,5.88-10.36a2,2,0,0,0-.72-2.73,1.94,1.94,0,0,0-1-.27Zm-11.56,20.92a2,2,0,0,0-1.77,1.07l0,0,0,0-.07.12,0,0-.06.13,0,0-.06.14,0,0-.07.15,0,0-.07.14,0,0-.07.14v0l-.08.15h0l-.08.16h0l-.09.16h0l-.08.16h0q-2.31,4.46-4.52,9a2,2,0,0,0,.91,2.66,2,2,0,0,0,.88.21,2,2,0,0,0,1.8-1.12c1.74-3.54,3.56-7.11,5.38-10.62a2,2,0,0,0-1.77-2.92Zm-10.55,21.44a2,2,0,0,0-1.82,1.16q-2.52,5.45-4.91,10.95a2,2,0,0,0,1,2.63,1.88,1.88,0,0,0,.79.17,2,2,0,0,0,1.84-1.2c1.57-3.62,3.21-7.28,4.87-10.87a2,2,0,0,0-1.81-2.84Zm-9.53,21.93a2,2,0,0,0-1.85,1.25q-2.25,5.55-4.38,11.17a2,2,0,0,0,1.16,2.58,2.17,2.17,0,0,0,.71.13,2,2,0,0,0,1.87-1.3c1.4-3.69,2.86-7.42,4.35-11.08a2,2,0,0,0-1.86-2.75Zm-8.46,22.35a2,2,0,0,0-1.88,1.33q-2,5.67-3.85,11.39a2,2,0,0,0,1.29,2.51,2.16,2.16,0,0,0,.61.1,2,2,0,0,0,1.91-1.39c1.21-3.75,2.5-7.55,3.81-11.27a2,2,0,0,0-1.23-2.55,1.92,1.92,0,0,0-.66-.12Zm-7.38,22.74a2,2,0,0,0-1.92,1.42q-1,3.51-2,7v0l0,.14c-.41,1.45-.82,2.92-1.21,4.37a2,2,0,0,0,3.86,1c1-3.81,2.14-7.66,3.27-11.44a2,2,0,0,0-1.35-2.49,1.87,1.87,0,0,0-.57-.08Zm-6.28,23.06a2,2,0,0,0-1.94,1.5q-1.44,5.84-2.74,11.72a2,2,0,0,0,1.53,2.37,2.1,2.1,0,0,0,.43.05,2,2,0,0,0,2-1.57c.85-3.86,1.77-7.76,2.71-11.59a2,2,0,0,0-1.94-2.48Zm-5.16,23.33a2,2,0,0,0-2,1.62l0,0v.08l0,.11,0,.08,0,.12v.06l0,.14v.05l0,.14v0l0,.15v0l0,.17h0c-.14.71-.27,1.41-.4,2.12h0l0,.18h0l0,.18v0l0,.17v0l0,.15v0l0,.16v0l0,.16v0l0,.14v0l0,.14v.05l0,.14v0l0,.13v.07l0,.11v.08l0,.09,0,.1v.07l0,.12h0q-.54,3-1,5.91a2,2,0,0,0,1.63,2.31l.34,0a2,2,0,0,0,2-1.66c.67-3.9,1.39-7.83,2.15-11.71a2,2,0,0,0-1.58-2.35,2.58,2.58,0,0,0-.38,0Zm-4,23.56a2,2,0,0,0-2,1.71c-.07.5-.14,1-.22,1.49h0l0,.18,0,.1v.09l0,.13v.05l0,.15v0l0,.16v0l0,.17v0l0,.16v0l0,.18h0c-.26,1.9-.52,3.79-.76,5.69v.15l0,.13v0l0,.16v0l0,.18h0c-.11.85-.21,1.71-.32,2.56a2,2,0,0,0,1.75,2.22h.24a2,2,0,0,0,2-1.76c.48-3.92,1-7.89,1.59-11.8a2,2,0,0,0-1.69-2.26l-.3,0Zm-2.89,23.73a2,2,0,0,0-2,1.8v.32h0c-.05.6-.11,1.18-.16,1.78v.43l0,.15v.05l0,.14v.9q-.36,4.08-.67,8.19a2,2,0,0,0,1.85,2.14h.15a2,2,0,0,0,2-1.85c.29-3.94.63-7.93,1-11.86a2,2,0,0,0-1.8-2.19Zm-1.74,23.84a2,2,0,0,0-2,1.9v.59c-.13,2.85-.25,5.71-.34,8.57v.63h0l-.06,2.22a2,2,0,0,0,2,2h0a2,2,0,0,0,2-2c.1-4,.25-8,.45-11.9a2,2,0,0,0-1.9-2.1Zm-.61,23.9a2,2,0,0,0-2,2v.78h0v7.57c0,.29,0,.58,0,.86h0l.06,2.81a2,2,0,0,0,2,2h0a2,2,0,0,0,2-2c-.09-3.7-.13-7.45-.13-11.15v-.76a2,2,0,0,0-2-2Zm.54,23.9h-.1a2,2,0,0,0-1.9,2.08q.17,3.51.37,7h0v1.4c0,.2,0,.4,0,.6h0v1.79l0,.19h0c0,.33,0,.64.07,1a2,2,0,0,0,2,1.85h.14a2,2,0,0,0,1.86-2.14c-.28-3.94-.51-7.94-.7-11.88a2,2,0,0,0-2-1.91Zm1.67,23.84h-.19a2,2,0,0,0-1.8,2.17c.1,1.06.2,2.13.31,3.19v0l0,.14,0,.17h0l0,.18h0q.42,4.11.9,8.19a2,2,0,0,0,2,1.77l.24,0a2,2,0,0,0,1.75-2.22c-.46-3.92-.89-7.9-1.26-11.83a2,2,0,0,0-2-1.82Zm2.82,23.74-.28,0a2,2,0,0,0-1.7,2.26c.39,2.73.8,5.44,1.24,8.15v0l0,.16v0l0,.15v0l0,.14v.06l0,.12v.07l0,.11v.09l0,.1,0,.1v.09l0,.1v.08l0,.13v.06l0,.14v0l0,.16v0c.1.56.19,1.12.28,1.69a2,2,0,0,0,2,1.66,2,2,0,0,0,.34,0,2,2,0,0,0,1.64-2.3c-.66-3.9-1.27-7.85-1.83-11.76a2,2,0,0,0-2-1.72Zm4,23.57a1.64,1.64,0,0,0-.38,0,2,2,0,0,0-1.59,2.33c.57,3,1.18,6,1.8,8.9v0l0,.16v0l0,.14v.06l0,.12v.08l0,.09,0,.11v.07l0,.13v0l0,.15h0l.36,1.64a2,2,0,0,0,2,1.58,2.18,2.18,0,0,0,.43-.05,2,2,0,0,0,1.53-2.38c-.85-3.86-1.65-7.78-2.4-11.66a2,2,0,0,0-2-1.62Zm5.09,23.35a2,2,0,0,0-.48.06,2,2,0,0,0-1.47,2.4c.37,1.5.74,3,1.12,4.5h0l.09.38h0c.23.88.45,1.76.68,2.64h0l0,.19h0l.05.18h0l0,.18h0l0,.18h0l0,.18h0l0,.18h0l.05.18h0l0,.18h0l0,.18h0l0,.17v0l0,.17v0l0,.16v0l0,.16v0l0,.17v0l0,.17v0l0,.15v0l0,.15v0l0,.18h0l0,.15.15.58a2,2,0,0,0,1.93,1.48,1.86,1.86,0,0,0,.52-.07,2,2,0,0,0,1.41-2.45c-1-3.81-2-7.69-3-11.53a2,2,0,0,0-1.94-1.53Zm6.21,23.08a1.88,1.88,0,0,0-.57.09,2,2,0,0,0-1.35,2.48c.17.6.35,1.2.53,1.79v0l0,.16v0l0,.14v.06l0,.12,0,.07,0,.1,0,.12,0,.06c.18.62.37,1.22.55,1.84v0l0,.15v.05l.05.13v.06l0,.12,0,.09,0,.08,0,.11,0,.08,0,.1,0,.08,0,.11,0,.06,0,.13v0l0,.14v0l0,.16h0c.53,1.73,1.08,3.46,1.63,5.18a2,2,0,0,0,1.9,1.39,1.91,1.91,0,0,0,.62-.1,2,2,0,0,0,1.29-2.52c-1.21-3.76-2.39-7.58-3.51-11.37a2,2,0,0,0-1.91-1.44Zm7.31,22.76a2.17,2.17,0,0,0-.66.11,2,2,0,0,0-1.23,2.55l.12.35h0l.06.17h0l0,.17v0l.06.16h0l.06.16v0l0,.15v0l0,.15v0l0,.14v0l.06.15v0l0,.15v0l0,.13,0,0,0,.13,0,0,.05.13,0,.06,0,.11,0,.08,0,.1,0,.09,0,.09,0,.1,0,.08q1.23,3.45,2.5,6.88c.15.41.31.81.46,1.22a2,2,0,0,0,1.87,1.3,1.89,1.89,0,0,0,.7-.13,2,2,0,0,0,1.17-2.57c-1.38-3.7-2.75-7.47-4-11.2a2,2,0,0,0-1.89-1.34Zm8.39,22.38a2.11,2.11,0,0,0-.74.14,2,2,0,0,0-1.12,2.59c.27.66.53,1.32.8,2h0l.07.17,0,.05,0,.11,0,.09,0,.08,0,.12,0,0,.06.14v0q1.71,4.15,3.48,8.28a2,2,0,0,0,1.84,1.21,2,2,0,0,0,.79-.16,2,2,0,0,0,1-2.63c-1.57-3.63-3.11-7.33-4.58-11a2,2,0,0,0-1.86-1.25Zm9.46,22a2.08,2.08,0,0,0-.84.18,2,2,0,0,0-1,2.66c.16.33.31.67.47,1v0l.06.13,0,0,0,.08,0,.11,0,0,.07.14h0c1.45,3.12,2.91,6.19,4.41,9.27a2,2,0,0,0,1.8,1.11,1.94,1.94,0,0,0,.87-.2,2,2,0,0,0,.92-2.67c-1.73-3.56-3.45-7.17-5.09-10.76a2,2,0,0,0-1.82-1.17Zm10.49,21.48a2,2,0,0,0-1.78,2.92l1.26,2.41,0,.09v0l.16.32,0,0,.07.14,0,0,.07.13,0,0,.07.13,0,0,.07.14,0,0,.07.12,0,.06.06.11,0,.06.06.11,0,.06.05.1,0,.09,0,.08,0,.1,0,.06.06.1,0,.07.06.11,0,.05.06.12,0,0,.06.12,0,0,.07.13,0,0,.08.15h0l.08.16h0q1.33,2.49,2.68,5a2,2,0,0,0,1.75,1,1.94,1.94,0,0,0,1-.25,2,2,0,0,0,.8-2.72c-1.9-3.46-3.79-7-5.61-10.5a2,2,0,0,0-1.77-1.08Zm11.49,21a1.93,1.93,0,0,0-1,.27,2,2,0,0,0-.72,2.73c.56,1,1.13,1.94,1.7,2.91h0l.09.15h0l.08.15,0,0,.08.14v0l.08.13,0,0,.07.12,0,.06.06.09,0,.08,0,.08.06.09,0,.06.07.11,0,0,.07.12,0,0,.08.13,0,0c1.13,1.91,2.26,3.79,3.43,5.69a2,2,0,0,0,1.69.94,2,2,0,0,0,1.71-3.05c-2.06-3.37-4.11-6.81-6.09-10.23a2,2,0,0,0-1.74-1Zm12.48,20.39a1.94,1.94,0,0,0-1.08.32,2,2,0,0,0-.61,2.75q2.38,3.69,4.81,7.33l1.82,2.69a2,2,0,0,0,2.78.53,2,2,0,0,0,.53-2.78c-2.22-3.27-4.43-6.61-6.57-9.93a2,2,0,0,0-1.68-.91Zm13.42,19.78a2,2,0,0,0-1.63,3.16q3.26,4.57,6.61,9.06l0,0,.09.12,0,0,0,.07.06.08,0,0,.09.12,0,0,.08.12a2,2,0,0,0,1.6.8,2,2,0,0,0,1.6-3.2c-2.37-3.16-4.73-6.4-7-9.61a2,2,0,0,0-1.63-.84Zm14.33,19.13a2,2,0,0,0-1.23.43,2,2,0,0,0-.34,2.81q1.62,2.05,3.26,4.1h0l.1.13,0,0,.1.12,0,0,.09.11,0,0,.08.1,0,.05.08.1,0,0,.08.09,0,.05.08.1,0,0,.07.09,0,.06.07.09,0,.06.06.08.06.07.06.07.06.08,0,.06.07.09.06.07.06.07,0,.07.07.08.06.07.06.08,0,.06.07.09.05.06.07.08,0,.07.06.08.06.07.06.07.06.07.06.08.06.07.06.07.06.08,0,.06.08.09,0,.05.07.09,0,.06.08.09,0,0,.09.1,0,0,.09.11,0,0,.1.13v0l1,1.14a2,2,0,0,0,3.08-2.54c-2.51-3-5-6.17-7.47-9.28a2,2,0,0,0-1.57-.76Zm15.21,18.44a2,2,0,0,0-1.3.49,2,2,0,0,0-.21,2.82c1.68,1.93,3.36,3.86,5.07,5.77h0l.1.12,0,0,.1.11,0,0,.09.1,0,0,.08.1,0,0,.08.09,0,.06.08.08,0,.06.07.08,0,.06.07.08.06.06.07.08,0,.06.08.09,0,0,.08.09,0,0,.09.11,0,0,.1.11,0,0,.1.11,0,0,.11.12,0,0,.12.13h0c.29.32.58.65.88,1a2,2,0,0,0,2.82.14,2,2,0,0,0,.14-2.83c-2.65-2.92-5.31-5.92-7.89-8.91a2,2,0,0,0-1.52-.69Zm16.06,17.71A2,2,0,0,0,1802,1541q4.14,4.35,8.38,8.61a2,2,0,0,0,1.41.59,2,2,0,0,0,1.42-.58,2,2,0,0,0,0-2.83c-2.79-2.8-5.58-5.67-8.3-8.54a2,2,0,0,0-1.45-.62Zm16.87,16.94A2,2,0,0,0,1819,1558l.09.08,0,0,.11.1,0,0,.11.11,0,0q3.44,3.29,6.92,6.49h0l.14.12h0l.13.13h0l.13.12h0l.13.12h0l.12.12h0l.12.12h0l.12.12h0l.12.11,0,0,.12.11,0,0,.11.1,0,0,0,0a2,2,0,1,0,2.7-3c-2.91-2.67-5.84-5.41-8.69-8.14a2,2,0,0,0-1.38-.56Zm17.63,16.14a2,2,0,0,0-1.31,3.5l2.12,1.85h0l.14.11,0,0,.12.1,0,0,.11.09,0,0,.09.08.07,0,.07.07.08.06.06.06.09.08,0,0,.1.09,0,0,.13.11h0l.13.11h0c1.4,1.2,2.79,2.38,4.2,3.56h0l.13.11.06,0,.08.06.13.11h0l1,.84a2,2,0,1,0,2.56-3.08c-3-2.52-6.08-5.12-9.06-7.72a2,2,0,0,0-1.32-.49Zm18.38,15.29a2,2,0,0,0-1.25,3.57h0l.09.07.06.05.07.06.08.06.06,0,.09.07,0,0,.11.09,0,0,.12.1,0,0,.13.09,0,0,.13.1h0l.14.11,0,0,.12.09,0,0,.11.09,0,0,.11.09,0,0,.12.1,0,0,.12.09,0,0,.12.09,0,0,.11.09,0,0,.11.09,0,0,.1.08,0,0,.09.07.07,0,.08.07.07,0,.08.06.07.06.07,0,.09.07.06,0,.09.07,0,0,.1.07.05,0,.1.08,0,0,.12.09,0,0,.12.1h0l.13.1h0c1.57,1.23,3.16,2.45,4.75,3.65l0,0,.1.07.46.35a2,2,0,1,0,2.41-3.19c-3.15-2.39-6.32-4.84-9.41-7.3a2,2,0,0,0-1.24-.43Zm19.06,14.42a2,2,0,0,0-1.17,3.62q2.2,1.59,4.43,3.15h0l.14.09,0,0,.12.08,0,0,.1.07.06,0,.1.07.06,0,.09.06.07,0,.08.06.07,0,.08,0,.08.06.07,0,.09.06.06,0,.1.08.05,0,.11.08,0,0,.11.08,0,0,.12.09,0,0,.12.09,0,0,.13.09h0l.14.1h0l.14.1h0c1,.66,1.89,1.32,2.85,2a1.93,1.93,0,0,0,1.12.35,2,2,0,0,0,1.13-3.65c-3.25-2.23-6.53-4.54-9.74-6.84a2,2,0,0,0-1.17-.38Zm19.73,13.51a2,2,0,0,0-1.1,3.67l1.57,1c2.14,1.38,4.27,2.73,6.42,4.08h0l.14.09h0l.13.08,0,0,.11.06.06,0,.09.06.08,0,.06,0,.1.06,0,0,.12.08h0l1.11.68a2,2,0,0,0,2.1-3.4c-3.36-2.08-6.74-4.22-10-6.38a2,2,0,0,0-1.09-.32Zm20.33,12.56a2,2,0,0,0-1,3.73l.48.27h0l.08,0q4.58,2.67,9.21,5.25l0,0,.12.07.49.27a2,2,0,0,0,1.94-3.5c-3.45-1.91-6.93-3.9-10.34-5.89a2,2,0,0,0-1-.28Zm20.91,11.59a2,2,0,0,0-.93,3.78q5.31,2.78,10.69,5.44a2,2,0,1,0,1.77-3.59c-3.54-1.75-7.11-3.56-10.61-5.4a2,2,0,0,0-.92-.23Zm21.43,10.59a2,2,0,0,0-.86,3.81q4.43,2.05,8.9,4l.11,0,.06,0,1.88.82a1.89,1.89,0,0,0,.8.17,2,2,0,0,0,.8-3.83c-3.62-1.58-7.27-3.23-10.85-4.89a2,2,0,0,0-.84-.19Zm21.9,9.56a2,2,0,0,0-.75,3.85q5.55,2.27,11.16,4.4a2,2,0,0,0,.71.13,2,2,0,0,0,.71-3.87c-3.69-1.4-7.41-2.87-11.07-4.36a1.84,1.84,0,0,0-.76-.15Zm22.34,8.49a2,2,0,0,0-.68,3.89q5.67,2,11.39,3.86a1.86,1.86,0,0,0,.61.1,2,2,0,0,0,.62-3.9c-3.75-1.23-7.54-2.52-11.27-3.83a2,2,0,0,0-.67-.12Zm22.73,7.42a2,2,0,0,0-.58,3.92q5.74,1.73,11.54,3.31a1.88,1.88,0,0,0,.53.07,2,2,0,0,0,.52-3.93c-3.81-1-7.66-2.15-11.44-3.28a1.88,1.88,0,0,0-.57-.09Zm23,6.32a2,2,0,0,0-.49,3.94l3,.74h0l.19.05h0l.18,0h0l.18,0h0l.15,0h.05l.14,0h0l.15,0h0l.19,0,.33.08h0l.16,0h0l.15,0h0l.15,0h0l.15,0h0l.14,0h0l.14,0h0l.14,0h0l.14,0h.05l.14,0h0l.14,0h.05l.14,0h0l.14,0h0l.15,0h0l.14,0,0,0,.13,0h.06l.13,0,.06,0,.12,0,.09,0,.09,0,.12,0,.06,0,.16,0h0l3.32.75a2,2,0,0,0,.86-3.91c-3.86-.85-7.76-1.77-11.59-2.72a2,2,0,0,0-.48-.06Zm23.33,5.19a2,2,0,0,0-.39,4h0l.15,0h0l.16,0h0l.16,0h0l.17,0h0l.17,0h0l.18,0h0l.17,0h0l.18,0h0l1.44.27h0l.14,0h0l.13,0h.06l.12,0,.07,0,.1,0h.1l.09,0,.1,0,.08,0,.11,0h.08l.11,0,.07,0,.13,0h.06l.13,0h.06l.13,0h.06l.14,0h0l.16,0h0l.17,0h0l.18,0h0l1.74.32h0l.18,0h0l.16,0h0l.14,0h.07l.12,0h.07l.12,0h.08l.1,0,.09,0,.09,0h.11l.07,0,.13,0h.05l.14,0h0l2.57.45.34,0a2,2,0,0,0,.34-4c-3.89-.67-7.83-1.4-11.7-2.17a2.72,2.72,0,0,0-.39,0Zm23.55,4.07a2,2,0,0,0-.29,4q3.33.49,6.68.94h0l.17,0h0l.16,0h0l.14,0h.05l.14,0h.25l.12,0h.28l.09,0h.19l.15,0h0l3.38.43.24,0a2,2,0,0,0,.24-4c-3.92-.48-7.89-1-11.8-1.6l-.29,0Zm23.72,2.93a2,2,0,0,0-.19,4l2.41.23h0l.15,0h.73l.12,0h.64c2.63.24,5.26.46,7.91.66h.14a2,2,0,0,0,.14-4c-3.94-.3-7.93-.64-11.86-1Zm23.84,1.78a2,2,0,0,0-.1,4l5,.23h1.1c2,.08,3.9.14,5.87.19h0a2,2,0,0,0,.06-4c-4-.11-8-.27-11.9-.47Zm35.85.54h0c-3.44.07-6.94.11-10.39.11h-1.52a2,2,0,0,0,0,4h4.68q3.68,0,7.34-.1a2,2,0,0,0,0-4Zm23.88-1.07h-.13c-3.94.27-7.94.49-11.89.67a2,2,0,0,0,.09,4h.07l2.57-.13h.66q3.36-.16,6.71-.39h.85l1.22-.08a2,2,0,0,0-.15-4Zm23.8-2.21h-.23c-3.92.46-7.91.88-11.84,1.25a2,2,0,0,0,.18,4h.18c2.38-.22,4.74-.46,7.11-.71h.38l.14,0h0l.16,0h0l.17,0h0l.18,0h0l3.72-.42a2,2,0,0,0-.23-4Zm23.67-3.35-.33,0c-3.9.64-7.85,1.25-11.77,1.81a2,2,0,0,0,.28,4l.29,0,5-.74h0l.17,0h0l.15,0h0l.14,0h.05l.13,0h.07l.12,0h.07l.11,0h.19l.09,0h.1l.11,0h.07l.16,0h0c1.69-.26,3.35-.53,5-.81a2,2,0,0,0-.34-4Zm23.48-4.49a2.09,2.09,0,0,0-.43,0c-3.86.84-7.78,1.64-11.66,2.38a2,2,0,0,0,.37,4,2.58,2.58,0,0,0,.38,0c1.27-.24,2.55-.49,3.82-.75h0l.11,0,.08,0h.1l.09,0,.08,0,.12,0h.06l.13,0h0l.14,0h.05l.15,0h0l.16,0h0l.17,0h0l.18,0h0c2.05-.42,4.11-.85,6.15-1.29a2,2,0,0,0-.43-4Zm23.23-5.62a1.86,1.86,0,0,0-.52.07c-3.82,1-7.7,2-11.54,2.94a2,2,0,0,0,.47,3.94,2.42,2.42,0,0,0,.47-.05q5.85-1.42,11.63-3a2,2,0,0,0-.51-3.94Zm22.93-6.72a2.15,2.15,0,0,0-.61.09c-3.76,1.2-7.59,2.38-11.38,3.49a2,2,0,0,0,.56,3.92,2.24,2.24,0,0,0,.57-.08l1.44-.43h0l.17,0h0l.15,0h.05l.13,0,.06,0,.11,0,.09,0,.09,0,.11,0,.07,0,.13,0,0,0,.16,0h0l.16,0h0l2.22-.68h0l.18,0h0l.18,0h0l.17-.06h0l.15-.05h0l.14,0h0l.14,0,0,0,.14,0h.05l.13,0,.06,0,.12,0,.06,0,.12,0,.07,0,.12,0,.06,0,.11,0,.08,0,.1,0,.08,0,.1,0,.08,0,.1,0,.09,0,.09,0,.09,0,.09,0,.09,0,.09,0,.09,0,.1,0,.08,0,.08,0,.11,0,.11,0,.07,0,.36-.12h0l.17-.06h0l.16-.05h0l.18,0h0l1.4-.44a2,2,0,0,0-.62-3.9Zm22.59-7.83a1.89,1.89,0,0,0-.7.13c-3.7,1.38-7.47,2.74-11.2,4a2,2,0,0,0,.65,3.89,1.81,1.81,0,0,0,.65-.11q4-1.38,8-2.83h0l.16-.06h0l.13-.05.07,0,.1,0,.11,0,.07,0,.14,0h0l2.5-.93a2,2,0,0,0-.71-3.87Zm22.18-8.89a2,2,0,0,0-.79.16c-3.63,1.56-7.33,3.09-11,4.56a2,2,0,0,0,.74,3.86,2.21,2.21,0,0,0,.75-.14q5.57-2.23,11.08-4.6a2,2,0,0,0-.79-3.84Zm21.74-9.94a2,2,0,0,0-.88.2c-3.55,1.73-7.17,3.44-10.76,5.08a2,2,0,0,0,.83,3.82,2,2,0,0,0,.82-.18c1.8-.82,3.61-1.66,5.4-2.51h0l.17-.08h0l.16-.08h0l.15-.07h0l.14-.06,0,0,.14-.07h0l.13-.06,0,0,.12,0,.06,0,.1-.05.07,0,.08,0,.1,0,0,0,3.84-1.86a2,2,0,0,0-.87-3.79Zm21.24-11a1.94,1.94,0,0,0-1,.25c-3.47,1.89-7,3.77-10.51,5.58a2,2,0,0,0,.91,3.78,2,2,0,0,0,.92-.22c1.91-1,3.81-2,5.71-3l0,0,.14-.07,0,0,.13-.07,0,0,.11,0,.07,0,.08,0,.1-.05.06,0,.11-.06,0,0,.13-.07h0l.15-.08h0l3.63-2a2,2,0,0,0-1-3.76Zm20.69-12a2,2,0,0,0-1,.3c-3.37,2-6.81,4.1-10.23,6.07a2,2,0,0,0,2,3.47h0l.1-.06.06,0,.15-.09h0c2.17-1.25,4.32-2.52,6.47-3.81h0l.14-.09.06,0,.1,0,.12-.07,0,0,3.07-1.86a2,2,0,0,0-1.06-3.7Zm20.11-12.92a1.92,1.92,0,0,0-1.11.35c-3.28,2.21-6.62,4.41-9.94,6.55a2,2,0,0,0,1.08,3.68,2,2,0,0,0,1.07-.31l.05,0h0q5-3.23,10-6.57a2,2,0,0,0-1.13-3.66Zm19.49-13.85a2,2,0,0,0-1.2.4c-3.16,2.36-6.4,4.72-9.62,7a2,2,0,0,0,1.16,3.63,2,2,0,0,0,1.15-.36l1.9-1.36h0l.15-.11h0l.15-.11h0l.14-.1h0l.13-.09,0,0,.12-.09,0,0,.11-.08.05,0,.1-.08.05,0,.1-.07.06,0,.09-.07.06,0,.1-.07.06,0,.09-.07.06,0,.09-.07.07,0,.08-.06.07,0,.08-.06.08-.05.08-.06.07,0,.08-.06.07-.05.08-.06.08,0,.07-.06.08,0,.08-.06.07,0,.08-.06.07-.06.08-.05.08-.06.07,0,.08-.06.07,0,.08-.06.07,0,.09-.07.05,0,.1-.07.06,0,.09-.07.06,0,.09-.07.06,0,.1-.07,0,0,.1-.07,0,0,.1-.08,0,0,.12-.09,0,0,.12-.09h0l.14-.1,0,0,2.7-2a2,2,0,0,0-1.2-3.6Zm18.81-14.75a2,2,0,0,0-1.27.46c-3,2.51-6.17,5-9.28,7.45a2,2,0,1,0,2.47,3.15l.56-.44,0,0,.05,0,.1-.07h0c1.84-1.45,3.66-2.91,5.48-4.38h0l.14-.12h0l.14-.11,0,0,.12-.1,0,0,.11-.09,0,0,.11-.09,0,0,.09-.08.07,0,.07-.06.08-.06.06,0,.09-.08,0,0,.11-.09,0,0,.12-.1h0l1.59-1.3a2,2,0,0,0-1.27-3.55Zm18.1-15.61a2,2,0,0,0-1.34.52c-2.93,2.65-5.93,5.3-8.92,7.88a2,2,0,0,0-.21,2.82,2,2,0,0,0,1.51.69,2,2,0,0,0,1.31-.48l3.53-3.08c1.84-1.61,3.66-3.24,5.47-4.87a2,2,0,0,0-1.35-3.48Zm17.36-16.44a2,2,0,0,0-1.41.58c-2.81,2.78-5.68,5.57-8.55,8.29a2,2,0,0,0-.08,2.83,2,2,0,0,0,1.46.62,2,2,0,0,0,1.37-.55l1.35-1.28,0,0,.11-.1,0,0,.09-.09.06,0,.07-.07.07-.07.05,0,.1-.09,0,0,.12-.11h0c2.19-2.1,4.35-4.21,6.51-6.35a2,2,0,0,0-1.41-3.42Zm16.57-17.23a2,2,0,0,0-1.48.65c-2.67,2.91-5.41,5.83-8.15,8.68a2,2,0,0,0,.06,2.82,1.94,1.94,0,0,0,1.38.56,2,2,0,0,0,1.44-.61q2-2.1,4-4.21h0l.11-.11,0,0,.1-.11,0,0,.1-.1,0,0,.08-.09,0,0,.09-.09.05-.06.07-.07.06-.07.06-.07.07-.07.05-.06.08-.08.05,0,.09-.09,0,0,.1-.1,0,0,.1-.12,0,0,.11-.11,0,0,2.62-2.84a2,2,0,0,0-1.48-3.34Zm15.74-18a2,2,0,0,0-1.53.72c-2.53,3-5.14,6.08-7.74,9a2,2,0,0,0,1.5,3.32,2,2,0,0,0,1.5-.68q4-4.52,7.82-9.14a2,2,0,0,0-1.55-3.27Zm14.89-18.7a2,2,0,0,0-1.59.79c-2.39,3.15-4.85,6.31-7.31,9.4a2,2,0,0,0,.32,2.81,2,2,0,0,0,2.81-.32q3.73-4.68,7.36-9.47a2,2,0,0,0-.38-2.8,2,2,0,0,0-1.21-.41Zm14-19.38a2,2,0,0,0-1.65.87c-2.24,3.25-4.54,6.53-6.86,9.73a2,2,0,0,0,.45,2.8,2.05,2.05,0,0,0,1.17.37,2,2,0,0,0,1.62-.82q3.53-4.87,6.92-9.82a2,2,0,0,0-.52-2.78,2.06,2.06,0,0,0-1.13-.35Zm13.07-20a2,2,0,0,0-1.7.94c-2.08,3.36-4.23,6.74-6.39,10a2,2,0,0,0,.58,2.77,2,2,0,0,0,1.09.32,2,2,0,0,0,1.68-.9c1.22-1.89,2.44-3.77,3.64-5.67h0l.09-.14,0,0,.07-.11,0-.06.05-.09,0-.08,0-.06.07-.12,0,0,.08-.14h0l.1-.15h0c.72-1.14,1.44-2.28,2.15-3.43a2,2,0,0,0-.66-2.74,2,2,0,0,0-1.05-.3Zm12.11-20.61a2,2,0,0,0-1.75,1c-1.92,3.45-3.9,6.93-5.91,10.33a2,2,0,1,0,3.45,2l1-1.72,0-.07,0,0,.07-.12h0c1.41-2.42,2.78-4.83,4.15-7.28v0l.06-.1,0-.07,0,0c.18-.31.35-.63.53-1a2,2,0,0,0-.77-2.72,2,2,0,0,0-1-.25Zm11.13-21.16a2,2,0,0,0-1.79,1.12c-1.76,3.53-3.58,7.1-5.42,10.6a2,2,0,0,0,.84,2.7,1.94,1.94,0,0,0,.93.23,2,2,0,0,0,1.76-1.06q1.89-3.57,3.71-7.19l0,0,.07-.14v0l.07-.15,0,0,.06-.12,0,0,0-.11,0-.07.05-.11,0,0,.05-.11,0-.07.05-.1,0-.07.05-.1,0-.07,0-.1,0-.07,0-.1,0-.07,0-.1,0-.07,0-.1,0-.06,0-.12,0,0,.06-.13,0,0,.07-.14v0l.07-.14v0c.13-.26.25-.51.38-.76a2,2,0,0,0-.9-2.68,2,2,0,0,0-.89-.21Zm10.11-21.66a2,2,0,0,0-1.84,1.2c-1.58,3.62-3.23,7.27-4.9,10.85a2,2,0,0,0,1,2.66,2.18,2.18,0,0,0,.85.19,2,2,0,0,0,1.81-1.16l1.26-2.72h0l.08-.17h0l.07-.16v0l.07-.15v0l.06-.14,0,0,.06-.14,0,0,.06-.13,0,0,.06-.13,0,0,.05-.13,0,0,.05-.12,0,0,.06-.12,0-.05.06-.12,0,0,.05-.12,0-.06.05-.11,0-.06.05-.11,0-.07,0-.1,0-.07,0-.1,0-.08,0-.09,0-.08,0-.1,0-.07,0-.1,0-.08,0-.09.05-.09,0-.08,0-.1,0-.07,0-.1,0-.08.05-.11,0-.06.06-.12,0-.05.06-.13,0,0,.07-.15v0c.55-1.21,1.08-2.42,1.61-3.64a2,2,0,0,0-1-2.62,2.09,2.09,0,0,0-.8-.17Zm9.06-22.11a2,2,0,0,0-1.87,1.28c-1.41,3.69-2.88,7.42-4.38,11.07a2,2,0,0,0,1.09,2.61,2.06,2.06,0,0,0,.76.15,2,2,0,0,0,1.84-1.23c.49-1.19,1-2.37,1.45-3.56v0l.07-.15v0l.06-.14v0l0-.13,0-.06.05-.11,0-.07,0-.1,0-.08,0-.09,0-.1,0-.07.05-.11,0,0,.05-.13v0l.06-.14v0l.06-.15h0l.06-.16h0c.37-.92.73-1.84,1.09-2.76v0l0-.14,0,0,0-.12,0-.06,0-.11,0-.07,0-.09,0-.1,0-.07,0-.11,0-.06.05-.13,0,0,0-.15v0c.2-.51.39-1,.58-1.51a2,2,0,0,0-1.16-2.57,1.94,1.94,0,0,0-.71-.13Zm8-22.53a2,2,0,0,0-1.9,1.38c-1.23,3.75-2.52,7.54-3.84,11.26a2,2,0,0,0,1.21,2.56,2,2,0,0,0,.67.11,2,2,0,0,0,1.88-1.32c.64-1.79,1.26-3.57,1.87-5.37v0l.05-.15,0,0,0-.14,0-.06,0-.11,0-.08,0-.1,0-.09,0-.08,0-.11,0-.06,0-.13,0,0,0-.13,0,0,.05-.15v0l.06-.16h0c.48-1.42,1-2.84,1.42-4.27a2,2,0,0,0-1.9-2.62ZM2653,1324a2,2,0,0,0-1.92,1.47c-1,3.8-2.16,7.65-3.3,11.43a2,2,0,0,0,1.33,2.5,2.38,2.38,0,0,0,.58.08,2,2,0,0,0,1.91-1.41c.57-1.89,1.13-3.77,1.68-5.67h0l0-.17v0l.05-.16v0l0-.16v0l0-.14,0,0,0-.13,0-.07,0-.11,0-.07,0-.11,0-.08,0-.09,0-.09,0-.08,0-.12v0l0-.14v0c.37-1.32.74-2.64,1.1-4A2,2,0,0,0,2653,1324Zm5.8-23.19a2,2,0,0,0-2,1.56c-.87,3.85-1.79,7.75-2.75,11.58a2,2,0,0,0,1.46,2.43,2,2,0,0,0,.48.06A2,2,0,0,0,2658,1315q1.28-5.12,2.45-10.25v0l0-.15v-.07l0-.11,0-.1,0-.08,0-.12V1304l0-.14v0l0-.16v0c0-.11,0-.23.08-.35a2,2,0,0,0-1.51-2.39,1.7,1.7,0,0,0-.44-.05Zm4.67-23.44a2,2,0,0,0-2,1.65c-.68,3.89-1.41,7.83-2.19,11.71a2,2,0,0,0,1.58,2.35,2.58,2.58,0,0,0,.39,0,2,2,0,0,0,2-1.6c.25-1.3.51-2.61.76-3.91h0l0-.18v0l0-.16v0l0-.16v0l0-.15v0l0-.15v0l0-.14v0l0-.13v-.06l0-.13,0-.07,0-.12v-.07l0-.12,0-.07,0-.12v-.07l0-.11,0-.08,0-.11v-.08l0-.1,0-.09v-.08l.12-.65v0l0-.16v0l0-.16v0l0-.16v0l0-.16v0l0-.16v0l0-.16v0l0-.17h0l0-.17v0l0-.17h0c.16-.92.33-1.85.49-2.77a2,2,0,0,0-1.63-2.31,2,2,0,0,0-.34,0Zm3.53-23.64a2,2,0,0,0-2,1.75c-.49,3.92-1,7.89-1.62,11.79a2,2,0,0,0,1.68,2.28l.3,0a2,2,0,0,0,2-1.69c.6-4,1.14-7.92,1.64-11.92a2,2,0,0,0-1.74-2.22Zm2.39-23.78a2,2,0,0,0-2,1.84c-.3,3.94-.65,7.93-1.05,11.86a2,2,0,0,0,1.79,2.19h.2a2,2,0,0,0,2-1.79q.6-6,1.06-12a2,2,0,0,0-1.84-2.13Zm1.25-23.87a2,2,0,0,0-2,1.94c-.11,4-.27,8-.48,11.9a2,2,0,0,0,1.9,2.1h.1a2,2,0,0,0,2-1.88c.05-1,.1-1.91.14-2.87v-1.07h0c.12-2.68.22-5.37.29-8a2,2,0,0,0-1.94-2.06Zm2.21-12.24h-9.71a2,2,0,0,0,0,4h6.66a2,2,0,0,0,1,.29h0a2.06,2.06,0,0,0,1-.29h.95c0-1.33,0-2.66,0-4Zm-21.71,0h-12a2,2,0,0,0,0,4h12a2,2,0,0,0,0-4Zm-24,0h-12a2,2,0,0,0,0,4h12a2,2,0,0,0,0-4Zm-24,0h-12a2,2,0,0,0,0,4h12a2,2,0,0,0,0-4Zm-24,0h-12a2,2,0,0,0,0,4h12a2,2,0,0,0,0-4Zm-24,0h-12a2,2,0,0,0,0,4h12a2,2,0,0,0,0-4Zm-24,0h-12a2,2,0,0,0,0,4h12a2,2,0,0,0,0-4Zm-24,0h-12a2,2,0,0,0,0,4h12a2,2,0,0,0,0-4Zm-24,0h-12a2,2,0,0,0,0,4h12a2,2,0,0,0,0-4Zm-24,0h-12a2,2,0,0,0,0,4h12a2,2,0,0,0,0-4Zm-24,0h-12a2,2,0,0,0,0,4h12a2,2,0,0,0,0-4Zm-24,0h-12a2,2,0,0,0,0,4h12a2,2,0,0,0,0-4Zm-24,0h-12a2,2,0,0,0,0,4h12a2,2,0,0,0,0-4Zm-24,0h-12a2,2,0,0,0,0,4h12a2,2,0,0,0,0-4Zm-24,0h-12a2,2,0,0,0,0,4h12a2,2,0,0,0,0-4Zm-24,0h-12a2,2,0,0,0,0,4h12a2,2,0,0,0,0-4Zm-24,0h-12a2,2,0,0,0,0,4h12a2,2,0,0,0,0-4Zm-24,0h-12a2,2,0,0,0,0,4h12a2,2,0,0,0,0-4Zm-24,0h-12a2,2,0,0,0,0,4h12a2,2,0,0,0,0-4Zm-24,0h-12a2,2,0,0,0,0,4h12a2,2,0,0,0,0-4Zm-24,0h-12a2,2,0,0,0,0,4h12a2,2,0,0,0,0-4Zm-26.06-10.68a2,2,0,0,0-1.85,1.24l-3.23,7.93-2.25,5.51h9.39a2,2,0,0,0,0-4h-3.44l3.23-7.93a2,2,0,0,0-1.09-2.6,2,2,0,0,0-.76-.15Zm9.08-22.22a2,2,0,0,0-1.86,1.24l-4.53,11.11a2,2,0,0,0,1.09,2.61,2.06,2.06,0,0,0,.76.15,2,2,0,0,0,1.85-1.23l3.11-7.62c.79-2,1.43-3.5,1.43-3.5a2,2,0,0,0-1.85-2.76Zm9.07-22.22a2,2,0,0,0-1.85,1.24l-4.54,11.11a2,2,0,0,0,1.1,2.61,2,2,0,0,0,.75.15,2,2,0,0,0,1.85-1.24s.61-1.5,1.39-3.39l3.16-7.74a2,2,0,0,0-1.11-2.59,2,2,0,0,0-.75-.15Zm9.07-22.22a2,2,0,0,0-1.85,1.24l-4.54,11.11a2,2,0,0,0,1.1,2.61,2,2,0,0,0,.75.15,2,2,0,0,0,1.85-1.24l3.88-9.5h0v0h0l0-.06h0l.08-.2v0h0l0-.08h0l0,0v0h0v0l0,0h0v0h0l0,0h0v0h0v0h0l0-.06,0,0c.18-.43.28-.69.28-.69a2,2,0,0,0-1.09-2.61,2.06,2.06,0,0,0-.76-.15Zm9.07-22.22a2,2,0,0,0-1.85,1.25l-4.54,11.11a2,2,0,0,0,3.71,1.51l2.69-6.59,1.85-4.53a2,2,0,0,0-1.1-2.6,2.06,2.06,0,0,0-.76-.15Zm9.07-22.22a2,2,0,0,0-1.85,1.25l-4.53,11.11a2,2,0,0,0,1.09,2.6,2,2,0,0,0,2.61-1.08l2.24-5.51v0h0l2.29-5.59a2,2,0,0,0-1.86-2.76Zm9.08-22.22a2,2,0,0,0-1.86,1.25l-4.53,11.11a2,2,0,0,0,1.09,2.6,1.87,1.87,0,0,0,.76.15,2,2,0,0,0,1.85-1.24s2.22-5.43,3.55-8.7h0v0l1-2.36a2,2,0,0,0-1.85-2.76Zm9.07-22.22a2,2,0,0,0-1.85,1.25L2226.2,1040a2,2,0,0,0,1.1,2.6,1.8,1.8,0,0,0,.75.15,2,2,0,0,0,1.85-1.24h0l4.53-11.09a2,2,0,0,0-1.1-2.61,2,2,0,0,0-.75-.15Zm9.07-22.22a2,2,0,0,0-1.85,1.25l-4.54,11.11a2,2,0,0,0,3.7,1.52l4.55-11.13a2,2,0,0,0-1.1-2.6,2.06,2.06,0,0,0-.76-.15Zm9.07-22.22a2,2,0,0,0-1.85,1.25l-4.54,11.11a2,2,0,1,0,3.71,1.51l4.53-11.11a2,2,0,0,0-1.09-2.61,2.06,2.06,0,0,0-.76-.15ZM2259.8,961a2,2,0,0,0-1.85,1.24l-4.53,11.11a2,2,0,0,0,1.09,2.61,2.06,2.06,0,0,0,.76.15,2,2,0,0,0,1.84-1.23l4.55-11.13a2,2,0,0,0-1.86-2.75Zm9.08-22.22A2,2,0,0,0,2267,940l-4.53,11.11a2,2,0,0,0,1.09,2.61,2.06,2.06,0,0,0,.76.15,2,2,0,0,0,1.85-1.25l4.54-11.11a2,2,0,0,0-1.85-2.75Zm9.07-22.22a2,2,0,0,0-1.85,1.24l-4.54,11.11a2,2,0,0,0,1.1,2.61,2,2,0,0,0,.75.15,2,2,0,0,0,1.85-1.24l4.54-11.12a2,2,0,0,0-1.1-2.6,1.8,1.8,0,0,0-.75-.15Zm9.07-22.22a2,2,0,0,0-1.85,1.24l-4.54,11.11a2,2,0,1,0,3.71,1.51s.86-2.12,1.84-4.5l2.7-6.62a2,2,0,0,0-1.1-2.59,2.06,2.06,0,0,0-.76-.15Zm9.07-22.22a2,2,0,0,0-1.85,1.24l-4.54,11.11a2,2,0,1,0,3.71,1.51l.09-.21h0l.16-.4h0v0h0v0h0v0h0l.05-.13v-.09h0l0,0v0l0,0v0h0l0-.08v0l4-9.91a2,2,0,0,0-1.09-2.6,2.06,2.06,0,0,0-.76-.15Zm9.08-22.22a2,2,0,0,0-1.86,1.24l-4.53,11.11a2,2,0,0,0,1.09,2.61,2.06,2.06,0,0,0,.76.15,2,2,0,0,0,1.85-1.25l1.95-4.77h0l0,0v0h0l2.55-6.25a2,2,0,0,0-1.85-2.75Zm9.07-22.22a2,2,0,0,0-1.86,1.24L2307.85,840a2,2,0,0,0,1.09,2.61,2.06,2.06,0,0,0,.76.15,2,2,0,0,0,1.85-1.24l4.54-11.12a2,2,0,0,0-1.85-2.75Zm9.07-22.22a2,2,0,0,0-1.85,1.24l-4.54,11.11a2,2,0,0,0,1.1,2.61,2,2,0,0,0,.75.15,2,2,0,0,0,1.85-1.24l2.36-5.77,2.19-5.36a2,2,0,0,0-1.11-2.59,2,2,0,0,0-.75-.15Zm9.07-22.22a2,2,0,0,0-1.85,1.25L2326,795.6a2,2,0,0,0,3.71,1.52l4.53-11.11a2,2,0,0,0-1.09-2.61,2.06,2.06,0,0,0-.76-.15Zm9.07-22.22a2,2,0,0,0-1.85,1.25l-4.54,11.11a2,2,0,0,0,3.71,1.51s1.64-4,2.94-7.22l0,0v0l1.58-3.85a2,2,0,0,0-1.86-2.75Zm9.08-22.22a2,2,0,0,0-1.86,1.25l-4.53,11.11a2,2,0,0,0,1.09,2.6,1.87,1.87,0,0,0,.76.15,2,2,0,0,0,1.85-1.24l.47-1.15v0l0-.09h0c1.2-2.92,4-9.83,4-9.83a2,2,0,0,0-1.85-2.76Zm.5-15.49a2,2,0,0,0-.73,3.87l3.12,1.23-.21.53a2,2,0,0,0,1.09,2.6,1.87,1.87,0,0,0,.76.15,2,2,0,0,0,1.85-1.23l1.74-4.26h0q-3.43-1.4-6.9-2.75a2,2,0,0,0-.72-.14Zm-22.46-8.18a2,2,0,0,0-.64,3.9c3.75,1.26,7.53,2.59,11.24,3.94a2,2,0,0,0,1.37-3.76q-5.64-2.06-11.33-4a2.05,2.05,0,0,0-.64-.11Zm-22.82-7.1a2,2,0,0,0-.55,3.93c3.8,1.08,7.64,2.22,11.41,3.4a2.06,2.06,0,0,0,.59.09,2,2,0,0,0,.61-3.91q-4-1.23-7.93-2.39h0l-.15,0-.07,0-.1,0-.1,0-.08,0-.11,0-.07,0-.12,0H2309l-.14,0,0,0-.14,0h0l-.15,0h0l-.15,0h0l-.16-.05h0l-.17,0h0l-.16,0h0l-.16,0h0l-.18-.05h0l-.18,0h0l-.17,0h0l-.16,0h0l-.16,0h0l-.16-.05h0l-.16,0h0a2.15,2.15,0,0,0-.55-.08Zm-23.14-6a2,2,0,0,0-.45,4c3.84.9,7.73,1.86,11.56,2.86a2.07,2.07,0,0,0,.5.06,2,2,0,0,0,.51-3.93q-2.66-.69-5.32-1.35h0l-.15,0h-.06l-.12,0-.08,0-.1,0-.11,0-.06,0-.14,0h0l-.15,0h0l-.16,0h0l-5.1-1.23a2.4,2.4,0,0,0-.46-.05Zm-23.39-4.9a2,2,0,0,0-.36,4c3.88.72,7.81,1.5,11.68,2.31a1.9,1.9,0,0,0,.41,0,2,2,0,0,0,.41-4l-.38-.08h0l-.17,0-.07,0-.11,0-.13,0h0l-.17,0h0l-.16,0h0l-.17,0h0q-5.14-1.06-10.31-2l-.36,0Zm-23.6-3.79a2,2,0,0,0-.27,4c3.91.53,7.88,1.12,11.78,1.75l.32,0a2,2,0,0,0,.32-4c-4-.64-7.92-1.22-11.9-1.77Zm-23.76-2.66a2,2,0,0,0-.17,4c3.94.34,7.92.74,11.85,1.18l.22,0a2,2,0,0,0,.23-4q-6-.68-12-1.2ZM2188,689.14a2,2,0,0,0-.08,4c4,.16,8,.37,11.89.62h.13a2,2,0,0,0,.14-4c-2.05-.13-4.09-.25-6.14-.35h-.83l-4.46-.2H2188Zm-20.31-.41h-9.2c-.93,0-1.87,0-2.8.06a2,2,0,0,0,.05,4h0c3.95-.09,8-.14,11.91-.14h0c2.76,0,5.57,0,8.33.07h0a2,2,0,0,0,0-4l-5.64-.06h-2.76Z" transform="translate(2 -142.59)"/></g><g class="cls-1"><circle class="cls-3" cx="1350.83" cy="1026.47" r="253.46"/></g><g class="cls-1"><path class="cls-2" d="M780.91,643.76h-.19c-2.87.27-5.73.58-8.57,1h-.73l-2.63.36a2,2,0,0,0,.29,4l.28,0c3.88-.55,7.83-1,11.73-1.38a2,2,0,0,0-.18-4Zm-23.57,3.33-.37,0-1,.19h0l-.19,0h0l-.1,0h-.37l-.08,0h0l-.09,0h0l-.09,0h0l-.09,0h0l-3.66.75h0l-.07,0h-.08l-.05,0h0l-.06,0h0l0,0h0l-.06,0h0l-.07,0h-.22q-2.62.56-5.23,1.19a2,2,0,0,0,.48,3.94,2.4,2.4,0,0,0,.46-.05c3.81-.92,7.7-1.75,11.55-2.48a2,2,0,0,0-.37-4Zm-23.15,5.53a2.15,2.15,0,0,0-.56.07q-5.77,1.68-11.45,3.61a2,2,0,0,0,.65,3.89,2.14,2.14,0,0,0,.65-.1c3.71-1.27,7.5-2.46,11.26-3.55a2,2,0,0,0-.55-3.92Zm-22.54,7.67a2,2,0,0,0-.72.14l-.73.29h0l-.08,0h0l-.07,0h0l-.07,0,0,0-.06,0h0l0,0,0,0-.05,0,0,0h0l-.05,0,0,0-.06,0h0l-.07,0h0c-2.11.85-4.22,1.73-6.3,2.63h0l-.08,0h0l-.07,0h0l-.07,0h0l-.07,0h0l-.06,0,0,0-.06,0h0l-.06,0h0l0,0h0l-.05,0,0,0-.06,0h0l-.06,0h0l0,0h0l-.05,0h0l0,0h0l0,0-.09,0,0,0,0,0-.05,0,0,0,0,0-.05,0,0,0,0,0h0l0,0h0l0,0,0,0-.05,0,0,0,0,0,0,0-.06,0,0,0-.05,0,0,0,0,0,0,0,0,0,0,0-.06,0,0,0-.06,0h0l-.06,0h0l0,0h0l-.05,0h0l0,0-.05,0-.06,0h0l-.09,0a2,2,0,0,0,1.64,3.65c3.58-1.61,7.24-3.15,10.89-4.58a2,2,0,0,0-.74-3.87ZM689.93,670a2.08,2.08,0,0,0-.9.21q-5.35,2.71-10.58,5.67a2,2,0,0,0,1,3.74,2.05,2.05,0,0,0,1-.26c3.42-1.93,6.92-3.81,10.42-5.58a2,2,0,0,0-.91-3.78Zm-20.72,11.71a2,2,0,0,0-1.06.31h0l0,0-.05,0,0,0,0,0,0,0,0,0,0,0,0,0,0,0,0,0,0,0,0,0,0,0,0,0,0,0,0,0,0,0,0,0,0,0h0l-.06,0h0l-.07,0h0l-.3.19h0l-.07,0h0l-.07,0h0l-.07,0h0l-.07,0v0l-.07,0h0l-.07,0h0l-.06,0h0l-.06,0h0l-.05,0h0l-.06,0h0l-.06,0h0l-.06,0h0l-.06,0h0l-.06.05h0l-.07,0h0l-.07,0h0l-.08.05h0l-.08,0h0l-.78.51h0l-.07.05h0l-.07,0h0l-.07,0h0l-.07,0h0l-.07,0h0l-.06,0h0l-.06,0,0,0-.06,0,0,0-.06,0h0l-.06,0h0l-.06,0h0l-.06,0,0,0-.06,0,0,0-.06,0h0l-.06,0h0l-.06,0h0l-.07,0h0l-.07,0h0l-.44.3h0l0,0,0,0,0,0,0,0,0,0,0,0,0,0,0,0,0,0,0,0,0,0,0,0,0,0,0,0,0,0,0,0,0,0-.05,0,0,0,0,0,0,0-.05,0,0,0,0,0,0,0,0,0,0,0-.05,0,0,0,0,0,0,0-.06,0h0l-.06,0h0l-.07,0h0l-.8.54h0l-.07.05h0l-.07,0h0l-.07.06h0l-.08,0h0l-.08.06h0l-2,1.35a2,2,0,0,0,2.28,3.29c3.23-2.24,6.54-4.43,9.86-6.51a2,2,0,0,0-1.06-3.7Zm-19.57,13.57a1.94,1.94,0,0,0-1.2.41L647,696.82h0l-.07,0-.06,0h0l-.06.05h0l-.06,0h0l-.06.05h0q-3.85,3-7.59,6.12a2,2,0,0,0-.24,2.82,2,2,0,0,0,2.81.25c3-2.52,6.11-5,9.23-7.39a2,2,0,0,0-1.22-3.59Zm-18.24,15.3a2,2,0,0,0-1.35.52q-3.49,3.23-6.88,6.56h0l-.14.13h0l-.07.07h0l-.06.06h0l-.06.06h0l-.06.06h0l-.06.06h0l0,0,0,0-.05,0,0,0,0,0h0l-.05.05,0,0,0,0,0,0,0,0,0,0,0,0,0,0,0,0-.77.78a2,2,0,0,0,0,2.83,2,2,0,0,0,1.41.58,2,2,0,0,0,1.42-.59c2.76-2.79,5.63-5.54,8.51-8.2a2,2,0,0,0-1.35-3.47Zm-16.77,16.9a2,2,0,0,0-1.49.65c-.9,1-1.79,2-2.68,3h0l-.06.07h0l-.12.14h0l-.06.06h0l-.05.06,0,0,0,.05h0l-.05.06h0l0,.06h0l-.05.06h0l-.36.41h0l0,0,0,0,0,0,0,0,0,0,0,0,0,0,0,0,0,0,0,0,0,0,0,0,0,0,0,0,0,0,0,0,0,0,0,0,0,0,0,.05,0,0,0,0,0,0-.05,0v0l0,.05v0l-.05.06h0l0,.06h0l-.05.06v0l0,.06h0l-.06.06h0l0,.07h0l-.75.88h0l-.06.07h0l-.06.07h0l0,.06h0l0,.06,0,0,0,.06h0l-.06.06h0l0,.07h0l0,.06,0,0,0,.05,0,0,0,.06h0l0,.06v0l0,0,0,0,0,.06h0l0,.06,0,0,0,0v0l0,.05,0,0,0,0,0,0,0,0,0,0,0,0,0,0v0c-.12.13-.23.27-.35.41h0l-.72.87a2,2,0,0,0,.27,2.81,2,2,0,0,0,1.27.46,2,2,0,0,0,1.54-.72c2.5-3,5.1-6,7.74-8.94a2,2,0,0,0-1.48-3.34Zm-15.17,18.35a2,2,0,0,0-1.59.79q-3.61,4.8-7,9.77a2,2,0,0,0,.53,2.77,2,2,0,0,0,1.13.35,2,2,0,0,0,1.65-.88c2.21-3.23,4.53-6.46,6.89-9.6a2,2,0,0,0-1.6-3.2ZM586,765.53a2,2,0,0,0-1.7,1v0h0l0,.07,0,0,0,.06,0,0,0,0,0,0,0,.05,0,0,0,0,0,0,0,0,0,0,0,0,0,0,0,0,0,0,0,0,0,0,0,0,0,.05v0l0,0v0l0,0v0l0,.07h0l-.48.78h0l0,.07h0l0,.07h0l0,.07h0l0,.07v0l0,.06v0l0,.06v0l0,.06v0l0,.06v0l0,.06v0l0,.06v0l0,.07h0l0,.07v0l0,.06h0l0,.07h0l0,.07h0c-.1.15-.19.31-.28.46v0l0,.06,0,0,0,.05,0,0,0,0,0,0,0,0,0,0,0,0,0,0,0,0,0,0,0,0,0,0,0,0,0,0,0,0,0,.05,0,0,0,0,0,0,0,0,0,0,0,.06,0,0,0,.06v0l0,.07h0l-.05.08h0c-1.07,1.82-2.11,3.64-3.14,5.48a2,2,0,0,0,.79,2.71,2,2,0,0,0,1,.25,2,2,0,0,0,1.75-1c1.9-3.42,3.91-6.85,6-10.19a2,2,0,0,0-.65-2.75,2,2,0,0,0-1.05-.3Zm-11.56,20.81a2,2,0,0,0-1.8,1.11q-2.65,5.37-5.08,10.87a2,2,0,0,0,1,2.64,2.14,2.14,0,0,0,.81.17,2,2,0,0,0,1.83-1.2c1.58-3.59,3.26-7.19,5-10.7a2,2,0,0,0-.9-2.68,2,2,0,0,0-.89-.21Zm-9.59,21.79a2,2,0,0,0-1.87,1.28c-.47,1.22-.93,2.45-1.38,3.68h0l0,.08v0l0,.06v0l0,.05v0l0,0,0,0v0l0,.06,0,0,0,.07v0l0,.07v0l0,.08h0q-1.25,3.4-2.39,6.86a2,2,0,0,0,1.27,2.52,2,2,0,0,0,.63.1,2,2,0,0,0,1.9-1.37c1.23-3.72,2.58-7.46,4-11.12a2,2,0,0,0-1.15-2.58,1.84,1.84,0,0,0-.72-.14Zm-7.51,22.59a2,2,0,0,0-1.93,1.46l-.57,2.06h0l0,.07v.13l0,0v.09l0,0v.13l0,.07v0l0,.09h0q-1.18,4.41-2.21,8.86a2,2,0,0,0,1.5,2.39,1.73,1.73,0,0,0,.45,0,2,2,0,0,0,1.94-1.55c.89-3.82,1.87-7.66,2.93-11.44a2,2,0,0,0-1.92-2.54ZM552,853.91a2,2,0,0,0-2,1.64c-.09.49-.17,1-.26,1.47h0l0,.08h0v.54l0,.08v0c0,.16,0,.32-.08.49h0l0,.09h0c-.31,1.79-.59,3.59-.86,5.39h0v.09h0v.1h0l-.06.4h0V865h0l0,.09h0c-.11.77-.21,1.55-.32,2.32a2,2,0,0,0,1.72,2.25l.27,0a2,2,0,0,0,2-1.74c.52-3.88,1.14-7.81,1.84-11.66a2,2,0,0,0-1.61-2.33,2.19,2.19,0,0,0-.36,0Zm-3.16,23.59a2,2,0,0,0-2,1.82c-.22,2.54-.4,5.08-.54,7.64h0v.1h0v1h0c-.06,1.1-.11,2.19-.15,3.29a2,2,0,0,0,1.92,2.07h.08a2,2,0,0,0,2-1.93c.15-3.92.4-7.88.74-11.78a2,2,0,0,0-1.82-2.17Zm-.93,23.8h0a2,2,0,0,0-2,2c0,1.84.05,3.66.1,5.48v.64h0q.09,3,.25,5.88a2,2,0,0,0,2,1.9h.11a2,2,0,0,0,1.89-2.1c-.21-3.91-.33-7.88-.36-11.81a2,2,0,0,0-2-2Zm1.28,23.76-.2,0a2,2,0,0,0-1.79,2.17c.23,2.3.49,4.56.78,6.84v.65c.19,1.48.4,3,.62,4.43a2,2,0,0,0,2,1.71l.3,0a2,2,0,0,0,1.69-2.28c-.58-3.87-1.07-7.81-1.47-11.72a2,2,0,0,0-2-1.8Zm3.51,23.55a1.72,1.72,0,0,0-.39,0,2,2,0,0,0-1.58,2.35q1.17,5.89,2.6,11.71a2,2,0,0,0,1.94,1.52,2,2,0,0,0,.48-.06,2,2,0,0,0,1.47-2.42c-.94-3.8-1.8-7.68-2.56-11.53a2,2,0,0,0-2-1.61Zm5.7,23.11a2.24,2.24,0,0,0-.57.08,2,2,0,0,0-1.35,2.49c.38,1.29.78,2.58,1.18,3.86h0l0,.09h0l0,.09h0l0,.09h0l0,.09h0l0,.08h0l.08.24v.06l0,.05v0l0,.06v0l0,.06v0l0,.06v0l0,.07v0l0,.07v0l0,.06v0l0,.07v0l0,.08h0l0,.09h0c.64,2,1.29,3.94,2,5.89a2,2,0,0,0,1.88,1.34,1.91,1.91,0,0,0,.66-.11,2,2,0,0,0,1.23-2.55c-1.29-3.7-2.51-7.48-3.63-11.24a2,2,0,0,0-1.91-1.43Zm7.84,22.48a2,2,0,0,0-1.86,2.74c.75,1.86,1.51,3.69,2.3,5.53h0c.06.12.11.24.16.36l0,.08h0l0,.08h0l0,.09h0l0,.09h0q1,2.4,2.13,4.79a2,2,0,0,0,1.82,1.17,1.9,1.9,0,0,0,.83-.19,2,2,0,0,0,1-2.65c-1.64-3.56-3.2-7.22-4.67-10.85a2,2,0,0,0-1.85-1.25Zm9.9,21.64a2,2,0,0,0-1.78,2.92l.78,1.49h0l0,.07v0l0,.06,0,0,0,0,0,0,0,.06,0,0,0,0,0,0,0,0,0,0,0,0,0,.06v0l0,.06,0,0,0,.07h0c.91,1.74,1.84,3.45,2.8,5.16h0l0,.08h0l0,.07v0l0,.06v0l0,.07h0l0,.07v0l0,.06v0l0,0,0,0,0,.05,0,0,0,0,0,0,0,0,0,0h0c.41.73.82,1.46,1.24,2.19a2,2,0,0,0,1.74,1,2,2,0,0,0,1-.26,2,2,0,0,0,.74-2.73c-2-3.41-3.86-6.9-5.65-10.38a2,2,0,0,0-1.78-1.09ZM588,1036.49a2,2,0,0,0-1.68,3.07c.49.77,1,1.54,1.49,2.31h0l0,.08h0l0,.07h0l.05.07h0l0,.07v0l0,.06v0l0,.06,0,0,0,.06,0,0,0,0,0,0,0,0,0,0,0,0,0,0,0,0,0,0,0,0,0,0,0,0,0,0v0c1.46,2.21,3,4.4,4.48,6.57a2,2,0,0,0,1.64.85,2,2,0,0,0,1.15-.37,2,2,0,0,0,.48-2.79c-2.26-3.2-4.47-6.51-6.58-9.81a2,2,0,0,0-1.69-.92ZM601.72,1056a2,2,0,0,0-1.58,3.22l2,2.53h0l0,.06,0,0,0,.06,0,0,0,.05,0,0,0,0,0,0,0,0,0,0,0,0,0,0,0,0,0,0,0,0,0,0,0,0,0,.05,0,0,0,.06h0l0,.06h0q2.4,3,4.89,5.92a2,2,0,1,0,3-2.59c-2.55-3-5-6.08-7.45-9.17a2,2,0,0,0-1.59-.78Zm15.43,18.14a2,2,0,0,0-1.36.53,2,2,0,0,0-.1,2.82c.39.43.79.85,1.19,1.28l.08.08,0,0,.12.13h0l.13.13h0l.13.13h0l.13.14s0,0,0,0l1.82,1.89h0l.06.07h0l.06.06h0l.06.06h0l.06.06h0l0,0h0l.06.06h0l0,.06h0l.06.06h0l.06.06h0l.06.06h0l.06.06h0l.05.06h0l0,0h0l.05.06,0,0,.12.12h0l.12.12h0l.06.06h0l0,0,0,0,0,0,0,0,0,0,0,0,0,0,0,0,0,0,0,0,0,0,0,0,0,0,0,0,0,0,0,0,0,0,0,0,0,0,0,0,0,0,0,0,0,0,0,0,0,0,0,0,0,0,0,0,0,0,0,0,0,0,0,0,0,0,0,0,0,0,0,0,0,0,0,0,0,0,0,0,0,0,0,0,0,0h0l2.05,2a2,2,0,0,0,2.8-2.86c-2.8-2.75-5.58-5.59-8.25-8.46a2,2,0,0,0-1.47-.63Zm17,16.65a2,2,0,0,0-1.34,3.48q1.39,1.26,2.82,2.49l0,0,0,0,0,0,0,0,0,0,0,0,0,0,0,0,0,0,0,0,0,0,0,0,0,.05h0l.05,0,0,0,0,0v0l.06,0,0,0,0,.05h0l.06,0h0l.06,0h0l.06,0h0l.06.06s0,0,0,0l.06.06h0c1.71,1.47,3.43,2.91,5.18,4.33a2,2,0,0,0,2.52-3.1c-3-2.48-6.06-5.06-9-7.67a2,2,0,0,0-1.33-.51Zm18.46,15a2,2,0,0,0-1.19,3.6c1.38,1,2.77,2,4.17,3h0l0,0,0,0,0,0,0,0,0,0,0,0,0,0,0,0,0,0,0,0h0l.06,0h0l.06,0h0l.07,0h0q1.9,1.35,3.84,2.66h0l.07,0h0l.06,0h0l.05,0,0,0,0,0,0,0,0,0,0,0,0,0,.05,0,0,0,.06,0h0l.07,0h0l.46.32a2,2,0,1,0,2.23-3.32c-3.25-2.19-6.5-4.48-9.65-6.82a2,2,0,0,0-1.19-.39Zm19.76,13.28a2,2,0,0,0-1,3.71l.16.1,0,0,.05,0,0,0,0,0,.06,0,0,0,.07,0h0l.07,0h0l.07.05h0q4.82,2.91,9.75,5.6a2,2,0,0,0,1,.25,2,2,0,0,0,1-3.76c-3.44-1.87-6.88-3.86-10.23-5.9a2.1,2.1,0,0,0-1-.29Zm20.89,11.41a2,2,0,0,0-.89,3.8l1.93.93h0l.17.08h0l.09,0,.16.07h0q4.23,2,8.54,3.87a2,2,0,1,0,1.58-3.67c-3.6-1.56-7.21-3.21-10.73-4.93a2,2,0,0,0-.88-.21Zm21.86,9.43a2,2,0,0,0-.71,3.87q3.55,1.34,7.14,2.57h0l.08,0h0l.07,0h0l.06,0h0l.06,0h0l.06,0h0l.06,0h0l0,0,0,0h0l.05,0h0l0,0h0l.06,0h0l.08,0h0l.84.29h0l.09,0h0l1.87.62h0l.09,0h0l.09,0h0l.09,0h0a1.87,1.87,0,0,0,.62.1,2,2,0,0,0,.61-3.9c-3.72-1.21-7.48-2.53-11.15-3.91a1.93,1.93,0,0,0-.7-.13Zm22.64,7.35a2,2,0,0,0-.54,3.92c1.77.48,3.54.95,5.32,1.39h0l.09,0h0l.09,0h0l.09,0h0l.1,0h0l.29.07h0l.05,0h.18l.07,0h0l.06,0h.12l.07,0h0l.08,0h0l.08,0h0l.09,0h0c1.58.38,3.16.75,4.75,1.11a2.18,2.18,0,0,0,.44,0,2,2,0,0,0,.43-3.95c-3.82-.85-7.68-1.81-11.46-2.84a1.93,1.93,0,0,0-.53-.07Zm23.23,5.18a2,2,0,0,0-.35,4q3.11.54,6.24,1h0l.1,0h.3l.5.07h.91l.09,0h.11l.09,0h.72l.08,0h0l2.74.36h.24a2,2,0,0,0,.25-4c-3.89-.49-7.82-1.08-11.68-1.76a2.07,2.07,0,0,0-.35,0Zm23.62,3a2,2,0,0,0-.16,4c3.6.28,7.21.49,10.85.62h.19l.65,0h.36a2,2,0,0,0,.06-4c-3.92-.12-7.89-.34-11.79-.65Zm35.7.31h-.13c-3.91.24-7.88.39-11.8.45a2,2,0,0,0,0,4h.13c1.88,0,3.76-.07,5.63-.14h.57l.34,0h3.77l1.58-.09a2,2,0,0,0-.12-4Zm23.66-2.57a1.67,1.67,0,0,0-.31,0c-3.87.61-7.81,1.13-11.71,1.55a2,2,0,0,0,.22,4h1.24l.29,0h.81l.61-.07h0l.1,0h.2q3.48-.42,6.93-.93H843l1.28-.2a2,2,0,0,0-.31-4Zm23.32-4.78a2.2,2.2,0,0,0-.5.06c-3.8,1-7.67,1.86-11.51,2.64a2,2,0,0,0,.4,4,1.81,1.81,0,0,0,.4,0h.08l.08,0h0q4-.83,7.93-1.76h0l.09,0h0l.08,0h0l.06,0h.13l.06,0h0l.06,0H865l2.79-.69a2,2,0,0,0-.49-3.94Zm22.76-7a2,2,0,0,0-.67.12c-3.69,1.32-7.46,2.57-11.21,3.71a2,2,0,0,0,.58,3.91,2.06,2.06,0,0,0,.59-.09l.35-.1h0l.08,0h0l.08,0h0l.07,0h0l.06,0,0,0h0l0,0h0l.07,0h0l.19-.06h0l.19-.06h0l.09,0h0l.08,0h0l.09,0h0l.08,0h0l.09,0h0l.08,0h0l.09,0h0l1.42-.45h0l1.22-.4h0l.08,0h0l.07,0h0l.06,0h0l.06,0h0l.06,0h0l.05,0h0l0,0h.05l0,0h0l0,0h0l0,0H885l.06,0h0l.07,0h0c1.81-.6,3.61-1.21,5.4-1.85h0l.07,0h0l.06,0h0a2,2,0,0,0-.68-3.88Zm22-9a1.94,1.94,0,0,0-.84.19c-3.56,1.66-7.2,3.26-10.82,4.74a2,2,0,0,0,.76,3.86,2,2,0,0,0,.75-.15l1.17-.48h0l.08,0h0l.08,0h0l.07,0h0l.07,0h0l.06,0h0l0,0,0,0,.05,0,0,0,0,0h.05l0,0,.05,0,0,0,.06,0h0l.07,0h0q2.37-1,4.73-2h0l.08,0h0l.08,0h0l.08,0h0l.08,0h0l.07,0h0l.08,0h0l.07,0h0l.06,0,0,0,0,0,.06,0h0c1.09-.49,2.17-1,3.25-1.49a2,2,0,0,0-.86-3.81Zm21.09-11.05a2,2,0,0,0-1,.28c-3.39,2-6.86,3.9-10.33,5.72a2,2,0,0,0,.93,3.77,2,2,0,0,0,.91-.22l2.38-1.26h0l.07,0h0l.06,0h0l.07,0h0l.06,0h0l.05,0,0,0,0,0,.05,0h0l0,0h0c2.53-1.37,5-2.77,7.5-4.22a2,2,0,0,0-1-3.73Zm20-12.94a2,2,0,0,0-1.16.37c-3.19,2.28-6.48,4.52-9.77,6.65a2,2,0,0,0,2.18,3.36h0l.07,0,0,0,.08,0,0,0,0,0,.06,0h0l.06,0h0l.06,0h0l.07,0h0l.06,0h0l.06,0h0l.06,0h0l.06,0h0l.07,0h0l.07-.05h0l.07,0h0l.07,0h0l.07,0h0l.08-.05h0l.08,0h0c.49-.32,1-.64,1.46-1h0l.08,0h0l.08,0h0l.08,0h0l.07,0h0l.08,0h0l.08,0h0l.08,0h0l.08,0h0l1-.65h0l.07,0h0l.07,0h0l.07-.05h0l.07,0h0l.06,0h0l.07,0h0l.06,0h0l.06,0h0l.06,0h0l.06,0h0l.06,0h0l.06,0,0,0,.06,0h0l.06,0h0l.06,0h0l.06,0,0,0,.07,0h0l.56-.39h0l.15-.11h0l.07,0h0l.07,0h0l.07,0h0l.07-.05h0l.07,0h0l.07,0h0l2.8-2a2,2,0,0,0-1.17-3.62Zm18.71-14.72a2,2,0,0,0-1.3.48c-3,2.57-6,5.1-9.12,7.52a2,2,0,0,0,1.24,3.57,2,2,0,0,0,1.23-.43q3.84-3,7.55-6.16h0l.06-.05h0l.06,0h0l.06,0h0l0,0,0,0,.05,0,0,0,.06,0,0,0,.05,0,0,0,0,0,0,0,0,0,0,0,0,0,.05,0,0,0,.07-.06h0l.86-.74a2,2,0,0,0-1.31-3.51Zm17.3-16.37a2,2,0,0,0-1.44.62c-2.72,2.82-5.55,5.62-8.39,8.31a2,2,0,0,0,2.74,2.91l.26-.25h0l0-.05,0,0,0,0,0,0,0,0,0,0,0,0,0,0,0,0,0,0,0,0,0,0,.05,0,0,0,0,0,0,0,0,0,0,0,0,0,0,0,0,0,0,0,0,0,.05,0,0,0,0,0,0,0,.05,0,0,0,0-.05h0l.05-.06h0l.06-.06h0q3.16-3,6.21-6.16h0l.07-.07h0l0-.06,0,0,.05,0,0,0,0,0,0,0,0,0,0,0,0,0,.05-.05,0,0,0-.06h0l.06-.07h0l.26-.27a2,2,0,0,0-1.44-3.39Zm15.74-17.86a2,2,0,0,0-1.56.74c-2.46,3.06-5,6.1-7.61,9a2,2,0,0,0,1.5,3.32,2,2,0,0,0,1.5-.67q3.22-3.66,6.31-7.45h0l.05-.06,0,0,0-.06,0,0,0,0,0,0,0,0,0-.05,0,0,0,0,0,0,0,0,0,0,0-.05,0,0,.05-.06h0l0-.06v0l.05-.06h0l.06-.06h0l.71-.87a2,2,0,0,0-.31-2.81,2,2,0,0,0-1.25-.44Zm14-19.23a2,2,0,0,0-1.67.89c-2.17,3.27-4.44,6.53-6.75,9.7a2,2,0,0,0,.44,2.8,2,2,0,0,0,1.17.38,2,2,0,0,0,1.62-.81q3.21-4.39,6.24-8.94h0l0-.08h0l0-.07,0,0,0-.06v0l0-.06,0,0,0-.05,0,0,0,0,0,0,0,0,0,0,0,0,0,0,0,0,0,0,0,0,0,0v0l0,0h0a2,2,0,0,0-.56-2.77,1.94,1.94,0,0,0-1.1-.33Zm12.21-20.44a2,2,0,0,0-1.76,1.06c-1.85,3.45-3.81,6.91-5.83,10.27a2,2,0,0,0,1.72,3,2,2,0,0,0,1.71-1q1.5-2.51,2.94-5.05h0l0-.08h0l0-.08h0l0-.08h0l0-.07,0,0,0-.06v0l0-.07v0l0-.06v0l0-.06,0,0,0-.06v0l0-.06v0l0,0,0,0,0-.05,0,0,0,0v0l0-.06v0l0-.08h0l0-.07v0l0-.07h0l0-.07,0,0,0,0,0,0,0,0,0-.05,0,0,0,0,0,0,0,0,0,0,0,0,0,0,0,0,0,0,0,0,0,0,0-.05v0l0,0,0,0,0,0,0,0,0-.06v0l0-.06,0,0,0,0v0l0-.06,0,0,0-.06v0l0-.07h0l0-.07h0c.13-.24.26-.48.4-.72h0l0-.07v0l0-.06v0l0-.06,0,0,0,0,0,0,0,0,0,0,0-.05,0,0,0-.05v0l0,0,0,0,0-.05,0,0,0,0,0,0,0,0,0-.05,0,0,0,0,0,0,0,0,0,0,0-.05,0,0,0-.07h0l0-.07v0l.14-.25a2,2,0,0,0-.82-2.71,2,2,0,0,0-.95-.24Zm10.28-21.47a2,2,0,0,0-1.84,1.22c-1.53,3.61-3.16,7.23-4.85,10.77a2,2,0,0,0,.94,2.67,2,2,0,0,0,.86.19,2,2,0,0,0,1.8-1.12q1.55-3.22,3-6.49h0l0-.07,0,0,0,0,0,0,0-.05,0,0,0,0,0,0,0,0,0-.05v0l0,0v0l0-.06v0l0-.06v0l0-.07h0l0-.08h0l0-.07h0c.5-1.15,1-2.29,1.48-3.44a2,2,0,0,0-1.84-2.78Zm8.23-22.34a2,2,0,0,0-1.9,1.4c-1.19,3.74-2.47,7.5-3.83,11.18a2,2,0,0,0,1.19,2.56,1.84,1.84,0,0,0,.69.13,2,2,0,0,0,1.87-1.31q2.07-5.62,3.89-11.35a2,2,0,0,0-1.3-2.51,1.9,1.9,0,0,0-.61-.1Zm6.1-23a2,2,0,0,0-2,1.57c-.82,3.84-1.75,7.7-2.76,11.49a2,2,0,0,0,1.42,2.44,1.86,1.86,0,0,0,.52.07,2,2,0,0,0,1.92-1.47c.34-1.26.66-2.53,1-3.8h0c0-.19.1-.38.14-.58v0l0-.07v0l0-.06v-.13l0-.06V962l0,0v-.23l0,0v0l0-.06v0c0-.1,0-.21.07-.31v-.21l0-.06v0l0-.05v-.23l0-.06v0l0-.06v-.3l0-.08h0c0-.11,0-.23.08-.34v0l0-.07v0l0-.07v-.31l0,0v0l0-.06v-.31l0-.07h0l0-.08v0c0-.11,0-.21.07-.32v0l0-.06v0l0-.06v0l0-.06v-.59l0-.07v0l0-.06v0l0-.08h0c0-.15.07-.3.1-.45h0l0-.08h0l0-.08h0l0-.08h0l0-.09h0l0-.08h0l0-.08h0l0-.08h0c.06-.25.11-.49.16-.73a2,2,0,0,0-1.53-2.38,2.09,2.09,0,0,0-.43,0Zm3.92-23.48a2,2,0,0,0-2,1.76c-.47,3.89-1,7.83-1.67,11.69a2,2,0,0,0,1.64,2.31l.33,0a2,2,0,0,0,2-1.67c.16-1,.31-1.9.46-2.85h0v-.92l0-.19V937.4h0c0-.12,0-.24,0-.37h0v-.55h0v-.18h0l0-.08h0c0-.21.06-.43.08-.64h0v-.08h0v-.18h0v-.08h0v-.09h0c0-.21,0-.42.08-.63h0v-.92h0l0-.2h0v-.1h0v-.09h0V933h0c.06-.43.11-.85.16-1.28a2,2,0,0,0-1.75-2.21Zm1.7-23.75a2,2,0,0,0-2,1.95c-.1,3.92-.29,7.89-.57,11.8a2,2,0,0,0,1.86,2.14h.14a2,2,0,0,0,2-1.85c0-.16,0-.33,0-.49v-.54h0q.24-3.36.37-6.73h0v-.65c0-1.19.08-2.4.11-3.59a2,2,0,0,0-2-2Zm-3.57-4.3h-12a2,2,0,0,0,0,4h12a2,2,0,0,0,0-4Zm-24,0h-12a2,2,0,0,0,0,4h12a2,2,0,0,0,0-4Zm-24,0h-12a2,2,0,0,0,0,4h12a2,2,0,0,0,0-4Zm-24,0h-12a2,2,0,0,0,0,4h12a2,2,0,0,0,0-4Zm-24,0h-12a2,2,0,0,0,0,4h12a2,2,0,0,0,0-4Zm-24,0h-12a2,2,0,0,0,0,4h12a2,2,0,0,0,0-4Zm-24,0h-12a2,2,0,0,0,0,4h12a2,2,0,0,0,0-4Zm-24,0h-12a2,2,0,0,0,0,4h12a2,2,0,0,0,0-4Zm-24,0h-12a2,2,0,0,0,0,4h12a2,2,0,0,0,0-4Zm-24,0h-12a2,2,0,0,0,0,4h12a2,2,0,0,0,0-4Zm-24,0h-12a2,2,0,0,0,0,4h12a2,2,0,0,0,0-4Zm-6.46-24a2,2,0,0,0-1.86,1.25L805,889.85a2,2,0,0,0,1.11,2.6,2,2,0,0,0,.75.15,2,2,0,0,0,1.85-1.26l2-5,2.49-6.19a2,2,0,0,0-1.11-2.6,2.21,2.21,0,0,0-.75-.14Zm8.95-22.27a2,2,0,0,0-1.86,1.25L814,867.58a2,2,0,0,0,1.11,2.6,1.92,1.92,0,0,0,.74.15,2,2,0,0,0,1.86-1.25l2.6-6.49,0-.06h0v0l0,0,1.81-4.52a2,2,0,0,0-1.11-2.61,2.11,2.11,0,0,0-.74-.14Zm9-22.27a2,2,0,0,0-1.86,1.25l-4.48,11.14a2,2,0,0,0,1.12,2.6,1.92,1.92,0,0,0,.74.15,2,2,0,0,0,1.86-1.26l1.87-4.65,2.6-6.49a2,2,0,0,0-1.11-2.6,2.15,2.15,0,0,0-.74-.14Zm8.94-22.27a2,2,0,0,0-1.85,1.26L831.87,823a2,2,0,1,0,3.71,1.49l4.48-11.13a2,2,0,0,0-1.11-2.61,2.21,2.21,0,0,0-.75-.14Zm8.95-22.27a2,2,0,0,0-1.86,1.26l-4.47,11.13a2,2,0,0,0,1.11,2.6,2,2,0,0,0,.74.15,2,2,0,0,0,1.86-1.25l3.88-9.65h0v0l0-.08h0l.55-1.36a2,2,0,0,0-1.12-2.6,1.92,1.92,0,0,0-.74-.15Zm9-22.27a2,2,0,0,0-1.86,1.26l-4.47,11.13a2,2,0,0,0,1.11,2.6,1.92,1.92,0,0,0,.74.15,2,2,0,0,0,1.86-1.26L858,768.86a2,2,0,0,0-1.11-2.6,1.92,1.92,0,0,0-.74-.15ZM865,743.84a2,2,0,0,0-1.85,1.26l-4.48,11.13a2,2,0,0,0,3.71,1.5l4.09-10.18h0v0h0l.37-.91a2,2,0,0,0-1.11-2.6,2,2,0,0,0-.75-.15Zm9-22.27a2,2,0,0,0-1.85,1.26L867.66,734a2,2,0,1,0,3.71,1.49s1.14-2.82,2.26-5.62l2.22-5.52a2,2,0,0,0-1.86-2.74Zm9-22.27a2,2,0,0,0-1.86,1.26l-4.47,11.13a2,2,0,0,0,1.11,2.6,2,2,0,0,0,.74.15,2,2,0,0,0,1.86-1.26l.23-.58h0v0l0-.12h0c1-2.48,4.17-10.4,4.17-10.4a2,2,0,0,0-1.11-2.6,1.92,1.92,0,0,0-.74-.15ZM891.89,677a2,2,0,0,0-1.86,1.26l-4.47,11.13a2,2,0,0,0,1.11,2.6,1.92,1.92,0,0,0,.74.15,2,2,0,0,0,1.85-1.25l4.48-11.15a2,2,0,0,0-1.11-2.59,1.92,1.92,0,0,0-.74-.15Zm4.75-17.35a2,2,0,0,0-.72,3.86h0l-1.45,3.6a2,2,0,1,0,3.72,1.49l1.45-3.62h0l1.49-3.71h0l-3.81-1.5a2,2,0,0,0-.71-.13ZM874,652.19a2,2,0,0,0-.54,3.93c3.77,1.06,7.58,2.22,11.3,3.45a2,2,0,0,0,2.52-1.27,2,2,0,0,0-1.26-2.53h0l-.08,0h0l-.06,0h0l-.06,0h0l0,0-.05,0h0l0,0h0l-.07,0h0l-.09,0h0q-4.27-1.39-8.58-2.65h0l-.09,0h0l-.08,0h0l-.08,0h0l-.08,0h0l-.08,0h0l-.07,0h0l-.07,0h0l-.08,0h0l-.07,0h0l-.06,0h0l-.06,0h-.08l-.05,0h0l-.51-.14h0l-.54-.15h0a2,2,0,0,0-.54-.08Zm-23.2-5.36a2,2,0,0,0-.35,4c3.85.7,7.74,1.51,11.56,2.39a1.85,1.85,0,0,0,.46,0,2,2,0,0,0,.45-3.94l-1.21-.28h0l-.09,0h0l-.09,0h-.36l-.05,0h-.67l-.09,0h0c-2.77-.62-5.56-1.18-8.35-1.7h0l-.06,0h-.54l-.07,0h-.16l-.36,0Zm-23.59-3.19a2,2,0,0,0-.17,4c3.9.34,7.85.78,11.74,1.31h.27a2,2,0,0,0,.26-4q-2.93-.39-5.85-.72h-.65q-2.72-.3-5.43-.54Zm-22.56-1h-7.77c-1.41,0-2.83.09-4.24.16a2,2,0,0,0,.1,4h.1c3.91-.18,7.88-.27,11.81-.27h0c3.52,0,7.08.07,10.6.22h.08a2,2,0,0,0,.1-4l-3.23-.11h-7.55Z" transform="translate(2 -142.59)"/></g><g class="cls-1"><path class="cls-5" d="M0,144.59c0,1.94,0,3.94,0,6" transform="translate(2 -142.59)"/><path class="cls-6" d="M.14,162.57c2.29,181.19,36.19,710.79,436.77,1135,300.14,317.85,656.46,418,783.42,452,599.24,160.29,874.28-106.7,1552.66-56.72,253.32,18.67,619.69,85.72,1056.41,317" transform="translate(2 -142.59)"/><path class="cls-5" d="M3834.7,2012.58l5.3,2.83" transform="translate(2 -142.59)"/></g><line class="cls-7" x1="2221.1" y1="1026.47" x2="3686.91" y2="1026.53"/><line class="cls-7" x1="2699.66" y1="29.64" x2="2699.66" y2="1486.7"/><g class="cls-1"><path class="cls-4" d="M2711.57,1149.57V726a423.62,423.62,0,0,1,423.61,423.4Z" transform="translate(2 -142.59)"/><polyline class="cls-8" points="2719.57 1006.97 2713.57 1006.98 2713.57 1000.98"/><line class="cls-9" x1="2713.57" y1="989.22" x2="2713.57" y2="595.24"/><path class="cls-8" d="M2711.57,732v-6q3,0,6,0" transform="translate(2 -142.59)"/><path class="cls-10" d="M2729.44,726.33A423.62,423.62,0,0,1,3135,1137.41" transform="translate(2 -142.59)"/><path class="cls-8" d="M3135.14,1143.35q0,3,0,6h-6" transform="translate(2 -142.59)"/><line class="cls-9" x1="3119.42" y1="1006.77" x2="2725.45" y2="1006.97"/></g><polygon class="cls-11" points="3137.45 1066.8 3125.94 1086.74 3148.97 1086.74 3137.45 1066.8"/><polygon class="cls-11" points="2668.64 583.8 2648.7 572.29 2648.7 595.32 2668.64 583.8"/><text class="cls-12" transform="matrix(0.76, -0.65, 0.65, 0.76, 2736.68, 997.08)">90</text><g class="cls-1"><line class="cls-13" x1="464.61" y1="1343.74" x2="467.61" y2="1343.74"/><line class="cls-14" x1="473.6" y1="1343.74" x2="3515.19" y2="1344.63"/><line class="cls-13" x1="3518.19" y1="1344.63" x2="3521.19" y2="1344.63"/></g><g class="cls-1"><line class="cls-15" x1="464.16" y1="1573.21" x2="467.16" y2="1573.21"/><line class="cls-16" x1="473.16" y1="1573.21" x2="3514.75" y2="1574.09"/><line class="cls-15" x1="3517.75" y1="1574.09" x2="3520.75" y2="1574.1"/></g><g class="cls-1"><path class="cls-17" d="M75.33,1184.13h3" transform="translate(2 -142.59)"/><path class="cls-18" d="M84.33,1184.13l3428.42-2.71" transform="translate(2 -142.59)"/><path class="cls-17" d="M3515.75,1181.42h3" transform="translate(2 -142.59)"/></g><polygon class="cls-11" points="806.72 1060.53 795.21 1080.47 818.23 1080.47 806.72 1060.53"/><polygon class="cls-11" points="1350.61 1366.78 1339.1 1386.72 1362.12 1386.72 1350.61 1366.78"/><polygon class="cls-11" points="2180.45 1613.04 2168.93 1632.98 2191.96 1632.98 2180.45 1613.04"/></g></svg>